<?xml version="1.0" encoding="utf-8"?>
<!-- Generator: Adobe Illustrator 15.1.0, SVG Export Plug-In . SVG Version: 6.00 Build 0)  -->
<!DOCTYPE svg PUBLIC "-//W3C//DTD SVG 1.1//EN" "http://www.w3.org/Graphics/SVG/1.1/DTD/svg11.dtd">
<svg version="1.1" id="Layer_1" xmlns="http://www.w3.org/2000/svg" xmlns:xlink="http://www.w3.org/1999/xlink" x="0px" y="0px"
	 width="100px" height="100px" viewBox="0 0 100 100" enable-background="new 0 0 100 100" xml:space="preserve">
<g>
	<path fill="#030409" d="M51.861,15.411c-19.544,0-35.442,15.9-35.442,35.443c0,19.542,15.898,35.441,35.442,35.441
		c19.541,0,35.44-15.899,35.44-35.441C87.302,31.311,71.402,15.411,51.861,15.411z"/>
	<circle fill="#0B4E5A" stroke="#004054" stroke-width="3" stroke-miterlimit="10" cx="49.246" cy="48.52" r="33.652"/>
	<g>
		<g>
			<path fill="#CFD1D2" d="M65.94,57.398l-4.032-20.358c1.008-0.124,1.801-0.95,1.801-1.992c0-1.127-0.915-2.04-2.041-2.04
				c-0.689,0-1.271,0.365-1.64,0.89l-19.037-8.72l0.387,1.509c-0.737-1.592-1.395-3.199-1.931-4.817c0,0-4.825,13.36,1.515,24.622
				c-2.008,0.471-3.505,2.226-3.505,4.331c0,2.185,1.608,3.537,3.726,3.926L38.693,69.5h11.476l-6.818-14.883
				c1.207-0.359,2.194-0.955,2.75-2.042c10.292,9.266,24.223,8.438,24.223,8.438S68.593,59.765,65.94,57.398z M59.936,34.037
				c-0.178,0.303-0.307,0.635-0.307,1.012c0,0.298,0.069,0.577,0.187,0.832l-9.465,5.061c-2.649-3.378-5.156-7.022-7.23-10.809
				L59.936,34.037z M53.249,44.485l6.871-8.153c0.368,0.447,0.905,0.747,1.531,0.752l0.393,16.699
				C59.357,51.197,56.289,48.039,53.249,44.485z"/>
			<rect x="34.599" y="72.069" fill="#CFD1D2" width="20.519" height="1.648"/>
		</g>
	</g>
	<path opacity="0.56" fill="#457C94" d="M29.367,70.75c0,0-11.626-11.09-8.821-27.056c2.801-15.964,16.608-25.19,29.064-24.88
		c12.454,0.311,20.554,7.049,25.225,13.787C74.834,32.601,42.758,37.165,29.367,70.75z"/>
</g>
</svg>
