<?xml version="1.0" encoding="utf-8"?>
<!-- Generator: Adobe Illustrator 15.1.0, SVG Export Plug-In . SVG Version: 6.00 Build 0)  -->
<!DOCTYPE svg PUBLIC "-//W3C//DTD SVG 1.1//EN" "http://www.w3.org/Graphics/SVG/1.1/DTD/svg11.dtd">
<svg version="1.1" id="Layer_1" xmlns="http://www.w3.org/2000/svg" xmlns:xlink="http://www.w3.org/1999/xlink" x="0px" y="0px"
	 width="100px" height="100px" viewBox="0 0 100 100" enable-background="new 0 0 100 100" xml:space="preserve">
<g>
	<g>
		<path fill="none" stroke="#638580" stroke-miterlimit="10" d="M77.83,31.896c0,0-1.336,10.597,0.668,35.956"/>
		<path fill="#18CA1E" d="M72.975,31c0,0,4.532,19,0.005,38H16.635c0,0-7.203-30,1.696-38H72.975z"/>
		<path fill="#638580" d="M84.734,41h-3.4l0.7,7.442L81.704,57h3.03C84.734,57,87.715,50,84.734,41z"/>
		<path fill="#638580" d="M19.584,31h-2.109c0,0-3.475,0.629-3.475,6.667v17.935c0,0-0.983,12.398,3.475,13.398h0.578
			c-2.521-4-2.502-11.395-2.502-11.395s0.341-11.908,0.029-18.622C15.372,34.523,17.878,32,19.584,31z"/>
		<path fill="none" stroke="#657D8B" stroke-miterlimit="10" d="M17.475,30.5c0,0-3.975,1.129-3.975,7.167v17.935
			c0,0-0.483,12.898,3.975,13.898h61.46c0,0,6.848-18,0.101-39H17.475z"/>
		<path fill="none" stroke="#00A306" stroke-miterlimit="10" d="M19.584,32.683c0,0,1.792,7.64-0.578,35.168"/>
		<path opacity="0.42" fill="#FDFDFD" d="M13.473,61h67.441c0,0-0.172,3-1.188,6H15.054C15.054,67,13.342,66,13.473,61z"/>
		<path opacity="0.7" fill="#44F541" d="M19.634,33c0,0-3.749,2-2.159,22h56.063c0,0,0.25-17-1.709-22H19.634z"/>
		<path opacity="0.3" fill="#FDFDFD" d="M13,36v10h68.441c0,0-0.889-8-1.497-10H13z"/>
		<polygon opacity="0.3" fill="#FDFDFD" points="13,37 80.387,37 81.334,42 13,42 		"/>
		<path fill="none" stroke="#5D6265" stroke-miterlimit="10" d="M17.475,30.576c0,0-4.542,0.636-4.535,6.586
			c0.007,6.455-1.311,31.614,4.535,31.875"/>
		<path opacity="0.3" fill="#FDFDFD" d="M85.656,44h-4.215c0,0,0.703,3,0.526,6h4.215C86.183,50,86.062,45,85.656,44z"/>
		<path opacity="0.3" fill="#FDFDFD" d="M81.968,45h3.688c0,0,0.389,1.991,0.334,2.653l-3.503-0.031
			C82.487,47.623,82.137,45,81.968,45z"/>
		<path opacity="0.66" fill="#455862" d="M47.023,38h8.073l-6.975,8h4.882l-6.037,7h4.542c0,1-11.825,14.229-11.825,14.229
			L43.191,57h-2.746l3.789-7h-4.686L47.023,38z"/>
	</g>
</g>
</svg>
