<?xml version="1.0" encoding="utf-8"?>
<!-- Generator: Adobe Illustrator 15.1.0, SVG Export Plug-In . SVG Version: 6.00 Build 0)  -->
<!DOCTYPE svg PUBLIC "-//W3C//DTD SVG 1.1//EN" "http://www.w3.org/Graphics/SVG/1.1/DTD/svg11.dtd">
<svg version="1.1" id="Layer_1" xmlns="http://www.w3.org/2000/svg" xmlns:xlink="http://www.w3.org/1999/xlink" x="0px" y="0px"
	 width="100px" height="100px" viewBox="0 0 100 100" enable-background="new 0 0 100 100" xml:space="preserve">
<g>
	<g>
		<g>
			<path fill="#D9E9F6" stroke="#737D86" stroke-miterlimit="10" d="M76.387,75.266V23.957H23.459v52.928h0.16
				c0.642,5.636,12.234,10.127,26.442,10.127c14.622,0,26.476-4.755,26.476-10.62C76.537,76.012,76.484,75.636,76.387,75.266z"/>
			<ellipse fill="#D9E9F6" stroke="#737D86" stroke-miterlimit="10" cx="50.063" cy="23.089" rx="26.475" ry="10.619"/>
			<ellipse fill="#B6C6D3" cx="50.111" cy="23.176" rx="20.143" ry="8.08"/>
			<ellipse fill="#9BABB8" cx="50.234" cy="23.068" rx="14.259" ry="5.72"/>
			<path fill="#309C25" stroke="#004E1B" stroke-miterlimit="10" d="M23.459,33.816c0,0,19.895,15.169,52.928-0.108v38.054
				c0,0-22.522,17.372-52.928,0V33.816z"/>
			<path fill="#C3111D" stroke="#6B0000" stroke-miterlimit="10" d="M45.056,50.727c0,0-10.047-1.177-8.96,10.138
				c1.085,11.313,15.839,14.844,22.175,7.513c6.336-7.332,4.526-25.775-12.853-17.685"/>
			<path fill="#174819" stroke="#002702" stroke-miterlimit="10" d="M46.485,48.741l-6.382-1.695c0,0,3.49,2.729,3.789,2.761
				s-4.088-0.068-4.985,3.322c-0.897,3.39,3.39-1.895,5.085-2.193c0,0-1.495,6.389,1.695,6.035c0,0-1.895-4.839-0.1-5.637
				c0,0,1.396,3.19,3.889,2.593c0,0-2.692-3.055-1.795-4.12c0,0,4.288-0.367,5.086,1.727C52.768,51.533,51.943,45.298,46.485,48.741
				z"/>
			<path fill="none" stroke="#737D86" stroke-miterlimit="10" d="M23.588,25.732c0,0,6.381,9.673,26.41,8.815
				c21.71-0.93,26.539-7.717,26.539-7.717"/>
			<path opacity="0.5" fill="#FFFEF6" d="M27.588,28.649v53.303c0,0,5.631,3.871,13.889,4.463V33.153
				C41.477,33.153,30.914,31.818,27.588,28.649z"/>
			<path fill="none" stroke="#737D86" stroke-miterlimit="10" d="M23.213,26.858c0,0,6.381,9.673,26.409,8.815
				c21.71-0.93,26.915-6.966,26.915-6.966"/>
			<path opacity="0.4" fill="#737D86" d="M64,32.027v53.304c0,0,8-2.764,11-5.185V27.147C75,27.147,67,31.386,64,32.027z"/>
		</g>
		<path opacity="0.4" fill="#737D86" d="M64.392,32.027l-14.157-8.959l24.695,4.079C74.93,27.147,67.336,31.377,64.392,32.027z"/>
		<path opacity="0.5" fill="#FFFEF6" d="M41.477,33.153l8.758-10.085l-22.646,5.581C27.588,28.649,34.077,32.609,41.477,33.153z"/>
		<path opacity="0.4" fill="#737D86" d="M50.234,23.068l-12.181-9.445c0,0-6.355,1.331-8.976,2.993L50.234,23.068z"/>
	</g>
</g>
</svg>
