<?xml version="1.0" encoding="utf-8"?>
<!-- Generator: Adobe Illustrator 15.1.0, SVG Export Plug-In . SVG Version: 6.00 Build 0)  -->
<!DOCTYPE svg PUBLIC "-//W3C//DTD SVG 1.1//EN" "http://www.w3.org/Graphics/SVG/1.1/DTD/svg11.dtd">
<svg version="1.1" id="Layer_1" xmlns="http://www.w3.org/2000/svg" xmlns:xlink="http://www.w3.org/1999/xlink" x="0px" y="0px"
	 width="100px" height="100px" viewBox="0 0 100 100" enable-background="new 0 0 100 100" xml:space="preserve">
<g>
	<g>
		<g>
			<path fill="#2C1901" d="M62.961,30.3l0.117-1.195l0.269,0.508l6.543,0.499l1.729-3.374l-5.964-3.749h-5.768
				c0,0-2.228-2.206-4.808-3.456l-6.131,0.598l2.157-4.775c-0.918-0.78-2.222-1.404-4.064-1.482
				c-5.303-0.223-6.166,4.934-6.166,4.934s-4.206,1.08-6.441,4.411l-5.91-0.042v1.125l2.334,1.687h-0.026v0.375v4.687l1.924,1.209
				v44.337h-0.158c0,0-1.379,0.188-2.149,2.249l0.383,0.241v0.134h0.105c-0.62,0.426-0.875,0.938-0.875,0.938v5.622h0.01
				l5.954,3.749h10.389l-3.849-3.749h21.74v-5.81c-0.241-0.315-0.606-0.56-0.991-0.75h0.03v-0.375h0.387
				c0,0-0.579-2.099-2.311-2.241V30.3H62.961z"/>
			<path fill="#2C1901" d="M53.192,18.844c0.633,0.146,1.269,0.392,1.887,0.69l2.227-0.217l-6.2-3.96v0
				C52.829,16.824,53.192,18.844,53.192,18.844z"/>
			<path fill="#2C1901" d="M55.079,19.534c-0.618-0.298-1.254-0.543-1.887-0.69c0,0-0.363-2.02-2.087-3.487l-2.157,4.775
				L55.079,19.534z"/>
		</g>
		<g>
			<rect x="32.949" y="31.612" fill="#585C5D" width="17.123" height="49.107"/>
			<polyline fill="#531B04" points="31,26 31,26.117 31,31.05 37,34.799 37,29.738 31.019,25.578 			"/>
			<polygon fill="#531B04" points="34,26.926 29,23.177 29,24.302 34,28.238 			"/>
			<path fill="#531B04" d="M32.757,76.597l5.964,3.748c0,0-1.723,0.877-1.822,2.624l-6.339-3.44l0.412-0.375l-0.522-0.308
				C30.45,78.846,31.081,76.691,32.757,76.597z"/>
			<g>
				<polygon fill="#A7A9AC" points="67.388,80.72 38.721,80.72 38.721,32.924 52.62,27.167 67.388,32.737 				"/>
				<rect x="60.269" y="30.112" fill="#898B8E" width="4.81" height="53.982"/>
				<rect x="40" y="28" fill="#C6CDC7" width="15" height="57"/>
				<path fill="#703715" d="M38.563,80.345c0,0-1.379,0.188-2.148,2.25h33.283c0,0-0.577-2.25-2.501-2.25H38.563z"/>
				<path fill="#904A25" d="M36.027,89.529v-5.623c0,0,0.74-1.499,2.792-1.499h28.665c0,0,2.019,0.313,2.788,1.312v5.811H36.027z"/>
				<path fill="#6E2405" d="M36.796,30.112v4.687h2.886c0,0,4.442-5.607,12.504-5.787c8.063-0.18,12.821,5.037,12.821,5.037h3.917
					l0.388-3.936L52.479,19.623l-10.148,7.169l-5.406,3.32"/>
				<path fill="#904A25" d="M34.488,26.926v1.125l2.854,2.062h4.267c0,0,2.32-4.169,7.191-5.118c0,0,0.055-4.188,3.436-4.299
					c3.381-0.111,3.838,3.964,3.838,3.964s6.135,1.238,7.855,5.454h5.961l1.729-1.667v-1.706H65.85c0,0-3.419-3.389-6.694-4.146
					c0,0-0.847-4.746-6.15-4.969c-5.303-0.224-6.167,4.933-6.167,4.933s-4.205,1.08-6.44,4.411L34.488,26.926z"/>
				<g>
					<path fill="#330200" d="M69.807,30H63.67l-0.098,0.009c-1.617-3.897-7.522-5.093-7.581-5.105l-0.244,0.008l-0.05-0.207
						c-0.009-0.038-0.838-3.792-3.634-3.649c-2.768,0.138-2.875,3.784-2.879,3.938l-0.006,0.31l-0.308,0.058
						c-4.612,0.833-6.902,4.644-6.925,4.685L41.837,30h-5.211l0,0h4.76c0.528-2,2.812-4.289,7.044-5.185
						c0.12-1.606,0.978-4.299,3.594-4.43c2.628-0.132,3.971,2.554,4.373,4.128C57.559,24.806,62.484,26,64.183,30H69.807L69.807,30z
						"/>
				</g>
				<g>
					<g>
						<rect x="37" y="82" fill="#330200" width="33" height="2"/>
					</g>
				</g>
				<g>
					<rect x="42.473" y="52.043" fill="#2C1901" width="21.548" height="25.491"/>
					<rect x="42" y="51" fill="#6E2405" width="21" height="26"/>
					<rect x="44.974" y="53.917" fill="#894200" width="15.583" height="21.179"/>
					<g>
						<g>
							<ellipse fill="#2C1901" cx="53.185" cy="69.061" rx="4.193" ry="4.085"/>
							<polygon fill="#2C1901" points="54,54.132 54,54.132 54,65 53.185,65 54,65 							"/>
							<path fill="#2C1901" d="M49,65.305v-2.908C49,62.269,49.1,63,48.967,63H49v-9h-1v9h0.099C47.967,63,48,62.269,48,62.396
								v2.908C48,65.434,47.967,66,48.099,66h0.869C49.1,66,49,65.434,49,65.305z"/>
							<path fill="#2C1901" d="M58.587,63H59v-9h-1v9h-0.282C57.586,63,58,62.269,58,62.396v2.908C58,65.434,57.586,66,57.718,66
								h0.869C58.719,66,60,65.434,60,65.305v-2.908C60,62.269,58.719,63,58.587,63z"/>
						</g>
					</g>
					<g>
						<ellipse fill="#CBCCCE" cx="52.607" cy="68.499" rx="4.193" ry="4.086"/>
						<g>
							<rect x="53" y="54" fill="#797A7D" width="1" height="10"/>
						</g>
						<g>
							<rect x="47" y="54" fill="#797A7D" width="1" height="9"/>
						</g>
						<path fill="#CBCCCE" d="M49,65.296C49,65.425,48.475,66,48.343,66h-0.578C47.633,66,47,65.425,47,65.296v-3.134
							C47,62.034,47.633,62,47.765,62h0.578C48.475,62,49,62.034,49,62.162V65.296z"/>
						<g>
							<rect x="58" y="54.201" fill="#797A7D" width="0" height="8.473"/>
						</g>
						<path fill="#CBCCCE" d="M59,65.296C59,65.425,58.503,66,58.372,66h-0.579C57.661,66,58,65.425,58,65.296v-3.134
							C58,62.034,57.661,62,57.793,62h0.579C58.503,62,59,62.034,59,62.162V65.296z"/>
						<path fill="#B3B5B8" d="M53.55,64.519l-0.943,3.98l4.142-0.646C56.748,67.853,56.512,65.18,53.55,64.519z"/>
						<path fill="#939598" d="M52.766,68.475l2.579-3.087c0,0,0.757,0.755,0.924,1.12L52.766,68.475z"/>
						<path fill="#B3B5B8" d="M54.266,72.208l-1.545-3.797l-3.032,2.822C49.689,71.233,51.44,73.302,54.266,72.208z"/>
						<path fill="#939598" d="M52.605,68.519l-0.324,3.968c0,0-1.063-0.202-1.415-0.411L52.605,68.519z"/>
						<path fill="#939598" d="M52.766,68.475l-3.98-1.682c0,0,0.566-0.899,0.891-1.148L52.766,68.475z"/>
						<rect x="48" y="62" fill="#939598" width="1" height="3"/>
						<rect x="58" y="62" fill="#939598" width="1" height="3"/>
					</g>
					<path fill="#975913" d="M42.088,37.047v12.746h21.74V37.422c0,0-2.309-5.733-11.255-6.137
						C43.626,30.881,42.088,37.047,42.088,37.047z"/>
					<path fill="#2C1901" d="M42.281,37.047v12.746h21.74V37.047c0,0-3.174-5.762-11.255-5.762
						C45.618,31.286,42.281,37.047,42.281,37.047z"/>
					<path fill="#6E2405" d="M42,36.672V49h21V36.672c0,0-3.189-5.762-11.27-5.762C44.583,30.91,42,36.672,42,36.672z"/>
					<g>
						<g>
							<ellipse fill="#2C1901" cx="53.301" cy="41.831" rx="5.659" ry="5.514"/>
						</g>
					</g>
					<path fill="#894200" d="M44.974,47.919h15.583v-8.997c0,0-2.255-5.061-8.224-4.811c-5.97,0.25-7.359,4.811-7.359,4.811V47.919z
						"/>
					<g>
						<g>
							<ellipse fill="#E2DFCD" cx="52.723" cy="41.457" rx="5.659" ry="5.513"/>
						</g>
						<path fill="#5B3022" d="M56.972,38.299c0.078-0.071-0.153-0.19-0.226-0.265c-0.074-0.076-0.315-0.079-0.394-0.008
							l-3.398,3.223C52.916,41.285,53,41.333,53,41.386v3.382c0-0.332-0.816-0.338-0.857-0.34c-0.105,0.002-0.269,0.084-0.27,0.185
							c-0.002,0.102,0.187,0.186,0.29,0.19c0.004,0-0.163,0.021,0.837,0.593c0,0.003,0,0.005,0,0.007
							c0,0.003-0.142,0.007-0.138,0.011c0.014,0.016-0.044,0.301-0.026,0.31C52.838,45.726,52.766,46,52.768,46
							c0.001,0,0.001,0,0.002,0c0.011,0,0.021-0.261,0.033-0.257c0.004,0,0.008-0.134,0.012-0.132
							c0.013,0.004,0.096-0.063,0.109-0.063c0.002,0,0.076-0.113,0.076-0.113v0.104V46l0,0c0,0-0.103,0-0.086,0c0,0,0.002,0,0.003,0
							c0.003,0,0.006-0.267,0.009-0.268c0.015-0.005,0.027-0.143,0.039-0.15c0.006-0.004,0.011-0.073,0.017-0.077
							c0.009-0.008,0.018-0.047,0.025-0.058c0.005-0.005,0.01-0.028,0.014-0.033c0.003-0.004,0.007-0.014,0.009-0.019
							c0.353-0.602,0.683-0.64,0.699-0.641c0.104-0.001,0.188-0.084,0.19-0.186c0.003-0.104,0.394-0.19,0.285-0.193
							C54.167,44.376,54,44.382,54,44.725v-3.259L56.972,38.299z"/>
						<g>
							<g>
								<path fill="#917C4D" d="M52.67,45.482c-0.064,0-0.126-0.031-0.162-0.085c-0.382-0.573-0.72-0.593-0.723-0.593
									c-0.104-0.005-0.188-0.089-0.188-0.19c0.001-0.101,0.344-0.183,0.447-0.185C52.086,44.43,52,44.436,53,44.768v-3.382
									c0-0.052-0.24-0.101-0.201-0.137l3.376-3.223c0.077-0.071,0.135-0.068,0.207,0.008c0.073,0.075,0.605,0.194,0.527,0.265
									L54,41.466v3.828c0,0.083-0.625,0.157-0.707,0.18C53.274,45.48,52.688,45.482,52.67,45.482z"/>
							</g>
						</g>
						<g>
							<path fill="#917C4D" d="M52.67,45.482c-0.033,0-0.064-0.007-0.096-0.024c-0.093-0.051-0.124-0.166-0.072-0.255
								c0.476-0.815,0.985-0.828,1.037-0.827c0.106,0.003,0.19,0.088,0.188,0.192c-0.002,0.102-0.087,0.183-0.19,0.183
								c-0.018,0.002-0.348,0.034-0.699,0.637C52.801,45.448,52.735,45.482,52.67,45.482z"/>
						</g>
						<g>
							<g>
								<ellipse fill="#B79B63" cx="52.723" cy="41.202" rx="0.51" ry="0.498"/>
							</g>
						</g>
						<g>
							<g>
								<ellipse fill="#B79B63" cx="47.668" cy="41.253" rx="0.276" ry="0.289"/>
							</g>
						</g>
						<g>
							<g>
								<ellipse fill="#B79B63" cx="57.864" cy="41.253" rx="0.276" ry="0.289"/>
							</g>
						</g>
						<g>
							<g>
								<ellipse fill="#B79B63" cx="52.626" cy="46.357" rx="0.297" ry="0.269"/>
							</g>
						</g>
						<g>
							<g>
								<ellipse fill="#B79B63" cx="52.626" cy="36.61" rx="0.297" ry="0.269"/>
							</g>
						</g>
						<circle fill="#E0C08A" cx="47.607" cy="41.232" r="0.159"/>
						<circle fill="#E0C08A" cx="57.804" cy="41.232" r="0.159"/>
						<circle fill="#E0C08A" cx="52.61" cy="46.293" r="0.16"/>
						<circle fill="#E0C08A" cx="52.61" cy="36.546" r="0.16"/>
						<ellipse fill="#E0C08A" cx="52.527" cy="41.151" rx="0.268" ry="0.261"/>
					</g>
					<path opacity="0.25" fill="#FFFFFF" d="M45,47.919c0,0,3.784-9.824,15.305-8.997c0,0-1.954-4.716-7.727-4.686
						C46.807,34.266,45,38.301,45,38.922V47.919z"/>
					<path opacity="0.25" fill="#FFFFFF" d="M45,69.193c0,0,3.76-6.193,15.229-15.193H45V69.193z"/>
				</g>
				<path fill="#8B5037" d="M40.837,30.675h1.155c0,0,3.063-4.735,7.297-5.067c0,0,0.406-4.487,2.924-4.216
					c0,0,2.477-0.151,2.477,4.246v3.163c0,0-2.217-0.181-4.781,0.09c-2.567,0.271-6.646,1.987-8.996,4.307L40.837,30.675z"/>
				<path fill="#531B04" d="M60,30.516c0,0,2,0.819,5,3.086V31h-1.461c0,0-1.539-2.974-3.539-3.833V30.516z"/>
			</g>
		</g>
	</g>
</g>
</svg>
