<?xml version="1.0" encoding="utf-8"?>
<!-- Generator: Adobe Illustrator 15.1.0, SVG Export Plug-In . SVG Version: 6.00 Build 0)  -->
<!DOCTYPE svg PUBLIC "-//W3C//DTD SVG 1.1//EN" "http://www.w3.org/Graphics/SVG/1.1/DTD/svg11.dtd">
<svg version="1.1" id="Layer_1" xmlns="http://www.w3.org/2000/svg" xmlns:xlink="http://www.w3.org/1999/xlink" x="0px" y="0px"
	 width="100px" height="100px" viewBox="0 0 100 100" enable-background="new 0 0 100 100" xml:space="preserve">
<g>
	<g>
		<path fill="#BCBCBC" d="M64.996,28.303c0,0-22.064,1.222-29.899-0.288c-7.834-1.509-11.128,2.834-11.128,2.834L27.334,37
			c0,0,2.964,0.33,6.32,0.735c15.459-10.128,32.975-0.075,32.975-0.075c0.603,0.69,1.059,1.617,1.398,2.699
			c6.584-3.313,8.07-9.509,8.07-9.509C72.178,25.49,64.996,28.303,64.996,28.303z"/>
		<path d="M67.834,40.815l-0.112-0.36c-0.335-1.069-0.772-1.924-1.298-2.543c-0.658-0.363-8.13-4.378-17.277-4.378
			c-5.638,0-10.791,1.504-15.316,4.469l-0.098,0.064l-0.116-0.014c-3.317-0.401-6.288-0.731-6.317-0.735L27.134,37.3l-3.546-6.479
			l0.125-0.165c0.102-0.134,2.553-3.279,8.199-3.279c1.036,0,2.128,0.109,3.245,0.325c2.579,0.497,6.991,0.749,13.116,0.749
			c7.859,0,15.948-0.426,16.655-0.464c0.323-0.12,2.103-0.741,4.315-0.741c3.019,0,5.479,1.181,7.112,3.416l0.087,0.12l-0.034,0.144
			c-0.062,0.259-1.598,6.38-8.238,9.721L67.834,40.815z M49.146,32.894c9.709,0,17.563,4.444,17.642,4.489l0.046,0.026l0.036,0.041
			c0.538,0.617,0.989,1.441,1.343,2.453c5.559-2.959,7.268-8.074,7.535-8.987c-1.527-2.01-3.715-3.029-6.504-3.029
			c-2.271,0-4.113,0.708-4.131,0.715l-0.049,0.019l-0.051,0.003c-0.084,0.005-8.537,0.467-16.74,0.467
			c-6.166,0-10.619-0.255-13.237-0.76c-1.077-0.208-2.128-0.313-3.124-0.313c-4.628,0-6.996,2.256-7.557,2.873l3.18,5.81
			c0.662,0.074,3.215,0.362,6.042,0.703C38.186,34.411,43.423,32.894,49.146,32.894z"/>
	</g>
	<g>
		<path fill="#BCBCBC" d="M66.733,67.402c-1.106,0.021-4.686,0.083-9.142,0.157c-2.195,0.714-4.835,1.238-7.994,1.398
			c-3.787,0.191-6.822-0.304-9.229-1.113c-4.668,0.077-8.063,0.132-8.063,0.132s-2.875,2.875,0.862,5.822s27.384,8.387,35.218-2.897
			C68.387,70.901,70.398,67.33,66.733,67.402z"/>
		<path d="M51.116,78.203C51.115,78.203,51.115,78.203,51.116,78.203c-8.102,0-16.028-2.405-18.146-4.074
			c-1.279-1.01-1.964-2.168-2.035-3.365c-0.1-1.709,1.094-2.943,1.145-2.993l0.092-0.102l8.246-0.141l0.053,0.016
			c2.666,0.897,5.742,1.266,9.111,1.095c2.875-0.145,5.537-0.73,7.91-1.504L57.538,67h0.048c4.456,0,8.035-0.016,9.141-0.037
			c1.153-0.023,1.912,0.351,2.288,0.992c0.687,1.177-0.307,2.998-0.349,3.074l-0.017,0.117
			C64.654,76.902,56.91,78.203,51.116,78.203z M32.451,68.295c-0.245,0.287-0.947,1.219-0.875,2.398
			c0.062,1.006,0.664,1.965,1.791,2.854c1.996,1.574,9.902,3.861,17.748,3.861c5.637,0,13.158-1.159,17-6.676
			c0.242-0.44,0.759-1.55,0.346-2.256C68.221,68.068,67.676,68,66.842,68H66.74c-1.104,0-4.661-0.057-9.096,0.018
			c-2.416,0.781-5.117,1.182-8.03,1.329c-3.427,0.175-6.565-0.235-9.296-1.146L32.451,68.295z"/>
	</g>
	<g>
		<path fill="#BCBCBC" d="M66.665,64.586c-0.542,0.012-1.673,0.031-3.209,0.058c-2.729,1.974-7.112,3.973-13.858,4.314
			c-7.254,0.367-11.747-1.782-14.351-3.847c-1.868,0.031-3.009,0.05-3.009,0.05s-2.875,2.875,0.862,5.821
			c3.737,2.947,27.384,8.388,35.218-2.896C68.318,68.086,70.33,64.515,66.665,64.586z"/>
		<path d="M51.048,75.458C51.047,75.458,51.047,75.458,51.048,75.458c-8.103,0-16.028-2.441-18.146-4.11
			c-1.279-1.009-1.965-2.184-2.035-3.383c-0.1-1.709,1.094-2.951,1.145-3.002l0.092-0.105l3.253-0.061l0.09,0.068
			c2.198,1.741,6.159,3.815,12.546,3.815c0.52,0,1.055-0.015,1.59-0.042c5.568-0.282,10.173-1.875,13.687-4.416L63.35,64h0.102
			c1.535,0,2.666,0.115,3.207,0.104c1.154-0.023,1.912,0.373,2.287,1.015c0.688,1.177-0.306,3.01-0.348,3.085l-0.017,0.157
			C64.586,74.116,56.841,75.458,51.048,75.458z M32.383,65.479c-0.246,0.286-0.947,1.218-0.875,2.397
			c0.061,1.006,0.664,1.941,1.791,2.83c1.996,1.573,9.902,3.836,17.748,3.836c0,0,0,0,0.001,0c5.636,0,13.157-1.135,16.998-6.651
			c0.243-0.439,0.76-1.676,0.347-2.382c-0.24-0.408-0.785-0.61-1.619-0.61l-0.103,0.004c-0.529,0.011-1.624,0.031-3.108,0.058
			c-3.605,2.577-8.297,4.03-13.948,4.316c-0.546,0.027-1.092,0.042-1.622,0.042c-6.485,0-10.559-2.096-12.854-3.886L32.383,65.479z"
			/>
	</g>
	<g>
		<path fill="#636363" d="M54.678,60.861c0,0-1.24-2.356-4.34-0.992c0,0-0.992,0.682-0.496,1.799
			c0.496,1.115,3.473,1.488,5.209,0.496c0,0,9.232-0.627,11.963-2.756c0.117-0.092,0.223-0.186,0.314-0.283
			c2.232-2.356,0.372-2.853,0.372-2.853S62.119,61.481,54.678,60.861z"/>
	</g>
	<g>
		<path d="M29.137,31.079l-0.447-0.458c0.02-0.018,1.916-1.828,4.318-0.665l-0.279,0.576C30.727,29.563,29.152,31.064,29.137,31.079
			z"/>
	</g>
	<g>
		<path d="M71.469,30.904l-0.632-0.108l0.315,0.054l-0.317-0.04c0.001-0.01,0.003-0.099-0.111-0.198
			c-0.198-0.173-0.923-0.525-3.367-0.054l-0.122-0.629c2.057-0.397,3.388-0.315,3.957,0.243
			C71.526,30.5,71.475,30.864,71.469,30.904z"/>
	</g>
	<g>
		<path fill="#FFFFFF" d="M48.795,24.25c-21.208,1.178-21.27,15.626-20.464,29.33c0.806,13.705,13.165,18.4,20.029,18.17
			c19.994-0.673,21.021-8.496,23.253-20.216S70.002,23.072,48.795,24.25z M67.81,59.558c0,0-3.855,7.789-17.797,8.495
			c-13.472,0.682-17.425-7.317-17.425-7.317s-1.364-4.278-1.303-11.224c0.063-6.945,2.109-11.41,2.109-11.41
			c15.521-10.417,33.236-0.248,33.236-0.248C70.91,42.753,67.81,59.558,67.81,59.558z"/>
		<path d="M48.375,72.398C48.375,72.398,48.375,72.398,48.375,72.398c-7.377-0.001-19.379-5.1-20.184-18.78
			c-0.535-9.112-0.587-17.773,4.6-23.589c3.475-3.896,8.861-5.996,16.468-6.418c0.716-0.04,1.427-0.06,2.114-0.06
			c7.523,0,13.276,2.342,17.1,6.962c4.223,5.104,5.82,13.008,4.271,21.142l-0.149,0.783c-1.068,5.641-1.992,10.514-5.18,14.012
			c-3.456,3.794-9.172,5.625-18.532,5.94C48.715,72.395,48.547,72.398,48.375,72.398z M51.373,24.832
			c-0.664,0-1.352,0.02-2.043,0.058c-7.249,0.403-12.346,2.363-15.582,5.993c-4.861,5.449-4.762,13.827-4.277,22.661
			c0.771,14.078,11.994,17.573,18.903,17.574c0.16,0.003,0.312-0.003,0.465-0.008c8.987-0.303,14.424-2.006,17.628-5.522
			c2.943-3.231,3.793-7.714,4.869-13.39l0.148-0.783c1.479-7.763-0.016-15.271-4-20.084C63.918,27.018,58.496,24.832,51.373,24.832z
			 M48.908,68.734c-12.439,0-16.238-7.4-16.395-7.715l-0.036-0.089c-0.057-0.179-1.395-4.457-1.332-11.425
			c0.063-7.001,2.081-11.483,2.167-11.67l0.074-0.165l0.15-0.101c4.75-3.187,10.17-4.803,16.111-4.803
			c9.795,0,17.479,4.347,17.802,4.532l0.093,0.053l0.07,0.081c4.432,5.074,1.455,21.542,1.326,22.241l-0.017,0.088l-0.04,0.08
			c-0.164,0.332-4.184,8.134-18.338,8.851C49.994,68.721,49.443,68.734,48.908,68.734z M33.684,60.491
			c0.146,0.27,1.076,1.876,3.193,3.459c2.137,1.599,5.957,3.503,12.031,3.503c0.514,0,1.042-0.014,1.572-0.041
			c12.643-0.64,16.78-7.299,17.217-8.068c0.24-1.366,2.783-16.458-0.979-20.985c-0.902-0.493-8.193-4.31-17.07-4.31
			c-5.617,0-10.743,1.507-15.24,4.481c-0.351,0.849-1.928,4.996-1.981,10.988C32.369,55.867,33.535,59.994,33.684,60.491z"/>
	</g>
	<g>
		<path fill="#900EC6" d="M40.398,32.814c0,0,0.412-6.49,3.502-7.623c3.091-1.133,9.282-0.868,13.494,0.025
			c0,0,5.234,8.745,2.107,8.298C57.054,33.165,40.398,32.814,40.398,32.814z"/>
	</g>
	<path d="M68.465,37.494l-0.067-0.261c-0.467-1.866-8.97-6.257-19.1-6.257c-10.412,0-16.575,4.983-16.636,5.034l-0.029,0.028
		c-4.986,5.301-2.836,19.401-1.689,23.923c1.139,4.494,6.426,9.41,17.85,9.729c0.394,0.011,0.787,0.017,1.17,0.017l0,0
		c9.844,0,16.152-3.619,19.287-11.064C71.111,54.223,70.832,46.711,68.465,37.494z M67.333,59.35
		c-0.312,0.576-4.401,7.617-17.507,8.281c-0.535,0.027-1.07,0.041-1.589,0.041c-11.511,0-15.298-6.74-15.521-7.16
		c-0.109-0.359-1.338-4.563-1.279-11.099c0.056-6.287,1.774-10.567,2.044-11.199c4.57-3.045,9.783-4.589,15.498-4.589
		c9.148,0,16.621,4.016,17.277,4.379C70.223,42.657,67.508,58.365,67.333,59.35z"/>
	<g>
		<path fill="#FFFFFF" d="M25.375,44.455l2.744,0.064c0,0-0.639,5.106,0,7.468l-2.906,0.045
			C25.213,52.031,23.46,47.199,25.375,44.455z"/>
		<path d="M24.99,52.355l-0.078-0.215c-0.074-0.204-1.787-5.021,0.199-7.869l0.1-0.141l3.271,0.076l-0.044,0.352
			c-0.006,0.051-0.623,5.071-0.009,7.344l0.107,0.398L24.99,52.355z M25.544,44.779c-1.438,2.274-0.396,6-0.101,6.928l2.275-0.035
			c-0.42-2.135-0.082-5.705,0.042-6.841L25.544,44.779z"/>
	</g>
	<g>
		<ellipse fill="#9E9E9E" cx="28.375" cy="48.285" rx="0.766" ry="3.766"/>
		<path d="M28.375,52.371c-1.034,0-1.086-3.404-1.086-4.086c0-0.683,0.052-4.087,1.086-4.087c1.033,0,1.086,3.404,1.086,4.087
			C29.461,48.967,29.408,52.371,28.375,52.371z M28.375,44.927c-0.184,0.362-0.445,1.511-0.445,3.358
			c0,1.847,0.262,2.995,0.445,3.357c0.184-0.362,0.445-1.511,0.445-3.357C28.82,46.438,28.559,45.289,28.375,44.927z"/>
	</g>
	<g>
		<path fill="#FFFFFF" d="M74.966,44.317l-2.745,0.064c0,0,0.639,5.106,0,7.468l2.906,0.044
			C75.127,51.894,76.881,47.062,74.966,44.317z"/>
		<path d="M75.351,52.218l-3.546-0.054l0.107-0.398c0.614-2.274-0.003-7.294-0.009-7.345l-0.044-0.352l3.271-0.076l0.099,0.141
			c1.986,2.848,0.273,7.665,0.199,7.869L75.351,52.218z M72.622,51.535l2.275,0.035c0.295-0.93,1.337-4.654-0.101-6.929
			l-2.217,0.052C72.704,45.83,73.041,49.399,72.622,51.535z"/>
	</g>
	<g>
		<ellipse fill="#9E9E9E" cx="71.966" cy="48.146" rx="0.767" ry="3.767"/>
		<path d="M71.966,52.233c-1.034,0-1.087-3.404-1.087-4.087c0-0.682,0.053-4.085,1.087-4.085s1.086,3.404,1.086,4.085
			C73.052,48.829,73,52.233,71.966,52.233z M71.966,44.79c-0.185,0.362-0.446,1.51-0.446,3.357c0,1.848,0.262,2.996,0.446,3.358
			c0.185-0.362,0.446-1.511,0.446-3.358C72.412,46.3,72.15,45.151,71.966,44.79z"/>
	</g>
	<g opacity="0.3">
		<path fill="#FFFFFF" d="M34.084,38.401c0,0-3.287,6.325-1.488,15.316c0,0,27.408,4.775,35.283-1.488c0,0,1.364-11.658-1.86-13.456
			C62.794,36.975,50.33,30.339,34.084,38.401z"/>
	</g>
	<g>
		<g>
			<rect x="70" y="31" fill="#FFFFFF" width="6" height="12"/>
			<path d="M76,44h-6V31h6V44z M71,43h5V31h-5V43z"/>
		</g>
		<g>
			<circle cx="73.289" cy="34.397" r="1.697"/>
		</g>
		<g>
			<circle cx="73.369" cy="40.095" r="1.698"/>
		</g>
	</g>
	<g>
		<g>
			<rect x="24" y="31" fill="#FFFFFF" width="5" height="11"/>
			<path d="M29,42h-5V31h5V42z M24,41h5V31h-5V41z"/>
		</g>
		<g>
			<circle cx="26.27" cy="33.642" r="1.473"/>
		</g>
		<g>
			<circle cx="26.339" cy="38.587" r="1.474"/>
		</g>
	</g>
</g>
</svg>
