<?xml version="1.0" encoding="utf-8"?>
<!-- Generator: Adobe Illustrator 15.1.0, SVG Export Plug-In . SVG Version: 6.00 Build 0)  -->
<!DOCTYPE svg PUBLIC "-//W3C//DTD SVG 1.1//EN" "http://www.w3.org/Graphics/SVG/1.1/DTD/svg11.dtd">
<svg version="1.1" id="Layer_1" xmlns="http://www.w3.org/2000/svg" xmlns:xlink="http://www.w3.org/1999/xlink" x="0px" y="0px"
	 width="100px" height="100px" viewBox="0 0 100 100" enable-background="new 0 0 100 100" xml:space="preserve">
<g>
	<circle opacity="0.8" fill="#000014" cx="51.228" cy="52.801" r="39.024"/>
	<g>
		<g id="Earth_1_">
			<g id="EarthOcean_1_">
				<path fill="#16C1E1" d="M51.135,17.624c19.311,0,34.964,15.653,34.964,34.962c0,19.311-15.653,34.965-34.964,34.965
					c-19.31,0-34.963-15.654-34.963-34.965c0-1.68,0.119-3.333,0.348-4.951C18.924,30.669,33.506,17.624,51.135,17.624z"/>
				<path fill="#11A0C1" d="M85.599,48.645c-1.698-17.727-16.628-31.59-34.8-31.59c-16.909,0-31.008,12.006-34.254,27.958
					c5.425-3.982,17.954-11.677,27.691-6.19C54.596,44.661,74.581,49.281,85.599,48.645z"/>
				<path fill="#008EB2" d="M26.434,26.949c0,0,19.979-8.926,29.943-1.158c9.965,7.768,22.781,5.638,22.781,5.638
					s-9.409-13.535-25.808-14.279C36.953,16.405,26.434,26.949,26.434,26.949z"/>
				<path fill="#008EB2" d="M27.947,78.49c0,0,33.896,10.25,52.542-7.25c0,0-7.285,14.129-23.708,15.783S30.367,80.848,27.947,78.49
					z"/>
			</g>
			<g id="Continents_1_">
				<g>
					<path fill="#94A43D" d="M67.854,65.131c-0.06-0.999,0.207-1.67,0.803-2.01c0-0.402,0-0.807,0-1.208
						c-1.582-0.642-0.139,1.737-1.206,1.609C67.484,64.158,67.257,65.056,67.854,65.131z"/>
					<path fill="#006839" d="M68.244,65.547l-0.437-0.055c-0.784-0.099-0.749-0.939-0.726-1.495
						c0.006-0.157,0.014-0.313,0.006-0.454l-0.022-0.434l0.446,0.053c0.021-0.104,0.006-0.328-0.005-0.471
						c-0.028-0.383-0.054-0.778,0.192-1.043c0.088-0.096,0.25-0.209,0.511-0.209c0.166,0,0.356,0.045,0.584,0.138l0.226,0.093v1.662
						l-0.182,0.105c-0.471,0.269-0.674,0.816-0.621,1.672L68.244,65.547z M68.229,62.167c-0.021,0.103-0.006,0.33,0.004,0.474
						c0.008,0.105,0.014,0.211,0.018,0.314c0.014-0.01,0.029-0.021,0.043-0.033v-0.746C68.267,62.172,68.244,62.17,68.229,62.167z"
						/>
				</g>
				<g>
					<path fill="#2EA249" d="M73.754,26.694c-1.973,0.668-0.457,2.397-2.413,2.814c-0.665-0.006-0.226-1.115-0.806-1.205
						c-0.05,0.887-1.705,0.17-2.411,0.402c-1.843,0.57-4.037,0.789-5.632,1.608c-0.133,0-0.267,0-0.4,0
						c-1.023-0.185-0.676-1.739-1.609-2.01c-3.537-0.723-3.9,1.729-6.031,2.412c0-0.134,0-0.268,0-0.402
						c-1.293,0.132-0.887,2.209,0,2.413c0.402,0,0.804,0,1.206,0c0.147-0.685-0.313-0.759-0.804-0.805
						c1.154-1.803,1.078,1.838,2.01,0.402c-0.231-1.975,0.521-2.964,2.011-3.216c0.325,1.589-0.036,2.376,1.608,2.413
						c-0.635,0.974-1.439,1.777-2.413,2.413c-2.052,0.951-2.353-0.932-4.021,0.403c0-0.135,0-0.269,0-0.403
						c-0.357,0.312-0.907,0.432-1.608,0.403c-0.385-0.823-0.82-1.593-1.207-2.414c-0.134,0-0.268,0-0.401,0
						c-0.213,0.324-0.419,0.652-0.401,1.208c0.872-0.069,0.182,1.424,0.401,2.01c0.474,0.062,1.143-0.07,1.207,0.402
						c-0.487-0.124-1.388,1.162-0.401,1.207c0.467,0.066,0.437,0.636,0.401,1.206c-0.972,0.636-3.151,0.066-2.815,2.01
						c0.515,0.021,0.557,0.516,1.207,0.402c0.572-0.096,0.678-0.662,1.207-0.802c0.314-2.789,6.434-2.727,6.835-0.403
						c0.759,0.09,0.888-0.454,1.607-0.401c0.497-3.438,5.3-3.054,5.631,0.401c-1.206,0-2.413,0-3.619,0
						c-0.506,0.164-0.821,0.519-0.804,1.206c-0.067,1.14,2.479-0.334,2.412,0.804c0,0.671,0,1.341,0,2.011
						c-0.666-0.673-2.359-0.319-3.618-0.402c-0.167-0.893-2.206-0.387-2.011,0.402c-0.766-0.172-1.01-0.866-2.01-0.805
						c-0.686-0.385-0.881-1.263-1.207-2.011c-1.295-0.088-1.701,0.711-3.217,0.401c-0.076,0.327-0.402,0.402-0.4,0.805
						c-2.281-0.404-1.841,1.915-3.217,2.413c-1.008-0.069-1.26,0.617-1.611,1.205c0,0.269,0,0.536,0,0.805
						c-0.416,3.618,0.136,4.943,1.611,7.239c2.552-0.519,5.465-1.381,7.237,0.402c0,0.805,0,1.608,0,2.412
						c1.029,0.043,1.918,0.229,2.413,0.805c-1.979,0.875-0.465,4.104-1.206,6.836c0.487,0.718,0.073,2.339,0.804,2.814
						c0.975,0.232,0.894,1.52,1.206,2.412c0.268,0,0.536,0,0.804,0c1.467,0.262,2.143-0.27,2.814-0.805
						c-0.113-0.648,0.381-0.691,0.402-1.205c-0.422-1.764,1.359-1.32,1.207-2.815c0.09-0.313,2.756-8.187,1.244-6.835
						c0.438-2.645,3.684-2.848,3.982-5.629c0.074-0.342-0.157-0.38-0.401-0.402c-2.495,0.217-2.578-1.98-3.619-3.217
						c-0.056-0.75-0.265-1.345-0.805-1.608c-0.05-0.169-0.05-0.388-0.101-0.553l2.111,1.759c1.033,0.041,0.646,1.499,1.206,2.009
						c0.401,0,0.806,0,1.207,0c0.938-0.135,1.733-0.411,2.01-1.205c0.124-0.948,1.396-0.748,1.205-2.011
						c-0.513-0.023-0.557-0.516-1.205-0.402c-0.269,0-0.536,0-0.804,0c-1-0.608-1.839-1.378-2.012-2.814
						c1.424-0.217,2.072,0.339,2.414,1.205c0.933-0.128,1.544,0.064,2.01,0.403c3.049-0.236,4.63,1,5.227,3.216
						c-0.01,1.352,0.555,2.127,1.207,2.814c1.248,1.634,0.498-1.288,0.805-2.01c0.491-1.159,2.68-1.79,4.021-2.815
						c0.685-0.524,0.733-2.017,1.206-1.206c0.27,0,0.537,0,0.806,0C82.766,37.519,79.643,30.725,73.754,26.694
						C71.781,27.362,79.643,30.725,73.754,26.694z M63.445,63.477c0,0.009-0.002,0.018-0.002,0.027
						C63.443,63.494,63.445,63.486,63.445,63.477z M63.533,63.876c0.006,0.009,0.012,0.016,0.018,0.024
						C63.545,63.892,63.539,63.885,63.533,63.876z M63.453,63.672c0.003,0.01,0.005,0.021,0.008,0.031
						C63.458,63.692,63.456,63.682,63.453,63.672z M63.49,63.311c0.002-0.004,0.004-0.009,0.007-0.014
						C63.493,63.302,63.491,63.307,63.49,63.311z M63.586,63.139c0.004-0.006,0.007-0.012,0.012-0.018
						C63.593,63.127,63.59,63.133,63.586,63.139z M63.727,62.965c0.008-0.01,0.018-0.02,0.025-0.027
						C63.744,62.945,63.734,62.955,63.727,62.965z M63.909,62.789c0.01-0.01,0.021-0.02,0.033-0.028
						C63.931,62.77,63.92,62.779,63.909,62.789z M64.346,62.447c0.006-0.004,0.01-0.008,0.016-0.012
						C64.355,62.439,64.35,62.443,64.346,62.447z M64.123,62.611c0.008-0.007,0.018-0.012,0.027-0.02
						C64.141,62.6,64.131,62.604,64.123,62.611z M64.946,58.32c0.009,0.201,0.038,0.416,0.084,0.636
						C64.984,58.736,64.954,58.521,64.946,58.32z M65.126,59.344c0.027,0.107,0.058,0.213,0.089,0.314
						C65.184,59.557,65.153,59.451,65.126,59.344z M65.042,59.003c0.021,0.097,0.044,0.194,0.069,0.292
						C65.086,59.197,65.063,59.102,65.042,59.003z M64.947,58.248c-0.001-0.074,0.002-0.145,0.008-0.214
						C64.949,58.104,64.946,58.174,64.947,58.248z M64.968,57.942c0.009-0.06,0.021-0.117,0.037-0.173
						C64.989,57.824,64.977,57.883,64.968,57.942z"/>
					<path fill="#006839" d="M60,69.35c-0.236,0-0.489-0.023-0.754-0.068h-1.031l-0.086-0.244c-0.092-0.266-0.151-0.555-0.209-0.832
						c-0.158-0.766-0.285-1.24-0.737-1.346l-0.062-0.016l-0.053-0.035c-0.559-0.363-0.619-1.121-0.675-1.789
						c-0.035-0.438-0.071-0.888-0.232-1.125l-0.093-0.141l0.043-0.16c0.279-1.033,0.22-2.137,0.162-3.205
						c-0.077-1.453-0.15-2.836,0.772-3.582c-0.396-0.232-0.983-0.359-1.806-0.395l-0.35-0.015v-2.608
						c-0.641-0.587-1.473-0.863-2.605-0.863c-1.08,0-2.27,0.256-3.42,0.501c-0.262,0.056-0.52,0.112-0.776,0.163l-0.243,0.051
						l-0.135-0.211c-1.486-2.314-2.096-3.721-1.666-7.456v-0.883l0.051-0.085c0.039-0.065,0.076-0.132,0.113-0.197
						c0.307-0.543,0.684-1.215,1.748-1.191c0.377-0.167,0.578-0.548,0.811-0.986c0.366-0.692,0.842-1.563,2.188-1.462
						c0.062-0.133,0.146-0.231,0.21-0.308c0.068-0.081,0.104-0.125,0.115-0.177l0.082-0.345l0.346,0.072
						c0.211,0.043,0.404,0.065,0.591,0.065c0.413,0,0.728-0.107,1.06-0.222c0.406-0.138,0.873-0.296,1.519-0.251l0.22,0.015
						l0.09,0.203c0.069,0.161,0.133,0.329,0.198,0.496c0.204,0.53,0.397,1.033,0.771,1.292c0.64-0.014,1.023,0.256,1.356,0.489
						c0.098,0.068,0.188,0.13,0.282,0.186c0.024-0.047,0.054-0.091,0.088-0.136c0.28-0.355,0.87-0.604,1.435-0.604
						c0.47,0,0.834,0.179,1.014,0.483c0.299,0.007,0.618-0.003,0.938-0.014c0.254-0.01,0.509-0.017,0.755-0.017
						c0.438,0,0.906,0.024,1.312,0.159V41.17c0.002-0.05,0-0.071-0.002-0.08c-0.015,0.002-0.064-0.019-0.207-0.019
						c-0.166,0-0.379,0.028-0.585,0.057c-0.229,0.03-0.467,0.062-0.684,0.062c-0.124,0-0.502,0-0.741-0.255
						c-0.099-0.103-0.211-0.289-0.193-0.592c-0.021-0.758,0.344-1.298,1.054-1.53l0.114-0.019h3.193
						c-0.313-1.416-1.5-2.065-2.551-2.065c-0.919,0-2.072,0.545-2.295,2.081l-0.049,0.334l-0.336-0.023
						c-0.242-0.019-0.377,0.057-0.568,0.161c-0.24,0.13-0.543,0.3-1.058,0.24l-0.269-0.033l-0.046-0.268
						c-0.161-0.929-1.597-1.416-2.931-1.416c-1.436,0-3.047,0.561-3.188,1.797l-0.027,0.246l-0.238,0.065
						c-0.145,0.038-0.243,0.136-0.393,0.291c-0.189,0.201-0.428,0.45-0.849,0.52c-0.518,0.092-0.796-0.117-0.988-0.26
						c-0.125-0.091-0.186-0.133-0.294-0.138l-0.293-0.011l-0.05-0.291c-0.29-1.67,1.034-1.907,1.909-2.064
						c0.326-0.059,0.662-0.12,0.913-0.23c0.013-0.291,0.009-0.607-0.103-0.623c-0.559-0.024-0.76-0.406-0.754-0.726
						c0.008-0.279,0.174-0.609,0.414-0.855c-0.02,0-0.036,0-0.053-0.001c-0.141-0.004-0.281-0.009-0.408-0.026l-0.215-0.029
						l-0.076-0.203c-0.115-0.3-0.065-0.689-0.018-1.067c0.027-0.22,0.078-0.631,0.02-0.727l-0.381,0.029l-0.047-0.363
						c-0.022-0.685,0.259-1.108,0.462-1.417l0.107-0.164h0.829l0.099,0.21c0.19,0.403,0.397,0.804,0.597,1.19
						c0.172,0.33,0.346,0.669,0.513,1.017c0.519-0.003,0.901-0.111,1.138-0.318l0.604-0.525v0.535
						c0.268-0.131,0.527-0.193,0.792-0.193c0.331,0,0.613,0.097,0.888,0.191c0.273,0.095,0.531,0.184,0.848,0.184
						c0.293,0,0.604-0.077,0.953-0.236c0.748-0.491,1.396-1.094,1.934-1.798c-0.982-0.215-1.067-0.901-1.172-1.734
						c-0.02-0.165-0.042-0.345-0.072-0.537c-0.779,0.219-1.584,0.814-1.359,2.738l0.017,0.129l-0.071,0.111
						c-0.143,0.218-0.37,0.51-0.708,0.51c-0.188,0-0.335-0.083-0.45-0.21l-0.059,0.267l-1.583-0.009
						c-0.72-0.164-1.149-1.095-1.103-1.859c0.045-0.716,0.484-1.202,1.146-1.269l0.401-0.041v0.261
						c0.46-0.238,0.837-0.569,1.231-0.917c0.773-0.679,1.65-1.448,3.24-1.448c0.39,0,0.817,0.046,1.27,0.138
						c0.658,0.192,0.862,0.768,1.025,1.23c0.171,0.485,0.277,0.712,0.545,0.773h0.279c1.033-0.511,2.287-0.792,3.5-1.063
						c0.709-0.159,1.443-0.322,2.11-0.529c0.28-0.092,0.753-0.06,1.198-0.009c0.227,0.025,0.44,0.05,0.624,0.05
						c0.327,0,0.331-0.066,0.335-0.115l0.021-0.402l0.398,0.063c0.539,0.085,0.621,0.598,0.668,0.904
						c0.014,0.09,0.037,0.235,0.064,0.291c0.691-0.163,0.757-0.49,0.86-1.021c0.114-0.577,0.271-1.366,1.45-1.768l0.302-0.267
						l0.196,0.171c5.721,4.375,8.652,10.258,11.623,18.411l0.178,0.488h-1.533l-0.02-0.033c-0.014,0.029-0.025,0.057-0.037,0.083
						c-0.16,0.358-0.356,0.804-0.721,1.082c-0.522,0.399-1.154,0.734-1.766,1.058c-0.926,0.492-1.883,1.001-2.142,1.609
						c-0.075,0.176-0.052,0.717-0.036,1.111c0.031,0.768,0.038,1.214-0.195,1.459c-0.095,0.098-0.221,0.15-0.354,0.15
						c-0.253,0-0.495-0.179-0.831-0.616c-0.675-0.711-1.291-1.569-1.294-3.001c-0.604-2.164-2.181-3.109-4.836-2.904l-0.133,0.01
						l-0.109-0.078c-0.463-0.334-1.01-0.439-1.746-0.336L69.9,44.785l-0.105-0.266c-0.301-0.763-0.785-1.062-1.65-1.018
						c0.244,1.074,0.943,1.665,1.689,2.13h0.673c0.507-0.079,0.771,0.125,0.958,0.264c0.125,0.092,0.186,0.134,0.293,0.138
						l0.301,0.013l0.044,0.297c0.14,0.93-0.374,1.291-0.749,1.555c-0.279,0.194-0.425,0.31-0.457,0.556l-0.018,0.074
						c-0.363,1.042-1.421,1.32-2.302,1.445l-0.052,0.004h-1.348l-0.104-0.095c-0.311-0.285-0.4-0.726-0.479-1.114
						c-0.127-0.621-0.203-0.791-0.496-0.802l-0.123-0.004l-0.814-0.679c0.046,0.177,0.08,0.37,0.1,0.58
						c0.285,0.363,0.498,0.783,0.705,1.189c0.535,1.049,0.996,1.94,2.529,1.809l0.033-0.004l0.033,0.004
						c0.172,0.016,0.459,0.042,0.631,0.277c0.105,0.146,0.14,0.328,0.098,0.543c-0.175,1.559-1.072,2.363-1.943,3.142
						c-0.748,0.671-1.563,1.291-1.664,2.419c-0.158,1.718-0.855,3.491-1.613,6.878c0.063,0.853-0.419,1.229-0.773,1.508
						c-0.385,0.3-0.617,0.481-0.446,1.194l0.011,0.049l-0.002,0.051c-0.014,0.336-0.169,0.544-0.28,0.695
						c-0.112,0.152-0.164,0.221-0.127,0.434l0.036,0.213l-0.168,0.135C61.754,68.844,61.117,69.35,60,69.35z M58.743,68.554
						l0.598,0.005c0.235,0.041,0.457,0.063,0.659,0.063c0.779,0,1.234-0.299,1.712-0.673c-0.006-0.38,0.163-0.605,0.28-0.765
						c0.08-0.107,0.121-0.168,0.133-0.251c-0.246-1.124,0.311-1.558,0.721-1.878c0.34-0.266,0.544-0.428,0.491-0.926
						c-0.171-0.776,0.001-1.154,0.475-1.134l-0.006-0.007l0.006,0.007c1.043-2.493,0.876-5.599,1.159-5.915
						c0.26-1.337,1.088-2.078,1.889-2.798c0.804-0.72,1.564-1.401,1.707-2.688c-0.014-0.002-0.027-0.003-0.043-0.005
						c-2.017,0.163-2.646-1.104-3.207-2.207c-0.215-0.422-0.418-0.822-0.688-1.141l-0.076-0.09l-0.008-0.119
						c-0.07-0.942-0.377-1.198-0.603-1.308l-0.146-0.072l-0.045-0.156c-0.027-0.098-0.043-0.21-0.057-0.321
						c-0.011-0.08-0.02-0.158-0.041-0.226l-0.358-1.168l2.964,2.469c0.791,0.105,0.944,0.863,1.048,1.373
						c0.049,0.234,0.098,0.475,0.186,0.627h1.009c0.98-0.145,1.488-0.426,1.682-0.932c0.086-0.547,0.457-0.808,0.752-1.017
						c0.271-0.19,0.445-0.313,0.463-0.608c-0.154-0.058-0.271-0.144-0.365-0.213c-0.174-0.127-0.242-0.161-0.433-0.127l-0.063,0.004
						h-0.906l-0.086-0.052c-0.967-0.587-1.982-1.413-2.184-3.083l-0.042-0.349l0.35-0.053c1.321-0.203,2.198,0.185,2.692,1.175
						c0.75-0.061,1.357,0.076,1.887,0.42c2.975-0.193,4.801,0.986,5.479,3.494l0.012,0.049v0.049
						c-0.009,1.152,0.416,1.834,1.107,2.563l0.023,0.029c0.038,0.049,0.072,0.09,0.102,0.126c0.004-0.198-0.006-0.442-0.014-0.635
						c-0.023-0.563-0.047-1.098,0.094-1.425c0.357-0.847,1.384-1.39,2.469-1.967c0.586-0.312,1.191-0.633,1.666-0.995
						c0.216-0.165,0.371-0.516,0.496-0.797c0.164-0.37,0.318-0.72,0.683-0.72c0.199,0,0.343,0.12,0.438,0.237h0.093
						c-2.843-7.707-5.877-13.614-11.191-17.323c-0.628,0.267-0.705,0.663-0.803,1.157c-0.118,0.6-0.267,1.346-1.483,1.606
						l-0.039,0.008H71.34c-0.652-0.005-0.75-0.616-0.797-0.912c-0.158,0.098-0.382,0.164-0.703,0.164
						c-0.225,0-0.471-0.026-0.706-0.054c-0.372-0.043-0.736-0.071-0.896-0.021c-0.699,0.218-1.447,0.384-2.171,0.547
						c-1.201,0.268-2.442,0.545-3.405,1.041l-0.078,0.04l-0.555-0.005c-0.736-0.134-0.955-0.754-1.131-1.254
						c-0.151-0.426-0.256-0.69-0.515-0.766c-0.374-0.076-0.753-0.118-1.095-0.118c-1.316,0-2.018,0.615-2.76,1.268
						c-0.555,0.488-1.129,0.992-1.964,1.26l-0.476,0.151v-0.299c-0.053,0.092-0.084,0.209-0.095,0.351
						c-0.021,0.325,0.098,0.686,0.269,0.906l0.284-0.445c0.188-0.292,0.482-0.681,0.886-0.681c0.467,0,0.695,0.481,0.879,0.868
						c0.043,0.095,0.11,0.234,0.166,0.327c0.004-0.003,0.006-0.008,0.01-0.014c-0.24-2.502,1.125-3.274,2.326-3.478l0.348-0.06
						l0.068,0.346c0.076,0.361,0.115,0.677,0.149,0.957c0.117,0.947,0.142,1.143,1.112,1.165l0.654,0.015l-0.357,0.548
						c-0.659,1.011-1.506,1.859-2.518,2.518l-0.046,0.025c-0.457,0.213-0.876,0.315-1.282,0.315c-0.439,0-0.782-0.119-1.086-0.223
						c-0.236-0.082-0.44-0.152-0.649-0.152c-0.175,0-0.463,0.044-0.929,0.417l-0.592,0.473v-0.542
						c-0.349,0.121-0.77,0.171-1.261,0.149l-0.22-0.01l-0.094-0.199c-0.189-0.404-0.396-0.806-0.599-1.196
						c-0.165-0.32-0.335-0.647-0.497-0.982c-0.092,0.152-0.169,0.313-0.204,0.517c0.104,0.046,0.179,0.11,0.231,0.169
						c0.277,0.313,0.214,0.813,0.154,1.295c-0.021,0.165-0.043,0.354-0.049,0.504c0.022,0.001,0.044,0.001,0.064,0.002
						c0.41,0.012,1.096,0.033,1.187,0.694l0.073,0.535l-0.523-0.133c-0.018,0.008-0.141,0.076-0.256,0.225
						c-0.086,0.108-0.121,0.203-0.133,0.254c0.021,0.004,0.051,0.011,0.094,0.011c0.754,0.108,0.785,0.836,0.759,1.409
						c0.752-0.486,1.778-0.714,2.772-0.714c1.519,0,3.143,0.534,3.566,1.721c0.141-0.021,0.248-0.081,0.387-0.156
						c0.166-0.09,0.363-0.199,0.637-0.238c0.391-1.764,1.813-2.402,2.961-2.402c1.509,0,3.141,1.072,3.338,3.123l0.037,0.4h-3.961
						c-0.367,0.136-0.514,0.382-0.501,0.832c-0.003,0.057,0.001,0.08,0.001,0.089c0.014-0.002,0.065,0.019,0.206,0.019
						c0.167,0,0.38-0.029,0.585-0.057c0.23-0.03,0.469-0.062,0.684-0.062c0.125,0,0.502,0,0.744,0.255
						c0.098,0.103,0.209,0.29,0.192,0.591v2.875l-0.623-0.628c-0.277-0.28-0.901-0.316-1.416-0.316
						c-0.237,0-0.484,0.009-0.731,0.016c-0.426,0.017-0.852,0.03-1.236,0.005l-0.282-0.019l-0.052-0.277
						c-0.03-0.159-0.293-0.177-0.404-0.177c-0.334,0-0.72,0.146-0.861,0.326c-0.044,0.056-0.037,0.084-0.034,0.098l0.143,0.572
						l-0.575-0.13c-0.383-0.085-0.654-0.275-0.893-0.441c-0.311-0.217-0.553-0.381-1.016-0.354l-0.107,0.007l-0.094-0.053
						c-0.656-0.37-0.932-1.084-1.174-1.715c-0.033-0.085-0.066-0.171-0.1-0.255c-0.389,0.008-0.692,0.112-1.014,0.221
						c-0.356,0.122-0.762,0.259-1.295,0.259c-0.148,0-0.298-0.01-0.453-0.031c-0.043,0.063-0.088,0.115-0.125,0.161
						c-0.096,0.112-0.124,0.148-0.123,0.238v0.436l-0.428-0.076c-0.155-0.028-0.3-0.042-0.431-0.042
						c-0.722,0-0.964,0.391-1.329,1.083c-0.275,0.519-0.586,1.106-1.27,1.355l-0.072,0.026l-0.076-0.006
						c-0.623-0.04-0.834,0.259-1.15,0.817c-0.022,0.042-0.046,0.083-0.07,0.125l-0.002,0.747c-0.396,3.419,0.098,4.702,1.419,6.789
						c0.175-0.035,0.349-0.072,0.525-0.11c1.188-0.254,2.415-0.517,3.571-0.517c1.383,0,2.439,0.387,3.228,1.18l0.106,0.107v2.217
						c0.829,0.063,1.76,0.253,2.324,0.911l0.32,0.372l-0.447,0.199c-0.915,0.404-0.906,1.465-0.814,3.161
						c0.055,1.028,0.117,2.187-0.149,3.288c0.19,0.377,0.229,0.857,0.268,1.324c0.04,0.498,0.081,1.015,0.308,1.209
						c0.869,0.254,1.055,1.158,1.205,1.889C58.668,68.23,58.703,68.396,58.743,68.554z M64.15,62.592l0.211,0.296L64.15,62.592z
						 M49.553,39.661c0.162,0.059,0.285,0.147,0.382,0.219c0.173,0.128,0.242,0.16,0.433,0.127c0.176-0.029,0.279-0.129,0.445-0.302
						c0.129-0.136,0.281-0.295,0.498-0.406c0.063-0.291,0.179-0.552,0.338-0.783c-0.24,0.071-0.494,0.117-0.744,0.161
						C49.912,38.854,49.511,38.992,49.553,39.661z M54.5,32.361h0.751c-0.11-0.047-0.336-0.068-0.431-0.076l-0.5-0.046
						C54.377,32.296,54.438,32.34,54.5,32.361z"/>
				</g>
				<g>
					<path fill="#2EA249" d="M32.467,28.136c0.652-0.12,1.084,0.544,0.402,0.804c0.073,0.342-0.158,0.379-0.402,0.402
						c0.225,0.579,0.627,0.982,1.205,1.206c2.54-0.663,1.664-2.177,0.402-3.618c0-0.403,0-0.804,0-1.207
						c1.137,0.333,1.043-0.566,2.012-0.402c0.947-0.008,1.184,0.692,2.412,0.402c1.488-0.282,1.004,1.41,1.609,2.012
						c-0.615,0.727-1.45,1.231-1.207,2.813c0.175,0.495,0.515,0.827,1.207,0.803c0.55-1.325,1.903-1.848,3.215-2.411
						c1.706-1.245,4.434-1.465,4.826-4.021c-0.557-0.917-2.798-0.15-4.021-0.402c-2.308-0.184-3.054,0.573-4.826,0
						c-0.134,0-0.269,0-0.401,0c-1.176,1.52-1.387-0.467-3.618,0c-0.939,0-1.878,0-2.814,0c-0.392,0.01-0.313,0.492-0.401,0.804
						c0.267,0,0.535,0,0.804,0c0.708,2.049-2.129,0.553-2.011,2.011C30.57,28.423,32.754,27.044,32.467,28.136z"/>
					<path fill="#006839" d="M40.043,31.719c-0.738,0-1.239-0.354-1.486-1.048l-0.016-0.065c-0.229-1.49,0.41-2.167,0.975-2.763
						c0.042-0.044,0.084-0.087,0.125-0.133c-0.135-0.247-0.197-0.535-0.261-0.816c-0.143-0.659-0.231-0.837-0.575-0.837
						c-0.07,0-0.15,0.008-0.238,0.025c-0.214,0.049-0.421,0.076-0.622,0.076c-0.462,0-0.784-0.142-1.068-0.268
						c-0.249-0.11-0.464-0.204-0.773-0.204l-0.077-0.006c-0.291-0.048-0.42,0.029-0.623,0.17c-0.217,0.148-0.503,0.337-0.964,0.309
						v0.635c0.752,0.873,1.446,1.872,1.169,2.773c-0.191,0.626-0.794,1.061-1.842,1.334l-0.114,0.03l-0.108-0.043
						c-0.678-0.262-1.154-0.737-1.415-1.413l-0.175-0.45l0.48-0.044c0.025-0.003,0.05-0.006,0.07-0.007l-0.057-0.261l0.291-0.112
						c0.047-0.017,0.077-0.035,0.096-0.048c-0.041-0.036-0.154-0.085-0.301-0.059L31.969,28.6l0.146-0.549
						c-0.11,0.001-0.256,0.023-0.397,0.045c-0.172,0.025-0.35,0.052-0.516,0.052l0,0c-0.275,0-0.48-0.083-0.607-0.248
						c-0.119-0.155-0.152-0.354-0.102-0.598c-0.04-0.963,0.889-1.051,1.393-1.098c0.281-0.026,0.629-0.06,0.705-0.178
						c0.016-0.025,0.054-0.113,0.004-0.339h-1.012l0.133-0.465c0.02-0.065,0.027-0.143,0.037-0.216
						c0.031-0.25,0.105-0.833,0.705-0.852h2.789c0.242-0.047,0.478-0.072,0.701-0.072c0.741,0,1.245,0.265,1.613,0.46
						c0.2,0.105,0.373,0.196,0.497,0.196c0.143,0,0.329-0.148,0.556-0.442l0.11-0.142l0.692,0.019
						c0.424,0.137,0.809,0.201,1.212,0.201c0.359,0,0.697-0.048,1.09-0.104c0.473-0.068,1.011-0.145,1.688-0.145
						c0.245,0,0.498,0.011,0.753,0.03l0.045,0.007c0.357,0.075,0.979,0.038,1.568-0.011c0.357-0.028,0.726-0.06,1.065-0.06
						c0.53,0,1.275,0.067,1.624,0.64l0.068,0.115l-0.02,0.13c-0.305,1.97-1.888,2.701-3.283,3.348
						c-0.615,0.285-1.197,0.554-1.689,0.912l-0.069,0.041l-0.192,0.083c-1.217,0.52-2.365,1.01-2.831,2.135l-0.091,0.216
						L40.043,31.719z M39.255,30.458c0.122,0.325,0.31,0.484,0.624,0.523c0.625-1.231,1.888-1.771,3.109-2.293l0.154-0.067
						c0.541-0.388,1.17-0.679,1.777-0.959c1.305-0.604,2.54-1.175,2.842-2.644c-0.158-0.135-0.463-0.201-0.926-0.201
						c-0.31,0-0.663,0.029-1.006,0.057c-0.634,0.053-1.308,0.09-1.752,0.003c-0.228-0.019-0.454-0.028-0.674-0.028
						c-0.625,0-1.113,0.07-1.584,0.138c-0.402,0.056-0.783,0.111-1.192,0.111c-0.463,0-0.903-0.068-1.382-0.219h-0.172
						c-0.189,0.223-0.371,0.377-0.555,0.472c0.104-0.017,0.197-0.024,0.285-0.024c0.979,0,1.165,0.849,1.288,1.411
						c0.063,0.293,0.132,0.599,0.271,0.738l0.237,0.235l-0.217,0.256c-0.107,0.13-0.225,0.253-0.34,0.375
						C39.535,28.88,39.094,29.346,39.255,30.458z M32.986,29.565c0.175,0.265,0.41,0.462,0.713,0.599
						c0.701-0.2,1.107-0.472,1.212-0.81c0.188-0.609-0.544-1.538-1.11-2.186l-0.091-0.102v-1.829l0.467,0.135
						c0.136,0.041,0.255,0.06,0.354,0.06c0.192,0,0.298-0.073,0.458-0.184c0.24-0.167,0.543-0.383,1.127-0.293
						c0.465,0.007,0.778,0.146,1.055,0.268c0.188,0.083,0.357,0.157,0.561,0.189c-0.174-0.053-0.34-0.14-0.512-0.231
						c-0.334-0.175-0.711-0.375-1.272-0.375c-0.187,0-0.385,0.022-0.591,0.064l-0.074,0.007h-2.773
						c-0.006,0.021-0.011,0.048-0.016,0.077h0.635l0.085,0.245c0.182,0.525,0.177,0.922-0.011,1.217
						c-0.27,0.416-0.789,0.464-1.25,0.508c-0.724,0.069-0.75,0.138-0.73,0.375l0.004,0.062l-0.014,0.055
						c0.107-0.002,0.254-0.024,0.396-0.045c0.173-0.027,0.351-0.054,0.515-0.054c0.277,0,0.481,0.084,0.61,0.25
						c0.047,0.062,0.082,0.131,0.102,0.208c0.377,0.07,0.671,0.326,0.734,0.66c0.04,0.229-0.031,0.516-0.328,0.718
						c-0.015,0.102-0.051,0.192-0.107,0.272C33.09,29.484,33.041,29.529,32.986,29.565z"/>
				</g>
				<g>
					<path fill="#2EA249" d="M31.778,71.564c0.8-2.63,3.163-3.109,3.618-6.836c3.446-0.04,2.359-4.61,4.021-6.434
						c-0.143-0.527-0.707-0.633-0.805-1.206c-1.739-0.405-3.41-0.878-4.825-1.609c0-0.534,0-1.071,0-1.608l-0.237-0.158
						c0.518,0.154,0.01-0.285,0.237,0.158c0.135,0,0.269,0,0.401,0c-0.143-0.528-0.707-0.631-0.804-1.205c-0.134,0-0.268,0-0.402,0
						c-1.282,0.344-1.243-0.634-2.009-0.806c-0.404,0.003-0.479-0.325-0.806-0.401c-2.146-0.139-2.798,0.059-4.021-0.402
						c-0.963,0.244-1.834,0.579-3.217,0.402c-0.689-1.02,0.646-2.465-1.207-2.814c0-0.804,0-1.608,0-2.413
						c-1.254-0.284-1.73,2.249-2.813,0.803c-0.023-0.245-0.06-0.475-0.401-0.402c0,0.134,0,0.269,0,0.402
						c-1.156-0.794,0.139-2.508,0-3.618c1.205-0.534,3.076-0.409,4.825-0.403c0,0.134,0,0.269,0,0.403
						c0.362,0.701,0.899,1.548,1.608,0.803c0-0.267,0-0.536,0-0.803c-0.735-0.893,1.693-2.042,2.412-2.816c0-0.133,0-0.268,0-0.4
						c0.463-1.416,2.281-1.473,2.814-2.815c1.066-0.007,2.369,0.223,2.414-0.805c-1.198-0.712,0.231-2.142,1.607-1.608
						c0-0.134,0-0.269,0-0.401c1.179-0.342-0.241-1.295,0-2.011c-0.797,0.151-1.602-0.731-2.413-1.608
						c-1.149,1.531-1.573,3.788-4.021,4.021c0.035-0.57,0.066-1.138-0.402-1.205c0-0.135,0-0.269,0-0.402c0.135,0,0.27,0,0.402,0
						c0.297-1.37-1.481-0.664-1.609-1.61c0.537-0.402,1.214-0.662,1.609-1.205c0.326-0.077,0.4-0.403,0.804-0.402
						c-0.624-1.43,1.366-0.244,1.206-1.207c-0.388-0.995-1.543,0.554-2.813,0c-0.468,0.066-0.716-0.089-0.806-0.402
						c-4.799,5.121-8.094,11.744-9.65,20.106c0.529-0.482,0.632-0.157,1.206,0c0,0.135,0,0.268,0,0.403
						c0.326,0.076,0.401,0.402,0.804,0.401c0.503-0.734,2.355,0.567,2.814,1.206c0.791-0.121,0.797,0.543,1.207,0.804
						c0.129,0.942,1.754,0.39,2.01,1.206c0,0.402,0,0.805,0,1.208c-1.191,1.366-1.665,3.708,0,4.823
						c0.479,1.4,0.736,3.019,2.412,3.217c1.201,0.276,1.348,1.602,1.207,3.219c0.928,1.215,0.141,4.146,0.402,6.031
						c1.509,0.769,0.76,3.798,2.01,4.825C32.421,75.156,29.846,71.936,31.778,71.564z"/>
					<path fill="#006839" d="M30.515,76.413l-0.173-0.144c-0.695-0.571-0.855-1.58-1.01-2.556c-0.154-0.978-0.301-1.903-0.936-2.227
						L28.226,71.4l-0.024-0.189c-0.104-0.749-0.051-1.645,0.001-2.513c0.079-1.327,0.161-2.698-0.333-3.346l-0.085-0.113l0.012-0.14
						c0.156-1.787-0.114-2.635-0.909-2.827c-1.667-0.212-2.114-1.638-2.51-2.897c-0.049-0.15-0.096-0.301-0.145-0.448
						c-0.621-0.456-1.004-1.106-1.106-1.892c-0.144-1.082,0.257-2.334,1.048-3.297v-1.002c-0.076-0.14-0.318-0.192-0.689-0.258
						c-0.449-0.08-1.105-0.198-1.283-0.813c-0.125-0.113-0.215-0.242-0.297-0.359c-0.184-0.271-0.262-0.332-0.526-0.293l-0.22,0.034
						l-0.131-0.181c-0.338-0.467-1.479-1.273-2.052-1.273c-0.126,0-0.153,0.04-0.167,0.059l-0.107,0.16H18.51
						c-0.365,0-0.574-0.178-0.713-0.296c-0.08-0.067-0.124-0.104-0.177-0.115l-0.28-0.067v-0.43
						c-0.066-0.027-0.123-0.053-0.175-0.078c-0.073-0.034-0.157-0.072-0.188-0.072c-0.004,0-0.062,0.001-0.233,0.159l-0.455,0.816
						l-0.148-1.152c1.524-8.191,2.802-12.199,9.743-20.288l0.441-0.47l0.174,0.619c0.021,0.075,0.043,0.152,0.256,0.152
						c0.045,0,0.096-0.004,0.148-0.01l0.102-0.015l0.093,0.042c0.439,0.19,0.958,0.025,1.429-0.158
						c0.281-0.111,0.548-0.215,0.806-0.215c0.252,0,0.589,0.099,0.774,0.574l0.021,0.073c0.039,0.244-0.006,0.443-0.136,0.596
						c-0.219,0.257-0.579,0.257-0.794,0.257h-0.18c-0.104,0-0.169,0.004-0.211,0.009c0.009,0.047,0.031,0.13,0.087,0.258
						l0.224,0.512l-0.559-0.002c-0.09,0-0.125,0.027-0.236,0.123c-0.084,0.071-0.194,0.164-0.346,0.226
						c-0.299,0.365-0.689,0.604-1.07,0.833c-0.098,0.06-0.191,0.118-0.283,0.175c0.08,0.047,0.211,0.086,0.431,0.141
						c0.454,0.113,1.3,0.324,1.06,1.433l-0.063,0.287h-0.102c0.148,0.222,0.187,0.522,0.188,0.816
						c1.312-0.297,1.897-1.35,2.513-2.457c0.255-0.457,0.519-0.931,0.836-1.354l0.263-0.349l0.326,0.354
						c0.715,0.773,1.439,1.577,2.049,1.465l0.609-0.116l-0.197,0.589c-0.047,0.141,0.098,0.418,0.216,0.641
						c0.178,0.336,0.38,0.718,0.22,1.092c-0.076,0.176-0.213,0.312-0.418,0.413v0.683l-0.494-0.192
						c-0.156-0.061-0.321-0.092-0.488-0.092c-0.533,0-0.979,0.317-1.061,0.613c-0.016,0.06-0.066,0.242,0.258,0.435l0.188,0.11
						l-0.01,0.218c-0.052,1.17-1.312,1.17-1.788,1.17c-0.156,0-0.319-0.003-0.481-0.008c-0.092-0.002-0.186-0.005-0.276-0.007
						c-0.335,0.618-0.91,0.976-1.426,1.294c-0.563,0.348-1.049,0.65-1.256,1.216v0.484l-0.098,0.105
						c-0.238,0.255-0.617,0.53-1.02,0.819c-0.584,0.421-1.384,0.997-1.432,1.366c-0.005,0.038-0.002,0.083,0.052,0.15l0.085,0.101
						v1.081l-0.102,0.105c-0.254,0.267-0.525,0.401-0.809,0.401c-0.633,0-1.055-0.651-1.387-1.289l-0.039-0.077v-0.131
						c-0.15-0.001-0.303-0.003-0.453-0.006c-0.314-0.004-0.629-0.009-0.938-0.009c-0.964,0-1.948,0.039-2.698,0.3
						c-0.012,0.4-0.137,0.827-0.256,1.242c-0.172,0.591-0.285,1.043-0.215,1.38l0.021-0.006c0.462-0.1,0.748,0.119,0.826,0.612
						c0.121,0.147,0.232,0.231,0.307,0.231c0.139,0,0.381-0.252,0.574-0.456c0.348-0.365,0.78-0.82,1.391-0.82
						c0.091,0,0.184,0.012,0.275,0.033l0.284,0.064v2.417c1.142,0.339,1.069,1.194,1.014,1.83c-0.028,0.339-0.058,0.66,0.056,0.93
						c0.18,0.017,0.353,0.025,0.527,0.025c0.739,0,1.318-0.156,1.932-0.323c0.146-0.038,0.293-0.078,0.442-0.116l0.11-0.027
						l0.106,0.039c0.769,0.291,1.284,0.3,2.218,0.316c0.444,0.008,0.996,0.018,1.698,0.063l0.06,0.009
						c0.227,0.053,0.375,0.179,0.482,0.27c0.109,0.096,0.146,0.123,0.235,0.123l0.083,0.008c0.396,0.089,0.633,0.332,0.822,0.529
						c0.217,0.224,0.342,0.34,0.619,0.34c0.113,0,0.244-0.021,0.395-0.061l0.095-0.014h0.71l0.051,0.305
						c0.029,0.175,0.13,0.277,0.304,0.443c0.179,0.169,0.401,0.379,0.493,0.729l0.124,0.459h-0.513v1.021
						c1.436,0.704,3.097,1.142,4.543,1.478l0.238,0.055l0.038,0.24c0.029,0.173,0.129,0.275,0.304,0.441
						c0.178,0.17,0.398,0.381,0.493,0.73l0.052,0.192l-0.135,0.147c-0.561,0.617-0.79,1.665-1.012,2.68
						c-0.375,1.721-0.799,3.662-2.959,3.857c-0.323,2.068-1.252,3.168-2.078,4.143c-0.615,0.729-1.197,1.416-1.511,2.449
						l-0.064,0.212l-0.216,0.04c-0.533,0.102-0.553,0.457-0.344,1.619c0.178,1,0.4,2.248-0.782,2.779L30.515,76.413z M28.9,70.939
						c0.814,0.538,0.986,1.616,1.15,2.662c0.116,0.729,0.235,1.482,0.58,1.928c0.392-0.33,0.318-0.947,0.154-1.861
						c-0.156-0.877-0.368-2.059,0.709-2.405c0.368-1.069,0.988-1.802,1.588-2.512c0.838-0.989,1.705-2.015,1.953-4.065l0.039-0.316
						l0.318-0.003c1.855-0.022,2.187-1.541,2.57-3.3c0.223-1.021,0.454-2.076,1.031-2.83c-0.053-0.074-0.125-0.146-0.22-0.238
						c-0.157-0.149-0.345-0.328-0.452-0.604c-1.508-0.355-3.219-0.825-4.701-1.59l-0.197-0.103l0.148-2.108l-3.188-1.553
						l0.029,0.008c-0.059-0.041-0.109-0.083-0.152-0.119c-0.068-0.058-0.111-0.092-0.154-0.109
						c-0.665-0.043-1.176-0.051-1.626-0.059c-0.91-0.018-1.522-0.028-2.353-0.324c-0.107,0.029-0.215,0.057-0.32,0.088
						c-0.531,0.143-1.08,0.291-1.739,0.334c0.354,0.1,0.687,0.279,0.817,0.697l0.018,0.109v1.343l-0.09,0.103
						c-0.708,0.813-1.088,1.924-0.967,2.831c0.082,0.622,0.383,1.11,0.895,1.454l0.102,0.067l0.04,0.116
						c0.065,0.189,0.126,0.385,0.187,0.578c0.379,1.208,0.707,2.25,1.924,2.395l0.04,0.008c1.521,0.348,1.613,2.012,1.498,3.471
						c0.565,0.873,0.483,2.254,0.396,3.711C28.883,69.504,28.836,70.291,28.9,70.939z M21.501,50.276
						c0.428,0,0.679,0.203,0.849,0.407c-0.004-0.194,0.014-0.385,0.027-0.557c0.06-0.688,0.084-0.973-0.72-1.125l-0.296-0.057
						v-2.342c-0.238,0.083-0.469,0.326-0.695,0.563c-0.319,0.334-0.65,0.681-1.101,0.681c-0.243,0-0.472-0.1-0.692-0.307v0.188
						l-0.57-0.394c-0.949-0.652-0.631-1.75-0.375-2.633c0.129-0.447,0.263-0.908,0.221-1.239l-0.004-0.033
						c-0.453,1.479-0.838,3.01-1.156,4.598c0.184,0.002,0.335,0.07,0.48,0.138c0.098,0.045,0.201,0.091,0.332,0.128l0.268,0.074
						v0.443c0.08,0.051,0.146,0.105,0.201,0.151c0.051,0.044,0.084,0.073,0.115,0.091c0.135-0.104,0.324-0.188,0.592-0.188
						c0.833,0,2.004,0.85,2.508,1.41C21.49,50.276,21.496,50.276,21.501,50.276z M23.697,43.326c0.359,0.675,0.578,0.82,0.699,0.82
						c0.051,0,0.113-0.029,0.182-0.083v-0.531c-0.111-0.18-0.156-0.382-0.129-0.59c0.088-0.681,0.921-1.281,1.727-1.863
						c0.315-0.227,0.615-0.443,0.816-0.628l0.018-0.364c0.277-0.853,0.971-1.283,1.582-1.66c0.526-0.327,1.024-0.635,1.24-1.177
						l0.091-0.228l0.292-0.001c0.158,0,0.32,0.005,0.482,0.01c0.156,0.004,0.311,0.008,0.462,0.008c0.728,0,0.954-0.123,1.026-0.293
						c-0.35-0.294-0.49-0.693-0.377-1.104c0.199-0.724,1.123-1.245,2.02-1.133v-0.211l0.263-0.076
						c0.175-0.05,0.213-0.099,0.214-0.101c0.012-0.07-0.117-0.317-0.195-0.465c-0.114-0.215-0.246-0.464-0.293-0.728
						c-0.707-0.096-1.342-0.701-1.997-1.398c-0.185,0.287-0.354,0.593-0.532,0.912c-0.705,1.268-1.502,2.704-3.494,2.893
						l-0.424,0.041l0.025-0.425c0.019-0.319,0.049-0.803-0.092-0.823l-0.311-0.045V33h0.432c-0.032-0.145-0.184-0.193-0.545-0.283
						c-0.398-0.1-1.002-0.25-1.092-0.914l-0.027-0.212l0.17-0.127c0.195-0.146,0.4-0.271,0.601-0.393
						c0.366-0.224,0.713-0.435,0.933-0.737l0.08-0.11l0.132-0.03c0.052-0.013,0.097-0.048,0.175-0.116
						c0.064-0.056,0.145-0.123,0.248-0.178c-0.039-0.187-0.035-0.386,0.07-0.558c-0.395,0.104-0.86,0.121-1.266-0.029
						c-0.338,0.029-0.598-0.041-0.795-0.194c-3.525,3.866-6.162,8.564-7.875,14.023l0.129-0.058
						c0.894-0.396,2.075-0.452,3.219-0.452c0.313,0,0.631,0.005,0.947,0.011c0.271,0.002,0.541,0.006,0.809,0.008l0.361,0.001
						V43.326L23.697,43.326z M29.12,29.005h0.077c0.092,0,0.154-0.003,0.195-0.007c-0.022-0.036-0.039-0.036-0.062-0.036
						C29.277,28.962,29.204,28.979,29.12,29.005z"/>
				</g>
				<g>
					<path fill="#2EA249" d="M60.615,82.525c-8.738-1.257-19.056,6.797-25.333-0.803c-1.587,0.738,0.527,1.002-0.403,2.011
						c0.023,0.245,0.061,0.476,0.403,0.401c9.241,4.713,27.083,4.299,34.18-2.011C66.324,80.408,64.625,82.949,60.615,82.525z"/>
					<path fill="#006839" d="M51.018,87.678c0,0-0.001,0-0.002,0c-6.043,0-11.791-1.153-15.797-3.166
						c-0.421,0.031-0.654-0.227-0.702-0.746l-0.016-0.16l0.111-0.119c0.229-0.25,0.175-0.321-0.029-0.588
						c-0.144-0.188-0.339-0.444-0.258-0.771c0.068-0.28,0.317-0.508,0.802-0.734l0.255-0.119l0.18,0.218
						c1.79,2.165,4.024,3.175,7.03,3.175c2.395,0,4.946-0.619,7.646-1.273c2.768-0.672,5.628-1.365,8.383-1.365
						c0.712,0,1.4,0.048,2.045,0.141c0.278,0.029,0.57,0.045,0.857,0.045c1.264,0,2.27-0.293,3.24-0.576
						c0.841-0.247,1.635-0.479,2.492-0.479c0.807,0,1.585,0.212,2.381,0.648l0.452,0.246l-0.386,0.344
						C65.983,85.703,58.998,87.678,51.018,87.678z M35.332,83.752l0.113,0.059c3.912,1.994,9.588,3.139,15.57,3.139h0.002
						c7.514,0,14.098-1.764,17.783-4.741c-0.518-0.22-1.019-0.322-1.545-0.322c-0.753,0-1.465,0.208-2.289,0.447
						c-0.974,0.282-2.076,0.606-3.445,0.606c-0.311,0-0.628-0.018-0.945-0.053c-0.626-0.089-1.278-0.134-1.955-0.134
						c-2.668,0-5.484,0.684-8.21,1.345c-2.746,0.666-5.338,1.295-7.819,1.295c-3.135,0-5.494-1.021-7.398-3.213
						c-0.085,0.052-0.128,0.088-0.148,0.111c0.024,0.044,0.079,0.115,0.117,0.165c0.182,0.237,0.538,0.704,0.16,1.296H35.332z"/>
				</g>
			</g>
		</g>
		<path opacity="0.63" fill="#9EDAE5" d="M25.851,28c0,0-0.433,10.076,3.03,8.334c3.462-1.742,9.459-1.57,9.712,0.224
			c0.252,1.794,0.322,4.948,2.306,4.064c1.982-0.883,7.218-2.761,8.621-1.251c1.404,1.508-0.221,4.485,1.553,4.382
			c1.773-0.103,8.51-2.639,10.754-3.579c2.244-0.939,1.362-0.852,2.749,1.627c1.388,2.479,2.274,3.905,3.435,3.497
			s3.124-2.027,4.007-2.531c0.884-0.505,5.677,2.54,6.054,2.531c0.379-0.009-0.504,6.063-2.9,3.406
			c-2.396-2.658-3.867-2.794-4.268-1.69c-0.398,1.104-3.913,2.792-4.971,1.746c-1.057-1.044-0.852-4.21-3.753-3.462
			s-6.565,0.726-11.106,0.6c-4.541-0.125-2.768-2.857-3.777-4.096c-1.009-1.24-3.377,0.518-4.919,1.344
			c-1.542,0.826,2.523,5.55-0.882,4.541c-3.406-1.009-2.775-0.929-5.298-3.933c-2.522-3.004-3.28-5.168-4.667-2.005
			c-1.388,3.163-1.514,3.92-1.893,4.803c-0.378,0.883-13.43-0.505-11.696-5.361S22.414,31.49,25.851,28z"/>
		<path opacity="0.63" fill="#9EDAE5" d="M82.125,37.688c0,0,0.719,19.093-7.586,15.986s-9.838-2.199-12.612-1.382
			s-12.984-1.987-14.505-2.915c-1.521-0.928-2.649-0.6-5.551,2.449c-2.9,3.049,0.506,5.255-4.287,3.963
			c-4.793-1.293-4.92-1.738-5.046,0.377s2.981,1.71-0.882,3.604s-3.818,4.388-5.219,1.742s-3.043-2.224-1.498-4.368
			c1.545-2.143-3.627,1.072-1.355,4.006c2.27,2.933,2.738,5.027,5.152,4.105c2.415-0.921,2.92-2.158,4.18-3.18
			c1.262-1.021,2.287-4.17,3.785-1.821c1.496,2.348,1.369,3.583,2.766,2.948s2.728-2.109,1.432-2.948
			c-1.297-0.839-1.348,0.325-1.297-0.839s-0.252-0.757,2.648-1.135c2.901-0.379,2.433,1.008,3.991-0.758s-3.354-2.847,2.256-2.432
			c5.609,0.414-1.423-0.061,7.501,1.296c8.925,1.356,10.205-1.837,14.059-1.296c3.853,0.539,2.339,1.171,5.87,2.18
			c3.532,1.01,2.565,2.901,4.563,1.01c1.997-1.893,4.222-4.047,4.894-4.607c0.67-0.561,0.684-2.088,0.684-2.088
			S85.025,44.079,82.125,37.688z"/>
		<path opacity="0.63" fill="#9EDAE5" d="M20.645,69.472c0,0,22.807,4.37,25.233,0.437s3.211-3.036,6.919-1.215
			c3.706,1.822,3.958,2.516,7.111,2.547s11.856,0.366,12.234-0.494c0.379-0.861-4.919,4.184-12.36,2.039
			c-7.442-2.145-8.956-2.145-9.839-0.631c-0.882,1.514-2.144,3.558-4.666,3.545s-5.551,1.652-6.559,0
			c-1.01-1.652-4.364-2.34-5.803-1.403c-1.438,0.937-4.969,4.194-4.969,4.194S23.137,74.92,20.645,69.472z"/>
	</g>
</g>
</svg>
