<?xml version="1.0" encoding="utf-8"?>
<!-- Generator: Adobe Illustrator 15.1.0, SVG Export Plug-In . SVG Version: 6.00 Build 0)  -->
<!DOCTYPE svg PUBLIC "-//W3C//DTD SVG 1.1//EN" "http://www.w3.org/Graphics/SVG/1.1/DTD/svg11.dtd">
<svg version="1.1" id="Layer_1" xmlns="http://www.w3.org/2000/svg" xmlns:xlink="http://www.w3.org/1999/xlink" x="0px" y="0px"
	 width="100px" height="100px" viewBox="0 0 100 100" enable-background="new 0 0 100 100" xml:space="preserve">
<g>
	<circle opacity="0.8" fill="#000014" cx="50" cy="50.09" r="50"/>
	<g>
		<g id="Earth_8_">
			<g id="EarthOcean_8_">
				<path fill="#16C1E1" d="M49.881,5.019c24.74,0,44.796,20.054,44.796,44.796S74.621,94.613,49.881,94.613
					c-24.742,0-44.798-20.056-44.798-44.798c0-2.153,0.152-4.272,0.446-6.344C8.611,21.734,27.293,5.019,49.881,5.019z"/>
				<path fill="#11A0C1" d="M94.037,44.766C91.861,22.052,72.732,4.29,49.451,4.29c-21.666,0-39.731,15.383-43.888,35.821
					c6.949-5.101,23.002-14.96,35.477-7.93C54.313,39.661,79.92,45.581,94.037,44.766z"/>
				<path fill="#008EB2" d="M18.232,16.967c0,0,25.596-11.437,38.363-1.482c12.768,9.952,29.188,7.222,29.188,7.222
					S73.729,5.365,52.719,4.411C31.708,3.458,18.232,16.967,18.232,16.967z"/>
				<path fill="#008EB2" d="M20.172,83.004c0,0,43.427,13.134,67.318-9.287c0,0-9.334,18.102-30.376,20.222
					C36.072,96.058,23.27,86.023,20.172,83.004z"/>
			</g>
			<g id="Continents_8_">
				<g>
					<path fill="#94A43D" d="M71.301,65.889c-0.077-1.282,0.264-2.141,1.028-2.577c0-0.514,0-1.032,0-1.548
						c-2.027-0.82-0.178,2.229-1.544,2.063C70.83,64.642,70.536,65.792,71.301,65.889z"/>
					<path fill="#006839" d="M71.801,66.421l-0.56-0.07c-1.003-0.127-0.961-1.203-0.928-1.915c0.009-0.201,0.016-0.401,0.007-0.583
						l-0.029-0.556l0.573,0.069c0.027-0.135,0.008-0.421-0.007-0.604c-0.035-0.492-0.069-0.999,0.244-1.338
						c0.113-0.121,0.321-0.266,0.656-0.266c0.212,0,0.455,0.058,0.747,0.175l0.292,0.121v2.128l-0.236,0.135
						c-0.602,0.344-0.863,1.045-0.795,2.144L71.801,66.421z M71.78,62.09c-0.027,0.133-0.006,0.423,0.007,0.607
						c0.009,0.134,0.018,0.271,0.022,0.403c0.017-0.012,0.037-0.027,0.056-0.043v-0.955C71.83,62.097,71.803,62.094,71.78,62.09z"/>
				</g>
				<g>
					<path fill="#2EA249" d="M78.859,16.641c-2.525,0.855-0.584,3.071-3.091,3.605c-0.851-0.007-0.289-1.428-1.032-1.543
						c-0.063,1.136-2.185,0.218-3.09,0.515c-2.362,0.73-5.171,1.011-7.214,2.06c-0.173,0-0.343,0-0.516,0
						c-1.31-0.236-0.863-2.228-2.06-2.575c-4.531-0.926-4.997,2.214-7.729,3.09c0-0.173,0-0.344,0-0.515
						c-1.655,0.168-1.136,2.83,0,3.091c0.515,0,1.03,0,1.545,0c0.189-0.877-0.401-0.972-1.03-1.031
						c1.479-2.31,1.381,2.356,2.576,0.514c-0.297-2.529,0.669-3.796,2.576-4.12c0.418,2.036-0.048,3.044,2.061,3.092
						c-0.813,1.248-1.845,2.278-3.091,3.091c-2.628,1.219-3.015-1.193-5.153,0.515c0-0.172,0-0.343,0-0.515
						c-0.458,0.4-1.163,0.553-2.06,0.515c-0.492-1.053-1.053-2.04-1.547-3.091c-0.172,0-0.342,0-0.515,0
						c-0.273,0.414-0.537,0.835-0.516,1.547c1.118-0.09,0.235,1.825,0.516,2.575c0.607,0.079,1.463-0.09,1.547,0.514
						c-0.626-0.159-1.779,1.489-0.516,1.545c0.599,0.085,0.561,0.815,0.516,1.547C49.791,31.88,47,31.151,47.43,33.642
						c0.659,0.027,0.712,0.661,1.545,0.514c0.735-0.122,0.869-0.847,1.546-1.027c0.405-3.574,8.246-3.495,8.759-0.519
						c0.973,0.117,1.137-0.581,2.059-0.513c0.637-4.406,6.79-3.914,7.215,0.513c-1.544,0-3.093,0-4.638,0
						c-0.647,0.211-1.054,0.666-1.029,1.545c-0.087,1.46,3.176-0.428,3.092,1.03c0,0.861,0,1.719,0,2.578
						c-0.855-0.862-3.025-0.409-4.638-0.515c-0.213-1.144-2.826-0.496-2.574,0.515c-0.982-0.22-1.297-1.109-2.577-1.031
						c-0.879-0.493-1.13-1.618-1.546-2.577c-1.66-0.112-2.18,0.911-4.122,0.514c-0.098,0.418-0.515,0.516-0.513,1.031
						c-2.924-0.518-2.358,2.453-4.123,3.092c-1.29-0.089-1.613,0.791-2.063,1.544c0,0.343,0,0.687,0,1.03
						c-0.535,4.636,0.173,6.333,2.063,9.275c3.271-0.665,7.002-1.769,9.274,0.516c0,1.03,0,2.06,0,3.091
						c1.319,0.055,2.457,0.291,3.091,1.029c-2.535,1.123-0.594,5.259-1.545,8.76c0.625,0.918,0.094,2.996,1.03,3.606
						c1.248,0.298,1.145,1.945,1.546,3.091c0.342,0,0.688,0,1.031,0c1.879,0.334,2.742-0.347,3.604-1.031
						c-0.146-0.831,0.489-0.887,0.516-1.547c-0.541-2.257,1.743-1.69,1.546-3.606c0.116-0.4,3.533-10.487,1.595-8.756
						c0.563-3.388,4.719-3.648,5.104-7.211c0.094-0.438-0.202-0.488-0.516-0.517c-3.194,0.279-3.302-2.537-4.637-4.121
						c-0.069-0.962-0.339-1.725-1.03-2.063c-0.063-0.216-0.064-0.495-0.129-0.708l2.705,2.254c1.322,0.053,0.829,1.92,1.546,2.576
						c0.514,0,1.029,0,1.545,0c1.201-0.173,2.221-0.528,2.575-1.545c0.16-1.215,1.789-0.957,1.545-2.577
						c-0.656-0.028-0.715-0.661-1.545-0.514c-0.344,0-0.688,0-1.027,0c-1.284-0.779-2.357-1.766-2.579-3.605
						c1.823-0.279,2.655,0.434,3.092,1.544c1.195-0.165,1.979,0.083,2.575,0.516c3.907-0.304,5.933,1.281,6.699,4.121
						c-0.015,1.732,0.709,2.725,1.543,3.605c1.602,2.092,0.641-1.651,1.031-2.574c0.63-1.487,3.434-2.294,5.153-3.607
						c0.878-0.672,0.938-2.584,1.546-1.545c0.343,0,0.686,0,1.031,0C90.408,30.51,86.404,21.805,78.859,16.641
						C76.334,17.496,86.404,21.805,78.859,16.641z M65.652,63.767c-0.001,0.013-0.003,0.024-0.003,0.037
						C65.65,63.791,65.652,63.781,65.652,63.767z M65.767,64.279c0.005,0.012,0.013,0.02,0.02,0.032
						C65.779,64.299,65.771,64.291,65.767,64.279z M65.664,64.018c0.003,0.015,0.005,0.026,0.009,0.041
						C65.669,64.044,65.667,64.032,65.664,64.018z M65.711,63.555c0.001-0.003,0.004-0.011,0.009-0.016
						C65.714,63.544,65.712,63.552,65.711,63.555z M65.832,63.336c0.004-0.008,0.01-0.017,0.016-0.024
						C65.842,63.319,65.836,63.328,65.832,63.336z M66.012,63.113c0.014-0.013,0.023-0.024,0.033-0.037
						C66.035,63.089,66.025,63.101,66.012,63.113z M66.247,62.888c0.012-0.014,0.027-0.025,0.042-0.037
						C66.274,62.862,66.259,62.874,66.247,62.888z M66.808,62.451c0.006-0.006,0.011-0.011,0.018-0.016
						C66.818,62.44,66.813,62.445,66.808,62.451z M66.523,62.66c0.01-0.01,0.02-0.016,0.031-0.024
						C66.543,62.645,66.533,62.65,66.523,62.66z M67.576,57.163c0.011,0.257,0.05,0.532,0.107,0.812
						C67.626,57.695,67.586,57.418,67.576,57.163z M67.806,58.473c0.035,0.138,0.076,0.272,0.115,0.403
						C67.882,58.745,67.841,58.61,67.806,58.473z M67.698,58.035c0.025,0.127,0.056,0.251,0.089,0.376
						C67.754,58.286,67.724,58.163,67.698,58.035z M67.576,57.069c0-0.095,0.003-0.185,0.012-0.274
						C67.579,56.885,67.576,56.975,67.576,57.069z M67.604,56.677c0.01-0.075,0.027-0.15,0.048-0.22
						C67.631,56.526,67.615,56.602,67.604,56.677z"/>
					<path fill="#006839" d="M61.24,71.294c-0.304,0-0.629-0.031-0.969-0.088h-1.32l-0.108-0.313
						c-0.119-0.341-0.196-0.71-0.27-1.067c-0.201-0.979-0.367-1.588-0.944-1.725l-0.079-0.019l-0.068-0.045
						c-0.713-0.466-0.794-1.437-0.864-2.294c-0.045-0.56-0.092-1.138-0.297-1.439l-0.121-0.181l0.055-0.204
						c0.361-1.325,0.283-2.738,0.211-4.109c-0.1-1.859-0.195-3.631,0.989-4.588c-0.507-0.297-1.261-0.461-2.315-0.505l-0.445-0.02
						v-3.341c-0.82-0.754-1.89-1.106-3.341-1.106c-1.381,0-2.905,0.327-4.381,0.64c-0.334,0.073-0.665,0.144-0.995,0.21l-0.31,0.065
						l-0.176-0.272c-1.904-2.964-2.685-4.767-2.132-9.553v-1.131l0.064-0.108c0.049-0.084,0.097-0.169,0.146-0.253
						c0.392-0.697,0.874-1.558,2.239-1.527c0.484-0.214,0.742-0.702,1.038-1.262c0.469-0.887,1.079-2.003,2.804-1.875
						c0.078-0.17,0.185-0.295,0.271-0.394c0.087-0.104,0.132-0.159,0.147-0.227l0.103-0.443l0.446,0.092
						c0.269,0.056,0.518,0.083,0.755,0.083c0.528,0,0.933-0.138,1.359-0.285c0.52-0.176,1.115-0.379,1.944-0.321l0.283,0.019
						l0.112,0.26c0.09,0.207,0.172,0.422,0.256,0.636c0.262,0.679,0.509,1.322,0.988,1.655c0.817-0.018,1.311,0.328,1.739,0.625
						c0.123,0.088,0.24,0.167,0.36,0.237c0.031-0.06,0.066-0.115,0.112-0.173c0.36-0.455,1.114-0.774,1.839-0.774
						c0.6,0,1.066,0.229,1.298,0.619c0.382,0.009,0.792-0.004,1.199-0.018c0.325-0.013,0.653-0.021,0.969-0.021
						c0.561,0,1.162,0.03,1.681,0.203v-1.772c0.002-0.064,0-0.091-0.003-0.103c-0.018,0.003-0.084-0.022-0.264-0.022
						c-0.215,0-0.488,0.035-0.75,0.073c-0.296,0.037-0.6,0.079-0.876,0.079c-0.161,0-0.645,0-0.95-0.327
						c-0.127-0.131-0.271-0.37-0.247-0.758c-0.027-0.973,0.439-1.665,1.35-1.962l0.145-0.023h4.092
						c-0.4-1.813-1.92-2.646-3.267-2.646c-1.178,0-2.654,0.698-2.939,2.665l-0.063,0.428l-0.432-0.03
						c-0.312-0.022-0.483,0.073-0.73,0.206c-0.307,0.167-0.694,0.385-1.353,0.309l-0.345-0.042l-0.059-0.342
						c-0.205-1.192-2.047-1.815-3.756-1.815c-1.839,0-3.901,0.718-4.083,2.303l-0.033,0.315l-0.305,0.084
						c-0.188,0.049-0.313,0.173-0.503,0.372c-0.246,0.257-0.549,0.578-1.088,0.666c-0.664,0.119-1.021-0.149-1.267-0.333
						c-0.161-0.117-0.237-0.17-0.378-0.175l-0.375-0.015L46.97,33.72c-0.37-2.14,1.327-2.442,2.445-2.646
						c0.419-0.075,0.851-0.152,1.171-0.294c0.017-0.372,0.013-0.778-0.131-0.798c-0.715-0.031-0.973-0.52-0.964-0.929
						c0.007-0.358,0.221-0.78,0.529-1.097c-0.026,0-0.046,0-0.067-0.002c-0.18-0.005-0.359-0.012-0.521-0.033l-0.277-0.038
						l-0.099-0.26c-0.145-0.384-0.083-0.882-0.02-1.366c0.034-0.283,0.1-0.809,0.023-0.931l-0.486,0.037l-0.061-0.465
						c-0.029-0.878,0.331-1.42,0.591-1.817l0.138-0.21h1.064l0.125,0.27c0.243,0.516,0.508,1.029,0.763,1.524
						c0.22,0.423,0.444,0.858,0.657,1.303c0.665-0.005,1.154-0.142,1.457-0.408l0.773-0.672v0.685
						c0.344-0.168,0.677-0.248,1.017-0.248c0.423,0,0.785,0.125,1.135,0.244c0.353,0.123,0.684,0.235,1.09,0.235
						c0.372,0,0.771-0.097,1.218-0.303c0.96-0.628,1.791-1.401,2.48-2.303c-1.262-0.276-1.369-1.155-1.503-2.223
						c-0.026-0.211-0.054-0.441-0.094-0.687c-0.996,0.28-2.028,1.042-1.74,3.508l0.021,0.166l-0.093,0.143
						c-0.182,0.279-0.474,0.653-0.906,0.653c-0.241,0-0.429-0.106-0.578-0.27l-0.075,0.343l-2.026-0.013
						c-0.921-0.209-1.474-1.403-1.414-2.382c0.059-0.917,0.623-1.54,1.471-1.626l0.514-0.051v0.334
						c0.589-0.306,1.073-0.729,1.579-1.175c0.99-0.87,2.114-1.854,4.15-1.854c0.499,0,1.047,0.059,1.625,0.176
						c0.847,0.247,1.106,0.985,1.315,1.576c0.218,0.622,0.356,0.913,0.697,0.991h0.358c1.322-0.655,2.931-1.014,4.482-1.362
						c0.911-0.205,1.853-0.413,2.706-0.678c0.359-0.117,0.965-0.077,1.534-0.012c0.29,0.032,0.565,0.065,0.8,0.065
						c0.42,0,0.425-0.085,0.43-0.147l0.029-0.516l0.509,0.08c0.691,0.11,0.795,0.766,0.855,1.159c0.019,0.115,0.049,0.3,0.084,0.372
						c0.885-0.208,0.969-0.627,1.102-1.308c0.146-0.74,0.348-1.75,1.859-2.265l0.386-0.343l0.249,0.22
						c7.33,5.605,11.088,13.144,14.892,23.588l0.229,0.626h-1.966l-0.024-0.042c-0.016,0.037-0.033,0.074-0.047,0.107
						c-0.203,0.458-0.456,1.03-0.924,1.386c-0.668,0.511-1.479,0.941-2.261,1.356c-1.187,0.63-2.414,1.281-2.744,2.063
						c-0.096,0.225-0.066,0.918-0.045,1.423c0.037,0.984,0.047,1.555-0.251,1.868c-0.123,0.126-0.282,0.194-0.451,0.194
						c-0.327,0-0.637-0.23-1.067-0.791c-0.863-0.911-1.653-2.009-1.657-3.844c-0.772-2.773-2.795-3.984-6.198-3.721l-0.168,0.012
						l-0.141-0.1c-0.592-0.428-1.293-0.562-2.238-0.431l-0.363,0.048l-0.134-0.34c-0.387-0.977-1.006-1.359-2.114-1.304
						c0.313,1.376,1.208,2.133,2.166,2.729h0.86c0.65-0.102,0.986,0.161,1.226,0.338c0.163,0.117,0.239,0.17,0.379,0.176
						l0.383,0.016l0.058,0.381c0.178,1.191-0.479,1.655-0.96,1.992c-0.358,0.25-0.544,0.398-0.587,0.713l-0.02,0.095
						c-0.469,1.333-1.821,1.69-2.95,1.852l-0.066,0.005h-1.728l-0.134-0.123c-0.397-0.365-0.513-0.929-0.615-1.426
						c-0.163-0.796-0.259-1.014-0.633-1.029l-0.158-0.005l-1.045-0.871c0.06,0.226,0.103,0.473,0.127,0.743
						c0.364,0.465,0.638,1.002,0.903,1.522c0.686,1.345,1.278,2.486,3.242,2.319l0.04-0.006l0.045,0.006
						c0.22,0.019,0.587,0.052,0.806,0.355c0.138,0.185,0.182,0.42,0.126,0.695c-0.223,1.997-1.373,3.027-2.489,4.024
						c-0.958,0.861-2.003,1.654-2.133,3.102c-0.2,2.199-1.096,4.471-2.064,8.81c0.078,1.093-0.538,1.577-0.993,1.933
						c-0.493,0.386-0.789,0.618-0.57,1.53l0.014,0.063l-0.003,0.065c-0.018,0.43-0.217,0.695-0.358,0.889
						c-0.146,0.196-0.211,0.285-0.164,0.558l0.048,0.272l-0.217,0.173C63.487,70.645,62.67,71.294,61.24,71.294z M59.627,70.273
						l0.767,0.006c0.301,0.054,0.586,0.081,0.847,0.081c0.998,0,1.58-0.385,2.191-0.864c-0.008-0.484,0.208-0.774,0.359-0.979
						c0.102-0.138,0.153-0.214,0.171-0.322c-0.316-1.439,0.397-1.996,0.921-2.404c0.436-0.34,0.699-0.549,0.631-1.187
						c-0.221-0.996,0.004-1.479,0.608-1.454l-0.008-0.008l0.008,0.008c1.336-3.194,1.121-7.173,1.483-7.577
						c0.337-1.714,1.397-2.664,2.422-3.586c1.029-0.921,2.004-1.794,2.186-3.443c-0.016-0.003-0.034-0.004-0.054-0.006
						c-2.584,0.208-3.391-1.413-4.108-2.827c-0.278-0.542-0.536-1.054-0.883-1.461l-0.098-0.115l-0.01-0.152
						c-0.089-1.208-0.482-1.536-0.771-1.677l-0.186-0.091l-0.057-0.199c-0.035-0.126-0.056-0.271-0.073-0.412
						c-0.014-0.102-0.026-0.203-0.055-0.289l-0.457-1.498l3.797,3.165c1.012,0.135,1.211,1.104,1.343,1.758
						c0.063,0.3,0.124,0.609,0.238,0.803h1.291c1.257-0.185,1.909-0.544,2.154-1.194c0.11-0.701,0.586-1.035,0.965-1.302
						c0.346-0.243,0.57-0.401,0.594-0.778c-0.199-0.075-0.348-0.185-0.467-0.274c-0.224-0.163-0.313-0.206-0.557-0.163l-0.083,0.007
						h-1.158l-0.111-0.068c-1.236-0.752-2.539-1.809-2.797-3.949l-0.054-0.448l0.447-0.067c1.691-0.26,2.818,0.237,3.448,1.505
						c0.961-0.079,1.742,0.098,2.417,0.54c3.813-0.248,6.151,1.262,7.02,4.476l0.018,0.063v0.063
						c-0.013,1.476,0.533,2.35,1.416,3.283l0.033,0.036c0.047,0.064,0.09,0.116,0.13,0.162c0.002-0.253-0.009-0.567-0.02-0.813
						c-0.029-0.721-0.06-1.407,0.119-1.825c0.461-1.085,1.774-1.781,3.166-2.52c0.749-0.401,1.523-0.812,2.132-1.276
						c0.278-0.211,0.476-0.66,0.636-1.021c0.211-0.474,0.41-0.922,0.876-0.922c0.256,0,0.44,0.154,0.563,0.304h0.117
						c-3.644-9.875-7.529-17.445-14.34-22.197c-0.803,0.342-0.903,0.849-1.027,1.482c-0.151,0.77-0.342,1.724-1.901,2.059
						l-0.05,0.01h-0.051c-0.835-0.008-0.96-0.791-1.019-1.168c-0.204,0.125-0.49,0.209-0.901,0.209c-0.291,0-0.603-0.035-0.905-0.07
						c-0.478-0.055-0.944-0.091-1.146-0.026c-0.898,0.279-1.856,0.492-2.782,0.701c-1.539,0.344-3.131,0.699-4.365,1.333
						l-0.099,0.053l-0.711-0.007c-0.943-0.173-1.223-0.966-1.449-1.606c-0.192-0.546-0.327-0.885-0.658-0.981
						C61.251,19.053,60.768,19,60.327,19c-1.687,0-2.583,0.789-3.536,1.624c-0.712,0.626-1.445,1.271-2.516,1.614l-0.608,0.192
						v-0.382c-0.069,0.118-0.109,0.268-0.122,0.45c-0.025,0.416,0.125,0.879,0.344,1.161l0.364-0.57
						c0.24-0.375,0.618-0.873,1.135-0.873c0.6,0,0.892,0.616,1.125,1.111c0.058,0.123,0.143,0.301,0.213,0.419
						c0.004-0.004,0.009-0.011,0.013-0.018c-0.306-3.206,1.442-4.195,2.982-4.456l0.446-0.077l0.087,0.443
						c0.097,0.463,0.147,0.868,0.19,1.226c0.149,1.214,0.18,1.464,1.425,1.493l0.838,0.019l-0.458,0.704
						c-0.844,1.293-1.931,2.381-3.226,3.226l-0.059,0.032c-0.585,0.273-1.123,0.404-1.642,0.404c-0.563,0-1.003-0.152-1.391-0.287
						c-0.306-0.105-0.565-0.195-0.834-0.195c-0.223,0-0.593,0.058-1.19,0.535l-0.759,0.605v-0.694
						c-0.445,0.156-0.983,0.218-1.614,0.19l-0.281-0.013l-0.121-0.255c-0.243-0.518-0.509-1.034-0.766-1.533
						c-0.211-0.409-0.431-0.83-0.638-1.258c-0.115,0.194-0.215,0.4-0.26,0.661c0.135,0.06,0.23,0.142,0.295,0.218
						c0.355,0.4,0.275,1.041,0.199,1.659c-0.028,0.21-0.056,0.453-0.061,0.645c0.028,0.003,0.055,0.003,0.082,0.003
						c0.523,0.015,1.402,0.042,1.52,0.889l0.095,0.685l-0.671-0.17c-0.022,0.01-0.179,0.098-0.327,0.29
						c-0.11,0.139-0.157,0.26-0.17,0.325c0.025,0.007,0.063,0.014,0.119,0.014c0.964,0.138,1.006,1.071,0.972,1.805
						c0.964-0.623,2.276-0.914,3.551-0.914c1.946,0,4.027,0.683,4.571,2.205c0.181-0.027,0.316-0.104,0.493-0.201
						c0.215-0.116,0.468-0.255,0.818-0.305c0.498-2.26,2.323-3.078,3.791-3.078c1.936,0,4.024,1.374,4.277,4l0.049,0.512h-5.076
						c-0.47,0.175-0.658,0.491-0.642,1.066c-0.004,0.074,0,0.103,0.001,0.115c0.017-0.002,0.084,0.023,0.266,0.023
						c0.213,0,0.486-0.037,0.749-0.073c0.294-0.038,0.601-0.079,0.877-0.079c0.159,0,0.643,0,0.95,0.327
						c0.127,0.131,0.271,0.372,0.249,0.757v3.682l-0.799-0.803c-0.355-0.36-1.157-0.405-1.814-0.405
						c-0.305,0-0.62,0.013-0.938,0.021c-0.545,0.021-1.09,0.039-1.583,0.006l-0.361-0.023l-0.068-0.355
						c-0.038-0.203-0.374-0.226-0.516-0.226c-0.428,0-0.924,0.185-1.103,0.417c-0.059,0.072-0.05,0.109-0.045,0.127l0.183,0.731
						l-0.738-0.167c-0.489-0.11-0.838-0.353-1.145-0.565c-0.398-0.278-0.706-0.488-1.301-0.453l-0.137,0.007l-0.12-0.068
						c-0.842-0.473-1.195-1.389-1.505-2.197c-0.041-0.11-0.084-0.219-0.129-0.328c-0.498,0.011-0.885,0.144-1.297,0.282
						c-0.456,0.158-0.975,0.333-1.658,0.333c-0.189,0-0.382-0.012-0.58-0.04c-0.056,0.083-0.112,0.148-0.163,0.207
						c-0.123,0.144-0.157,0.19-0.157,0.305l0.002,0.559l-0.549-0.098c-0.199-0.037-0.385-0.054-0.552-0.054
						c-0.924,0-1.235,0.502-1.704,1.389c-0.352,0.665-0.749,1.416-1.624,1.737l-0.093,0.032l-0.099-0.008
						c-0.798-0.051-1.069,0.333-1.474,1.048c-0.028,0.054-0.059,0.106-0.089,0.161l-0.002,0.956
						c-0.509,4.381,0.123,6.023,1.817,8.699c0.224-0.045,0.448-0.092,0.673-0.143c1.521-0.325,3.093-0.662,4.575-0.662
						c1.774,0,3.127,0.495,4.137,1.513l0.135,0.136v2.842c1.063,0.08,2.256,0.322,2.979,1.165l0.409,0.478l-0.573,0.256
						c-1.171,0.52-1.158,1.878-1.044,4.05c0.07,1.319,0.151,2.802-0.189,4.213c0.243,0.484,0.294,1.1,0.343,1.697
						c0.049,0.64,0.104,1.299,0.393,1.549c1.115,0.326,1.353,1.484,1.544,2.42C59.531,69.859,59.576,70.072,59.627,70.273z
						 M66.555,62.636l0.271,0.378L66.555,62.636z M47.853,33.254c0.209,0.075,0.364,0.189,0.49,0.28
						c0.222,0.165,0.31,0.205,0.552,0.163c0.229-0.037,0.359-0.166,0.574-0.387c0.164-0.174,0.357-0.378,0.637-0.52
						c0.082-0.373,0.229-0.708,0.432-1.003c-0.308,0.09-0.632,0.15-0.952,0.205C48.312,32.221,47.799,32.397,47.853,33.254z
						 M54.191,23.901h0.962c-0.141-0.062-0.431-0.086-0.553-0.097l-0.64-0.06C54.034,23.817,54.113,23.875,54.191,23.901z"/>
				</g>
				<g>
					<path fill="#2EA249" d="M25.96,18.487c0.838-0.152,1.389,0.698,0.518,1.031c0.092,0.438-0.203,0.485-0.518,0.514
						c0.291,0.742,0.803,1.258,1.546,1.545c3.253-0.849,2.13-2.791,0.515-4.635c0-0.517,0-1.03,0-1.547
						c1.456,0.427,1.336-0.726,2.576-0.515c1.213-0.011,1.519,0.886,3.091,0.515c1.908-0.362,1.286,1.807,2.061,2.578
						c-0.785,0.931-1.856,1.578-1.546,3.604c0.225,0.635,0.66,1.059,1.546,1.028c0.706-1.697,2.44-2.367,4.122-3.087
						c2.185-1.595,5.678-1.878,6.184-5.153c-0.716-1.174-3.586-0.192-5.153-0.515c-2.955-0.235-3.912,0.734-6.183,0
						c-0.171,0-0.345,0-0.516,0c-1.505,1.948-1.777-0.599-4.635,0c-1.204,0-2.404,0-3.606,0c-0.503,0.014-0.4,0.63-0.516,1.03
						c0.344,0,0.687,0,1.032,0c0.907,2.625-2.728,0.708-2.577,2.575C23.531,18.856,26.331,17.088,25.96,18.487z"/>
					<path fill="#006839" d="M35.67,23.08c-0.949,0-1.589-0.455-1.904-1.344l-0.022-0.084c-0.293-1.909,0.526-2.776,1.249-3.539
						c0.055-0.057,0.107-0.113,0.162-0.17c-0.171-0.315-0.254-0.686-0.334-1.046c-0.183-0.844-0.297-1.071-0.737-1.071
						c-0.091,0-0.193,0.01-0.307,0.033c-0.272,0.063-0.538,0.098-0.795,0.098c-0.593,0-1.004-0.183-1.369-0.345
						c-0.32-0.141-0.593-0.261-0.991-0.261l-0.101-0.007c-0.371-0.063-0.538,0.037-0.795,0.217c-0.278,0.19-0.646,0.432-1.236,0.396
						v0.813c0.964,1.119,1.854,2.398,1.499,3.554c-0.245,0.802-1.019,1.358-2.361,1.709l-0.146,0.04l-0.14-0.055
						c-0.866-0.335-1.477-0.946-1.812-1.81l-0.225-0.577l0.617-0.056c0.033-0.004,0.063-0.007,0.088-0.009l-0.07-0.335l0.374-0.142
						c0.058-0.023,0.097-0.046,0.121-0.063c-0.051-0.045-0.198-0.108-0.386-0.075l-0.721,0.135l0.186-0.705
						c-0.14,0.001-0.328,0.029-0.508,0.058c-0.221,0.032-0.448,0.066-0.661,0.066l0,0c-0.355,0-0.618-0.106-0.781-0.317
						c-0.153-0.198-0.195-0.453-0.127-0.766c-0.053-1.233,1.139-1.346,1.784-1.406c0.357-0.035,0.803-0.077,0.902-0.228
						c0.021-0.032,0.069-0.145,0.006-0.436h-1.299l0.172-0.595c0.024-0.084,0.035-0.183,0.045-0.278
						c0.042-0.32,0.138-1.067,0.906-1.091h3.571c0.312-0.06,0.613-0.092,0.9-0.092c0.949,0,1.595,0.34,2.064,0.59
						c0.258,0.134,0.478,0.25,0.638,0.25c0.183,0,0.42-0.19,0.713-0.565l0.14-0.183l0.886,0.024
						c0.544,0.176,1.039,0.256,1.554,0.256c0.46,0,0.893-0.061,1.396-0.132c0.605-0.088,1.293-0.185,2.163-0.185
						c0.315,0,0.637,0.015,0.964,0.039l0.057,0.009c0.458,0.096,1.253,0.05,2.01-0.013c0.457-0.038,0.93-0.078,1.365-0.078
						c0.681,0,1.633,0.086,2.082,0.819l0.088,0.147l-0.028,0.167c-0.388,2.523-2.417,3.461-4.205,4.29
						c-0.788,0.365-1.533,0.71-2.163,1.169l-0.09,0.052l-0.246,0.105c-1.561,0.665-3.03,1.294-3.628,2.735l-0.116,0.278L35.67,23.08
						z M34.659,21.463c0.158,0.417,0.395,0.62,0.799,0.67c0.803-1.576,2.419-2.268,3.983-2.938l0.199-0.085
						c0.693-0.497,1.497-0.87,2.276-1.229c1.672-0.776,3.255-1.507,3.644-3.388c-0.203-0.173-0.595-0.257-1.186-0.257
						c-0.398,0-0.851,0.036-1.289,0.073c-0.813,0.068-1.677,0.116-2.248,0.004c-0.29-0.023-0.58-0.035-0.862-0.035
						c-0.801,0-1.425,0.09-2.029,0.176c-0.517,0.071-1.002,0.141-1.527,0.141c-0.593,0-1.159-0.087-1.771-0.28h-0.218
						c-0.243,0.285-0.477,0.483-0.713,0.604c0.135-0.021,0.254-0.031,0.368-0.031c1.252,0,1.491,1.089,1.649,1.808
						c0.083,0.376,0.169,0.767,0.348,0.945l0.306,0.303l-0.278,0.328c-0.14,0.165-0.288,0.325-0.435,0.48
						C35.018,19.442,34.453,20.039,34.659,21.463z M26.627,20.319c0.224,0.339,0.524,0.592,0.912,0.769
						c0.899-0.257,1.419-0.606,1.554-1.038c0.24-0.782-0.697-1.972-1.421-2.801l-0.118-0.13v-2.343l0.599,0.173
						c0.173,0.051,0.325,0.076,0.452,0.076c0.245,0,0.382-0.094,0.587-0.235c0.308-0.214,0.695-0.491,1.444-0.375
						c0.594,0.009,0.997,0.186,1.35,0.343c0.243,0.106,0.458,0.202,0.719,0.243c-0.224-0.069-0.436-0.179-0.654-0.296
						c-0.428-0.224-0.912-0.481-1.631-0.481c-0.239,0-0.493,0.029-0.757,0.083l-0.095,0.01h-3.552
						c-0.008,0.028-0.015,0.062-0.021,0.099h0.814l0.107,0.314c0.232,0.672,0.228,1.181-0.015,1.559
						c-0.343,0.533-1.01,0.595-1.599,0.651c-0.928,0.087-0.962,0.176-0.937,0.48l0.006,0.081l-0.02,0.07
						c0.14-0.003,0.328-0.03,0.509-0.058c0.222-0.035,0.45-0.07,0.66-0.07c0.355,0,0.618,0.109,0.783,0.32
						c0.059,0.079,0.102,0.167,0.127,0.266c0.482,0.089,0.861,0.418,0.941,0.846c0.053,0.292-0.039,0.662-0.419,0.919
						c-0.019,0.13-0.065,0.245-0.139,0.348C26.76,20.215,26.696,20.274,26.627,20.319z"/>
				</g>
				<g>
					<path fill="#2EA249" d="M25.08,74.132c1.026-3.371,4.053-3.983,4.635-8.759c4.416-0.052,3.024-5.908,5.152-8.242
						c-0.182-0.677-0.906-0.812-1.029-1.548c-2.229-0.518-4.372-1.125-6.184-2.062c0-0.684,0-1.371,0-2.06l-0.305-0.203
						c0.666,0.197,0.013-0.365,0.305,0.203c0.172,0,0.343,0,0.516,0c-0.183-0.678-0.908-0.809-1.032-1.544c-0.171,0-0.342,0-0.516,0
						c-1.644,0.44-1.592-0.813-2.573-1.033c-0.519,0.003-0.615-0.416-1.032-0.515c-2.748-0.176-3.586,0.076-5.151-0.514
						c-1.234,0.312-2.351,0.741-4.121,0.514c-0.884-1.305,0.826-3.157-1.546-3.606c0-1.03,0-2.061,0-3.092
						c-1.606-0.363-2.219,2.883-3.606,1.029c-0.03-0.314-0.078-0.608-0.516-0.514c0,0.171,0,0.344,0,0.514
						c-1.48-1.017,0.179-3.214,0-4.635c1.547-0.684,3.942-0.523,6.184-0.516c0,0.172,0,0.344,0,0.516
						c0.466,0.898,1.151,1.984,2.061,1.029c0-0.341,0-0.686,0-1.029c-0.942-1.144,2.171-2.617,3.091-3.607c0-0.17,0-0.342,0-0.513
						c0.591-1.813,2.922-1.887,3.605-3.607c1.366-0.01,3.035,0.285,3.092-1.031c-1.534-0.913,0.298-2.744,2.062-2.061
						c0-0.171,0-0.343,0-0.514c1.509-0.438-0.311-1.66,0-2.578c-1.024,0.194-2.053-0.936-3.093-2.06
						c-1.473,1.962-2.016,4.853-5.153,5.151c0.045-0.729,0.085-1.458-0.513-1.543c0-0.173,0-0.344,0-0.514c0.173,0,0.343,0,0.513,0
						c0.381-1.757-1.896-0.851-2.06-2.065c0.688-0.514,1.554-0.847,2.06-1.543c0.418-0.097,0.516-0.516,1.031-0.515
						c-0.801-1.833,1.75-0.311,1.546-1.545c-0.498-1.274-1.979,0.709-3.605,0c-0.601,0.084-0.919-0.115-1.031-0.516
						C11.718,25.566,7.498,34.053,5.5,44.766c0.678-0.618,0.811-0.201,1.546,0c0,0.172,0,0.342,0,0.517
						c0.418,0.099,0.514,0.517,1.031,0.514c0.644-0.941,3.016,0.728,3.606,1.547c1.011-0.155,1.021,0.695,1.547,1.028
						c0.164,1.207,2.244,0.5,2.574,1.546c0,0.514,0,1.031,0,1.547c-1.526,1.751-2.134,4.751,0,6.182
						c0.611,1.792,0.941,3.866,3.091,4.12c1.538,0.354,1.726,2.052,1.546,4.125c1.188,1.556,0.18,5.313,0.513,7.726
						c1.935,0.985,0.974,4.866,2.576,6.182C25.902,78.732,22.604,74.606,25.08,74.132z"/>
					<path fill="#006839" d="M23.46,80.343l-0.223-0.184c-0.889-0.732-1.093-2.023-1.292-3.275c-0.198-1.251-0.384-2.438-1.2-2.852
						l-0.217-0.111l-0.03-0.242c-0.135-0.961-0.066-2.108,0-3.221c0.101-1.699,0.206-3.456-0.427-4.287l-0.109-0.145l0.015-0.178
						c0.201-2.289-0.148-3.376-1.164-3.624c-2.137-0.27-2.71-2.098-3.217-3.712c-0.062-0.192-0.122-0.384-0.187-0.575
						c-0.795-0.583-1.284-1.417-1.417-2.422c-0.184-1.387,0.33-2.99,1.343-4.225v-1.284c-0.098-0.179-0.407-0.246-0.885-0.331
						c-0.573-0.101-1.414-0.254-1.642-1.04c-0.163-0.145-0.276-0.31-0.38-0.46c-0.238-0.348-0.337-0.427-0.675-0.376l-0.282,0.043
						l-0.166-0.23c-0.433-0.599-1.894-1.633-2.63-1.633c-0.162,0-0.198,0.051-0.214,0.076l-0.139,0.204H8.078
						c-0.465,0-0.733-0.227-0.911-0.379c-0.103-0.087-0.16-0.133-0.228-0.148l-0.358-0.085v-0.552
						c-0.085-0.034-0.16-0.068-0.226-0.099c-0.093-0.045-0.203-0.092-0.242-0.092c-0.003,0-0.078,0-0.298,0.202l-0.583,1.046
						l-0.19-1.476c1.954-10.495,3.59-15.63,12.485-25.993l0.563-0.604l0.223,0.793c0.03,0.096,0.057,0.195,0.329,0.195
						c0.059,0,0.123-0.005,0.191-0.012l0.129-0.021l0.119,0.054c0.563,0.244,1.229,0.032,1.83-0.203
						c0.362-0.142,0.703-0.275,1.033-0.275c0.323,0,0.756,0.126,0.993,0.735l0.026,0.093c0.049,0.312-0.009,0.568-0.174,0.764
						c-0.28,0.329-0.741,0.329-1.017,0.329h-0.229c-0.135,0-0.218,0.006-0.271,0.013c0.01,0.06,0.039,0.167,0.11,0.33l0.288,0.656
						l-0.716-0.002c-0.117,0-0.163,0.035-0.306,0.157c-0.107,0.091-0.248,0.211-0.441,0.29c-0.383,0.467-0.884,0.774-1.372,1.066
						c-0.124,0.078-0.246,0.153-0.361,0.226c0.102,0.06,0.27,0.11,0.55,0.18c0.581,0.145,1.665,0.415,1.358,1.836l-0.082,0.367
						h-0.13c0.19,0.284,0.238,0.669,0.24,1.044c1.681-0.38,2.432-1.729,3.22-3.148c0.327-0.584,0.664-1.193,1.071-1.734l0.339-0.448
						l0.416,0.453c0.917,0.991,1.843,2.019,2.625,1.877l0.783-0.148l-0.256,0.753c-0.06,0.182,0.128,0.537,0.279,0.822
						c0.228,0.432,0.485,0.919,0.282,1.399c-0.098,0.225-0.272,0.399-0.535,0.529v0.875l-0.634-0.247
						c-0.202-0.077-0.413-0.117-0.626-0.117c-0.684,0-1.254,0.407-1.357,0.785c-0.021,0.078-0.087,0.311,0.33,0.558l0.24,0.141
						l-0.013,0.28c-0.065,1.499-1.681,1.499-2.289,1.499c-0.203,0-0.411-0.005-0.618-0.01c-0.118-0.003-0.238-0.007-0.355-0.01
						c-0.428,0.792-1.166,1.251-1.826,1.659c-0.719,0.445-1.343,0.833-1.608,1.56v0.619l-0.125,0.134
						c-0.305,0.328-0.792,0.68-1.308,1.051c-0.749,0.538-1.773,1.276-1.833,1.749c-0.007,0.049-0.002,0.108,0.065,0.193l0.107,0.129
						v1.385l-0.127,0.134c-0.326,0.342-0.674,0.514-1.038,0.514c-0.809,0-1.351-0.833-1.777-1.651l-0.05-0.099v-0.167
						c-0.192-0.001-0.386-0.004-0.578-0.008c-0.403-0.006-0.808-0.011-1.204-0.011c-1.234,0-2.498,0.05-3.458,0.384
						c-0.015,0.514-0.172,1.06-0.326,1.591c-0.221,0.757-0.365,1.338-0.275,1.768l0.026-0.007c0.592-0.129,0.959,0.152,1.06,0.784
						c0.154,0.188,0.299,0.295,0.394,0.295c0.178,0,0.485-0.323,0.733-0.583c0.446-0.467,1.001-1.05,1.781-1.05
						c0.118,0,0.237,0.015,0.354,0.042l0.365,0.083v3.097c1.464,0.433,1.369,1.53,1.299,2.345c-0.038,0.433-0.074,0.846,0.071,1.191
						c0.229,0.02,0.452,0.032,0.675,0.032c0.948,0,1.689-0.202,2.475-0.416c0.188-0.047,0.378-0.1,0.568-0.147l0.142-0.036
						l0.136,0.05c0.985,0.373,1.644,0.384,2.841,0.407c0.57,0.01,1.278,0.022,2.176,0.08l0.078,0.012
						c0.29,0.067,0.479,0.228,0.618,0.345c0.14,0.122,0.188,0.156,0.3,0.156l0.105,0.012c0.511,0.113,0.811,0.425,1.055,0.677
						c0.276,0.286,0.438,0.437,0.793,0.437c0.144,0,0.314-0.028,0.505-0.079l0.121-0.017h0.909l0.066,0.39
						c0.038,0.224,0.167,0.355,0.389,0.568c0.228,0.216,0.513,0.486,0.631,0.936l0.16,0.586H28.12v1.308
						c1.841,0.902,3.969,1.465,5.822,1.894l0.304,0.071l0.05,0.306c0.038,0.223,0.166,0.354,0.389,0.567
						c0.227,0.218,0.512,0.487,0.631,0.934l0.067,0.248l-0.173,0.189c-0.719,0.79-1.012,2.132-1.295,3.433
						c-0.482,2.205-1.025,4.693-3.793,4.943c-0.414,2.649-1.604,4.058-2.662,5.308c-0.787,0.934-1.533,1.813-1.936,3.139
						l-0.083,0.27l-0.276,0.053c-0.682,0.13-0.709,0.584-0.441,2.073c0.23,1.282,0.515,2.881-1.001,3.563L23.46,80.343z
						 M21.394,73.33c1.042,0.689,1.261,2.069,1.473,3.41c0.147,0.935,0.3,1.9,0.742,2.472c0.502-0.424,0.407-1.214,0.199-2.387
						c-0.203-1.122-0.473-2.636,0.907-3.081c0.472-1.371,1.268-2.308,2.035-3.219c1.073-1.266,2.183-2.58,2.503-5.207l0.048-0.406
						l0.409-0.004c2.376-0.027,2.801-1.975,3.294-4.227c0.285-1.311,0.581-2.661,1.32-3.627c-0.066-0.097-0.16-0.188-0.282-0.305
						c-0.201-0.193-0.44-0.422-0.579-0.774c-1.934-0.455-4.125-1.058-6.023-2.038l-0.253-0.131l0.19-2.701l-4.085-1.99l0.038,0.01
						c-0.075-0.051-0.139-0.106-0.192-0.152c-0.088-0.075-0.143-0.118-0.201-0.14c-0.851-0.055-1.503-0.065-2.082-0.077
						c-1.166-0.021-1.952-0.037-3.015-0.414c-0.138,0.038-0.273,0.072-0.41,0.111c-0.682,0.183-1.384,0.375-2.229,0.43
						c0.453,0.126,0.879,0.357,1.049,0.893l0.02,0.14v1.719l-0.115,0.133c-0.906,1.04-1.392,2.466-1.237,3.627
						c0.104,0.798,0.489,1.423,1.147,1.862l0.128,0.086l0.051,0.149c0.083,0.244,0.16,0.494,0.239,0.741
						c0.487,1.547,0.905,2.884,2.465,3.068l0.052,0.009c1.947,0.447,2.066,2.58,1.919,4.447c0.725,1.12,0.618,2.887,0.506,4.756
						C21.371,71.49,21.311,72.5,21.394,73.33z M11.912,46.855c0.548,0,0.87,0.26,1.087,0.521c-0.003-0.249,0.018-0.492,0.035-0.713
						c0.076-0.882,0.108-1.245-0.922-1.44l-0.379-0.073v-3.002c-0.304,0.106-0.603,0.417-0.891,0.722
						c-0.409,0.428-0.833,0.874-1.41,0.874c-0.31,0-0.604-0.129-0.886-0.395v0.242l-0.731-0.505
						c-1.217-0.836-0.808-2.243-0.481-3.374c0.166-0.573,0.337-1.164,0.282-1.587L7.61,38.084c-0.58,1.895-1.074,3.856-1.482,5.891
						c0.237,0.003,0.43,0.09,0.617,0.175c0.126,0.058,0.259,0.118,0.427,0.166l0.341,0.095v0.568
						c0.104,0.064,0.187,0.133,0.258,0.193c0.064,0.056,0.109,0.093,0.149,0.117c0.169-0.132,0.414-0.24,0.757-0.24
						c1.067,0,2.569,1.087,3.213,1.807C11.896,46.855,11.904,46.855,11.912,46.855z M14.727,37.95c0.46,0.864,0.741,1.05,0.894,1.05
						c0.066,0,0.146-0.038,0.234-0.106v-0.68c-0.143-0.231-0.199-0.49-0.164-0.757c0.112-0.872,1.179-1.641,2.209-2.386
						c0.406-0.291,0.788-0.568,1.046-0.806l0.023-0.465c0.357-1.094,1.245-1.644,2.027-2.127c0.676-0.418,1.313-0.813,1.589-1.509
						l0.117-0.291l0.376-0.003c0.201,0,0.408,0.007,0.618,0.013c0.198,0.005,0.395,0.01,0.591,0.01c0.931,0,1.222-0.157,1.316-0.375
						c-0.451-0.378-0.629-0.889-0.483-1.416c0.256-0.926,1.438-1.595,2.588-1.452V26.38l0.335-0.098
						c0.225-0.063,0.273-0.126,0.274-0.127c0.015-0.09-0.151-0.409-0.251-0.597c-0.145-0.276-0.313-0.595-0.373-0.933
						c-0.906-0.123-1.721-0.897-2.56-1.791c-0.236,0.368-0.454,0.759-0.68,1.167c-0.904,1.624-1.927,3.464-4.479,3.707l-0.542,0.052
						l0.032-0.545c0.025-0.409,0.062-1.028-0.115-1.055l-0.4-0.057v-1.386h0.555c-0.042-0.185-0.235-0.246-0.699-0.361
						c-0.512-0.127-1.282-0.32-1.397-1.171l-0.035-0.273l0.217-0.162c0.248-0.186,0.513-0.349,0.769-0.503
						c0.471-0.286,0.914-0.558,1.195-0.944l0.103-0.142l0.169-0.039c0.067-0.017,0.125-0.061,0.226-0.149
						c0.081-0.072,0.185-0.156,0.315-0.229c-0.047-0.239-0.042-0.495,0.093-0.714c-0.508,0.132-1.104,0.155-1.622-0.038
						c-0.435,0.038-0.768-0.051-1.021-0.249c-4.517,4.953-7.896,10.973-10.09,17.968l0.166-0.074
						c1.146-0.507,2.66-0.579,4.125-0.579c0.401,0,0.807,0.007,1.215,0.015c0.345,0.003,0.691,0.008,1.033,0.01l0.466,0.002V37.95
						L14.727,37.95z M21.674,19.601h0.097c0.12,0,0.198-0.003,0.25-0.007c-0.027-0.046-0.049-0.046-0.078-0.046
						C21.875,19.547,21.781,19.568,21.674,19.601z"/>
				</g>
				<g>
					<path fill="#2EA249" d="M62.027,88.175c-11.195-1.61-24.416,8.707-32.459-1.028c-2.033,0.946,0.676,1.283-0.517,2.575
						c0.03,0.314,0.077,0.61,0.517,0.516c11.84,6.039,34.699,5.508,43.793-2.577C69.341,85.462,67.165,88.718,62.027,88.175z"/>
					<path fill="#006839" d="M49.729,94.777C49.729,94.777,49.729,94.777,49.729,94.777c-7.743,0-15.107-1.479-20.24-4.059
						c-0.54,0.041-0.839-0.288-0.901-0.955l-0.02-0.206l0.143-0.152c0.295-0.319,0.224-0.411-0.037-0.752
						c-0.183-0.241-0.436-0.57-0.331-0.988c0.088-0.36,0.406-0.65,1.027-0.942l0.328-0.151l0.23,0.278
						c2.292,2.774,5.155,4.069,9.009,4.069c3.068,0,6.336-0.794,9.797-1.633c3.546-0.86,7.21-1.75,10.74-1.75
						c0.911,0,1.793,0.062,2.621,0.182c0.354,0.036,0.729,0.056,1.095,0.056c1.621,0,2.909-0.376,4.151-0.737
						c1.079-0.317,2.095-0.613,3.194-0.613c1.034,0,2.031,0.271,3.051,0.832l0.58,0.315l-0.493,0.438
						C68.905,92.247,59.955,94.777,49.729,94.777z M29.632,89.746l0.147,0.075c5.012,2.556,12.283,4.022,19.948,4.022h0.001
						c9.63,0,18.065-2.261,22.784-6.076c-0.661-0.28-1.304-0.414-1.979-0.414c-0.964,0-1.878,0.269-2.931,0.574
						c-1.249,0.362-2.663,0.777-4.415,0.777c-0.397,0-0.806-0.023-1.212-0.066c-0.802-0.115-1.638-0.174-2.504-0.174
						c-3.418,0-7.028,0.877-10.52,1.725c-3.519,0.854-6.84,1.658-10.018,1.658c-4.018,0-7.042-1.309-9.482-4.117
						c-0.107,0.066-0.163,0.115-0.189,0.145c0.031,0.055,0.102,0.147,0.149,0.211c0.234,0.305,0.691,0.903,0.206,1.661
						L29.632,89.746z"/>
				</g>
			</g>
		</g>
		<path opacity="0.63" fill="#9EDAE5" d="M17.484,18.313c0,0-0.554,12.91,3.881,10.68c4.438-2.232,12.122-2.012,12.445,0.287
			c0.323,2.298,0.413,6.34,2.953,5.206c2.541-1.131,9.249-3.536,11.049-1.603c1.796,1.933-0.285,5.747,1.988,5.615
			c2.271-0.133,10.902-3.381,13.777-4.584c2.878-1.204,1.747-1.092,3.523,2.084c1.777,3.176,2.915,5.003,4.402,4.479
			c1.486-0.523,4-2.596,5.132-3.243c1.132-0.646,7.272,3.255,7.758,3.243c0.483-0.01-0.646,7.77-3.718,4.364
			c-3.07-3.406-4.955-3.579-5.467-2.165c-0.512,1.414-5.015,3.576-6.37,2.238c-1.354-1.339-1.092-5.396-4.808-4.438
			c-3.716,0.958-8.413,0.931-14.23,0.768c-5.819-0.159-3.548-3.661-4.838-5.248c-1.294-1.589-4.327,0.663-6.304,1.722
			c-1.976,1.058,3.233,7.11-1.131,5.818c-4.363-1.293-3.556-1.191-6.787-5.04c-3.233-3.849-4.201-6.622-5.979-2.571
			c-1.778,4.054-1.941,5.023-2.424,6.155C21.851,43.214,5.13,41.434,7.35,35.213C9.57,28.993,13.08,22.785,17.484,18.313z"/>
		<path opacity="0.63" fill="#9EDAE5" d="M89.586,30.727c0,0,0.921,24.464-9.72,20.482c-10.639-3.982-12.604-2.817-16.159-1.771
			c-3.556,1.049-16.636-2.546-18.584-3.734c-1.95-1.188-3.395-0.768-7.111,3.139c-3.717,3.906,0.646,6.731-5.496,5.076
			c-6.141-1.656-6.302-2.226-6.463,0.483c-0.162,2.71,3.819,2.19-1.131,4.618c-4.95,2.428-4.891,5.622-6.686,2.232
			c-1.793-3.389-3.9-2.85-1.919-5.596c1.979-2.747-4.646,1.373-1.738,5.131c2.908,3.758,3.51,6.441,6.603,5.262
			c3.095-1.181,3.74-2.767,5.356-4.074c1.615-1.309,2.93-5.342,4.847-2.334c1.918,3.007,1.755,4.59,3.543,3.779
			c1.789-0.814,3.496-2.706,1.834-3.779c-1.66-1.074-1.727,0.417-1.66-1.074c0.066-1.493-0.323-0.971,3.395-1.455
			c3.716-0.485,3.116,1.292,5.113-0.97c1.997-2.262-4.297-3.648,2.89-3.117c7.186,0.532-1.824-0.076,9.612,1.661
			c11.435,1.739,13.072-2.353,18.01-1.661c4.938,0.692,2.999,1.5,7.522,2.794c4.524,1.293,3.289,3.717,5.846,1.293
			c2.557-2.425,5.408-5.184,6.269-5.902c0.861-0.719,0.876-2.675,0.876-2.675S93.302,38.915,89.586,30.727z"/>
		<path opacity="0.63" fill="#9EDAE5" d="M10.815,71.448c0,0,29.22,5.601,32.33,0.56c3.107-5.04,4.114-3.89,8.864-1.555
			c4.748,2.333,5.071,3.222,9.112,3.264c4.04,0.039,15.19,0.468,15.677-0.635c0.482-1.104-6.305,5.361-15.838,2.613
			c-9.535-2.747-11.476-2.749-12.605-0.809c-1.131,1.939-2.748,4.558-5.981,4.543c-3.23-0.019-7.109,2.117-8.402,0
			c-1.292-2.117-5.591-2.998-7.433-1.8c-1.842,1.2-6.366,5.374-6.366,5.374S14.006,78.431,10.815,71.448z"/>
	</g>
</g>
</svg>
