<?xml version="1.0" encoding="utf-8"?>
<!-- Generator: Adobe Illustrator 15.1.0, SVG Export Plug-In . SVG Version: 6.00 Build 0)  -->
<!DOCTYPE svg PUBLIC "-//W3C//DTD SVG 1.1//EN" "http://www.w3.org/Graphics/SVG/1.1/DTD/svg11.dtd">
<svg version="1.1" id="Layer_1" xmlns="http://www.w3.org/2000/svg" xmlns:xlink="http://www.w3.org/1999/xlink" x="0px" y="0px"
	 width="100px" height="100px" viewBox="0 0 100 100" enable-background="new 0 0 100 100" xml:space="preserve">
<g>
	<g>
		<circle fill="#CCECFC" cx="60.463" cy="18.619" r="7.936"/>
		<polygon fill="#00FFFF" points="25.311,43.773 34.628,30.5 58.481,30.5 69.876,44.5 84.5,44.5 84.5,51.5 67.817,51.5 
			58.064,40.239 53.636,52.152 69.668,87.5 60.351,87.5 47.279,56.172 37.701,77.372 15.544,64.938 21.706,59.327 34.216,68.656 
			39.238,52.656 46.808,38.5 36.081,38.5 31.674,47.467 		"/>
	</g>
	<g>
		<path fill="#CCECFC" d="M36.081,38.5h10.727l-7.569,14.132l-0.297,0.729c5.311-3.412,11.754-6.901,17.986-9.644l1.137-3.328
			l1.424,1.541c2.255-0.867,4.824-1.023,7.106-1.666L58.481,30.5H34.628l-9.317,13.273l6.363,3.693L36.081,38.5z"/>
		<path fill="#CCECFC" d="M25.904,62.386l-4.198-3.145l-6.162,5.525l4.427,2.449C21.432,65.965,23.449,64.298,25.904,62.386z"/>
	</g>
</g>
</svg>
