<?xml version="1.0" encoding="utf-8"?>
<!-- Generator: Adobe Illustrator 15.1.0, SVG Export Plug-In . SVG Version: 6.00 Build 0)  -->
<!DOCTYPE svg PUBLIC "-//W3C//DTD SVG 1.1//EN" "http://www.w3.org/Graphics/SVG/1.1/DTD/svg11.dtd">
<svg version="1.1" id="Layer_1" xmlns="http://www.w3.org/2000/svg" xmlns:xlink="http://www.w3.org/1999/xlink" x="0px" y="0px"
	 width="100px" height="100px" viewBox="0 0 100 100" enable-background="new 0 0 100 100" xml:space="preserve">
<g>
	<g>
		<g>
			<path fill="#ED2029" d="M61.969,38.458c-2.248-2.152-4.434-4.08-4.434-4.08l0,0l1.325-3.049l-6.65-2.249l-1.006,3.11
				c0,0-3.109,0.239-5.023,0.383s-4.02,0.718-5.407,4.163C39.387,40.182,25.961,76.07,25.961,76.07s1.148,2.535,11.101,6.028
				s11.483,1.818,11.483,1.818L63.07,43.77C63.07,43.77,64.219,40.612,61.969,38.458z"/>
			<path fill="#BF1A1D" d="M46.637,84.496L46.637,84.496c-2.156,0-5.497-0.731-9.661-2.193c-9.942-3.489-11.202-6.039-11.251-6.146
				l-0.044-0.088l0.038-0.096c0.134-0.358,13.441-35.929,14.814-39.337c1.429-3.546,3.646-4.174,5.628-4.323
				c1.644-0.123,4.171-0.316,4.851-0.369l1.031-3.193l7.168,2.423l-1.363,3.134c0.521,0.463,2.398,2.143,4.301,3.963
				c2.345,2.245,1.215,5.452,1.165,5.588L48.771,84.054l-0.035-0.003C48.662,84.133,48.213,84.496,46.637,84.496z M26.248,76.044
				c0.311,0.454,2.241,2.856,10.899,5.895c5.191,1.822,8.025,2.29,9.489,2.29l0,0c1.129,0,1.57-0.309,1.689-0.385l14.5-40.12
				c0.011-0.03,1.061-3.05-1.036-5.057c-2.219-2.125-4.405-4.065-4.427-4.085l-0.142-0.13l1.288-2.965l-6.135-2.075l-0.978,3.024
				l-0.173,0.013c0,0-3.11,0.239-5.024,0.383s-3.867,0.728-5.186,4.001C39.684,40.139,27.096,73.78,26.248,76.044z"/>
		</g>
		<g>
			<path fill="#C7C8CA" d="M28.971,55.168c0,0,13.975,9.4,26.904,8.487c0,0,1.486,3.679-1.738,4.806c0,0-19.83-1.11-26.776-10.262
				C27.36,58.199,26.902,54.375,28.971,55.168z"/>
			<path fill="#807A78" d="M54.166,68.671l-0.041-0.003c-0.05-0.003-5.043-0.295-10.82-1.705
				c-5.349-1.305-12.484-3.862-16.109-8.639l-0.035-0.045l-0.006-0.056c-0.011-0.088-0.25-2.17,0.494-3.009
				c0.335-0.377,0.815-0.464,1.396-0.24l0.023,0.009l0.02,0.013c0.031,0.021,3.222,2.155,7.879,4.261
				c4.293,1.94,10.744,4.253,17.105,4.253c0.604,0,1.206-0.021,1.789-0.062l0.149-0.011l0.057,0.14
				c0.031,0.077,0.753,1.898,0.059,3.429c-0.35,0.772-0.996,1.328-1.921,1.65L54.166,68.671z M27.561,58.119
				c3.561,4.647,10.572,7.154,15.835,8.439c5.465,1.334,10.222,1.662,10.712,1.693c0.791-0.286,1.343-0.762,1.64-1.415
				c0.518-1.141,0.132-2.525-0.014-2.964c-0.544,0.034-1.102,0.052-1.661,0.052c-6.439,0-12.952-2.335-17.283-4.293
				c-4.492-2.031-7.631-4.091-7.912-4.278c-0.402-0.147-0.701-0.107-0.917,0.137C27.46,56.053,27.497,57.527,27.561,58.119z"/>
		</g>
		<g>
			<g>
				<path fill="#4D4D4D" d="M25.574,66.091l-2.287-2.11c8.091-8.771,7.998-9.519,6.848-18.659c-0.133-1.056-0.282-2.253-0.434-3.568
					c-0.717-6.249,0.174-11.138,2.646-14.527c2.044-2.802,5.146-4.58,9.222-5.285c6.918-1.195,13.226,3.176,13.49,3.362l-1.79,2.546
					c-0.055-0.038-5.54-3.814-11.17-2.841c-3.297,0.569-5.664,1.896-7.238,4.052c-1.997,2.739-2.693,6.891-2.068,12.339
					c0.148,1.298,0.299,2.486,0.431,3.535c0.604,4.806,0.968,7.706-0.032,10.682C32.193,58.584,29.94,61.358,25.574,66.091z"/>
			</g>
		</g>
		<g>
			<path fill="#4D4D4D" d="M29.043,57.074l-9.993,6.677c0,0-1.243,6.881,6.052,6.466l6.179-10.912L29.043,57.074z"/>
		</g>
		<g>
			<path fill="#C9CACC" d="M57.34,20.884l-1.557,4.201l4.979,3.579l6.38,19.504c0,0,2.956-1.454,1.245-6.59
				c-1.712-5.135-3.891-15.024-4.979-15.525c0,0,0.622-1.746,2.956-1.435c2.334,0.311,9.958,1.435,9.958,1.435
				s5.914-1.69,3.58-2.886C79.902,23.167,62.63,19.794,57.34,20.884z"/>
			<path fill="#807A78" d="M67.05,48.387l-6.419-19.626l-5.034-3.618l1.627-4.395l0.084-0.017c0.708-0.146,1.669-0.22,2.854-0.22
				c6.872,0,19.643,2.478,19.771,2.503l0.021,0.005l0.02,0.01c0.447,0.229,0.658,0.503,0.627,0.817
				c-0.111,1.146-3.813,2.235-4.233,2.355l-0.032,0.009L76.3,26.207c-0.076-0.012-7.649-1.127-9.956-1.435
				c-0.178-0.024-0.353-0.036-0.519-0.036c-1.483,0-2.067,0.938-2.225,1.263c0.695,0.628,1.605,3.799,2.977,8.796
				c0.66,2.402,1.343,4.888,1.958,6.734c0.901,2.705,0.503,4.397,0.01,5.342c-0.543,1.039-1.302,1.421-1.334,1.437L67.05,48.387z
				 M55.97,25.028l4.925,3.538l6.334,19.366c0.237-0.162,0.698-0.54,1.05-1.225c0.657-1.275,0.644-3.032-0.039-5.08
				c-0.618-1.854-1.301-4.344-1.962-6.751c-1.08-3.934-2.304-8.393-2.935-8.683l-0.13-0.06L63.262,26
				c0.006-0.016,0.584-1.574,2.563-1.574c0.18,0,0.368,0.013,0.56,0.038c2.23,0.297,9.375,1.349,9.928,1.43
				c1.516-0.437,3.909-1.378,3.978-2.077c0.017-0.171-0.131-0.339-0.439-0.5c-0.603-0.116-12.981-2.494-19.689-2.494
				c-1.117,0-2.026,0.066-2.706,0.197L55.97,25.028z"/>
		</g>
		<g>
			<path fill="#C7C8CA" d="M62.993,22.473c0,0,5.757-6.062,4.823-6.133c-0.934-0.073-7.157,6.133-7.157,6.133
				S60.312,25.418,62.993,22.473z"/>
			<path fill="#807A78" d="M61.196,24.031L61.196,24.031c-0.192,0-0.36-0.096-0.486-0.236c-0.354-0.4-0.269-1.243-0.257-1.337
				l0.008-0.076l0.051-0.054c0.016-0.016,1.561-1.621,3.207-3.141C67.101,16.066,67.608,16,67.8,16c0.011,0,0.022,0,0.033,0
				c0.129,0,0.228,0.146,0.271,0.259c0.074,0.192,0.199,0.549-2.404,3.52c-1.248,1.425-2.543,2.827-2.556,2.841
				C62.303,23.543,61.665,24.031,61.196,24.031z M60.857,22.566c-0.022,0.292,0.002,0.75,0.164,0.932
				c0.047,0.052,0.1,0.076,0.175,0.076l0,0c0.191,0,0.66-0.162,1.644-1.242c2.242-2.361,4.553-5.039,4.842-5.759
				C66.797,16.902,63.259,20.177,60.857,22.566z"/>
		</g>
		<g opacity="0.44">
			<polygon fill="#404042" points="61.7,25.453 68.115,46.463 67.143,48.168 60.899,29.08 56.374,23.771 			"/>
		</g>
		<g opacity="0.44">
			<path fill="#404042" d="M63.693,25.561c0,0-0.605-2.092,3.16-1.794c3.766,0.299,12.1,1.308,12.1,1.308l-2.631,0.979
				c0,0-8.378-1.69-10.162-1.393C64.376,24.957,63.693,25.561,63.693,25.561z"/>
		</g>
		<g>
			<polygon fill="#8D9092" points="49.133,26.01 52.631,28.091 54.422,24.092 51.098,22.478 			"/>
			<path fill="#4F5254" d="M52.726,28.388l-3.872-2.303l2.158-3.88l3.682,1.787L52.726,28.388z M49.412,25.936l3.125,1.857
				l1.614-3.603l-2.968-1.44L49.412,25.936z"/>
		</g>
		<g>
			<circle fill="#FFFFFF" cx="56.548" cy="27.867" r="4.099"/>
			<path fill="#BF1A1D" d="M56.545,32.381c-2.426,0-4.404-1.898-4.508-4.323c-0.105-2.487,1.832-4.597,4.319-4.701
				c2.513-0.106,4.597,1.83,4.702,4.318s-1.833,4.597-4.32,4.702C56.674,32.38,56.609,32.381,56.545,32.381z M56.551,24.182
				c-0.053,0-0.105,0.001-0.159,0.004c-2.029,0.086-3.61,1.807-3.524,3.837c0.086,2.031,1.787,3.613,3.836,3.525
				c2.029-0.086,3.611-1.808,3.525-3.837C60.145,25.731,58.529,24.182,56.551,24.182z"/>
		</g>
		<g>
			<circle cx="56.427" cy="27.713" r="1.368"/>
		</g>
		<g opacity="0.29">
			<g>
				<path fill="#999999" d="M24.422,67.926l-2.961-2.703c3.099-1.895,6.461-3.662,7.926-5.832c2.503-3.707,3.243-6.917,2.574-10.328
					c-0.642-3.268-1.223-6.793-1.141-10.433c0.1-4.422,1.157-8.041,3.231-11.064c1.925-2.805,5.161-4.392,9.357-4.587
					c3.147-0.146,5.685,0.523,5.792,0.552l-0.135,0.502c-0.026-0.007-2.577-0.681-5.646-0.535c-4.079,0.193-7.087,1.661-8.941,4.362
					c-4.202,6.126-3.449,13.762-2.008,21.103C33.739,55.43,30.378,61.171,24.422,67.926z"/>
			</g>
		</g>
		<g>
			<polygon fill="#8D9092" points="27.36,58.199 30.332,60.979 32.938,57.455 30.034,55.168 			"/>
			<path fill="#4F5254" d="M30.36,61.29l-3.289-3.077l2.938-3.329l3.215,2.533L30.36,61.29z M27.648,58.185l2.655,2.483l2.348-3.174
				l-2.591-2.042L27.648,58.185z"/>
		</g>
		<g opacity="0.25">
			<path fill="#FFFFFF" d="M53.578,31.486l-1.233,3.346c0,0-6.675-2.209-11.457,11.024c-3.09,8.548-11.776,32.504-11.776,32.504
				s-2.731-1.054-2.424-1.875l15.156-40.102c0,0,2.026-2.908,3.545-3.151c1.519-0.244,6.082-0.133,6.082-0.133l1.033-3.092
				L53.578,31.486z"/>
		</g>
		<g opacity="0.3">
			<path fill="#231F20" d="M56.374,31.961l-1.213,3.813c0,0,2.362,3.245-0.102,9.668S41.16,82.682,41.16,82.682
				s3.666,1.571,6.285,0.961l14.8-41.032c0,0,0.565-1.659-0.831-3.143c-1.397-1.484-4.659-4.382-4.659-4.382l1.04-3.314
				L56.374,31.961z"/>
		</g>
	</g>
</g>
</svg>
