<?xml version="1.0" encoding="utf-8"?>
<!-- Generator: Adobe Illustrator 15.1.0, SVG Export Plug-In . SVG Version: 6.00 Build 0)  -->
<!DOCTYPE svg PUBLIC "-//W3C//DTD SVG 1.1//EN" "http://www.w3.org/Graphics/SVG/1.1/DTD/svg11.dtd">
<svg version="1.1" id="Layer_1" xmlns="http://www.w3.org/2000/svg" xmlns:xlink="http://www.w3.org/1999/xlink" x="0px" y="0px"
	 width="100px" height="100px" viewBox="0 0 100 100" enable-background="new 0 0 100 100" xml:space="preserve">
<g>
	<path fill="#E5A417" d="M49.415,13.454c0,0-49.847,74.074,0,74.037C99.423,87.455,49.415,13.454,49.415,13.454z"/>
	<path fill="#DD8B1D" d="M52.06,51.145c-13.251,1.01-17.308-10.579-17.308-10.579l0,0C25.695,61.113,20.388,87.48,49.415,87.461
		c28.799-0.021,23.9-25.98,15.013-46.209C62.374,45.729,59.07,50.61,52.06,51.145z"/>
	<path fill="#975913" d="M50.117,66.561c-17.779,0-23.17,8.256-15.599,12.168s25.617,6.129,30.917,0
		C76.678,65.73,50.117,66.561,50.117,66.561z"/>
	<path opacity="0.46" fill="#FFF0AB" d="M49.408,16.071c0,0-27.938,38.175-12.33,50.732c15.607,12.555,31.343,2.027,30.805-7.23
		C67.344,50.314,49.408,16.071,49.408,16.071z"/>
	<path fill="#FFFFFF" d="M51.176,24.674c0,0,2.1,11.389,5.301,11.863C59.677,37.01,50.671,15.588,51.176,24.674z"/>
	<path fill="#FFFFFF" d="M58.615,44.318c0,0,8.305,26.395,4.775,31.17s2.753,2.408,3.529-0.943
		C67.697,71.191,70.449,60.898,58.615,44.318z"/>
	<path opacity="0.5" fill="#FFF68B" d="M35.445,41.393c0,0-15.718,32.052,3.207,38.99c18.926,6.939,1.902-14.029,1.072-22.957
		C38.894,48.5,43,24.529,35.445,41.393z"/>
</g>
</svg>
