<?xml version="1.0" encoding="utf-8"?>
<!-- Generator: Adobe Illustrator 15.1.0, SVG Export Plug-In . SVG Version: 6.00 Build 0)  -->
<!DOCTYPE svg PUBLIC "-//W3C//DTD SVG 1.1//EN" "http://www.w3.org/Graphics/SVG/1.1/DTD/svg11.dtd">
<svg version="1.1" id="Layer_1" xmlns="http://www.w3.org/2000/svg" xmlns:xlink="http://www.w3.org/1999/xlink" x="0px" y="0px"
	 width="100px" height="100px" viewBox="0 0 100 100" enable-background="new 0 0 100 100" xml:space="preserve">
<g>
	<circle opacity="0.81" fill="#0D1623" stroke="#CCCCCC" stroke-miterlimit="10" cx="50.183" cy="50.109" r="24.802"/>
	<g>
		<path fill="#E6E6E6" d="M32.519,50.627l-0.882,1.552c0,0-0.18,0.099-0.146,0.343l-0.736,1.389l0.131,0.082l8.184,7.758
			c0,0,0.131-0.081,0.277-0.375c0.147-0.294,1.553-2.598,1.553-2.598s0.229-0.179-0.164-0.49
			C40.343,57.978,32.519,50.627,32.519,50.627z"/>
		<path fill="#E6E6E6" d="M35.92,48.027l-0.883,1.551c0,0-0.18,0.098-0.146,0.344l-0.735,1.388l0.131,0.082l8.183,7.759
			c0,0,0.131-0.082,0.278-0.376s1.552-2.597,1.552-2.597s0.229-0.18-0.164-0.49C43.744,55.377,35.92,48.027,35.92,48.027z"/>
		<path fill="#E6E6E6" d="M54.924,32.023l-0.883,1.552c0,0-0.179,0.098-0.146,0.343l-0.734,1.388l0.131,0.082l8.183,7.759
			c0,0,0.13-0.082,0.278-0.376c0.146-0.294,1.551-2.597,1.551-2.597s0.229-0.18-0.163-0.49S54.924,32.023,54.924,32.023z"/>
		<path fill="#E6E6E6" d="M41.32,58.83l-0.882,1.551c0,0-0.179,0.098-0.147,0.343l-0.734,1.39l0.131,0.081l8.184,7.759
			c0,0,0.13-0.082,0.277-0.376c0.146-0.294,1.552-2.597,1.552-2.597s0.228-0.18-0.163-0.49C49.145,66.18,41.32,58.83,41.32,58.83z"
			/>
		<path fill="#E6E6E6" d="M44.722,56.229L43.84,57.78c0,0-0.18,0.099-0.147,0.344l-0.735,1.388l0.131,0.082l8.184,7.758
			c0,0,0.131-0.082,0.277-0.375c0.147-0.294,1.552-2.598,1.552-2.598s0.229-0.18-0.163-0.49
			C52.546,63.579,44.722,56.229,44.722,56.229z"/>
		<path fill="#E6E6E6" d="M60.325,42.826l-0.882,1.552c0,0-0.18,0.098-0.147,0.342l-0.735,1.389l0.131,0.082l8.184,7.759
			c0,0,0.131-0.082,0.277-0.376c0.147-0.294,1.553-2.597,1.553-2.597s0.229-0.18-0.164-0.49S60.325,42.826,60.325,42.826z"/>
		<path fill="#E6E6E6" d="M63.727,40.225l-0.883,1.551c0,0-0.18,0.098-0.146,0.344l-0.735,1.388l0.131,0.082l8.183,7.758
			c0,0,0.131-0.081,0.277-0.375c0.148-0.294,1.553-2.598,1.553-2.598s0.229-0.18-0.164-0.489
			C71.55,47.575,63.727,40.225,63.727,40.225z"/>
		<polygon fill="#E6E6E6" points="39.492,60.385 40.105,61.128 64.564,40.643 64.178,39.77 		"/>
		<polygon fill="#E6E6E6" points="44.465,51.073 42.914,52.743 45.871,55.304 46.939,54.617 47.795,53.098 47.367,52.984 
			46.73,53.188 		"/>
		<polygon fill="#E6E6E6" points="53.667,43.271 52.116,44.941 55.072,47.502 56.142,46.815 56.996,45.295 56.569,45.182 
			55.933,45.387 		"/>
		<g>
			<path fill="#E6E6E6" d="M59.939,42.284c-0.393-0.31-8.217-7.661-8.217-7.661l-0.881,1.552c0,0-0.18,0.098-0.148,0.343
				l-0.734,1.389l0.131,0.082l8.184,7.759c0,0,0.13-0.082,0.277-0.376c0.146-0.294,1.551-2.597,1.551-2.597
				S60.331,42.595,59.939,42.284z"/>
			<path fill="#E6E6E6" d="M54.876,49.386l-1.215,1.112l-0.325-0.205l0.445-0.531l-2.14-1.488l-0.599,0.41l-0.428-0.273
				c-0.065-0.004-0.123,0-0.178,0.008c0.088-0.195,0.12-0.432-0.079-0.631l-0.169-1.967c0,0-0.467-0.232,0.021-0.338
				c0.486-0.105,1.227-0.318,1.479-0.952c0.254-0.634,0.486-1.015-0.147-0.93c-0.634,0.085-1.078,0.126-1.247,0.465
				c-0.17,0.338-0.74,1.142-0.74,1.142s-0.338-0.148-0.359,0.338c0,0-0.339,0.212-0.317,0.424c0.021,0.211,0,0.908,0,0.908
				l-0.381,0.275l-0.655-0.423c0,0-0.189-0.042-0.274-0.253c-0.085-0.212-0.296-0.424-0.825-0.254
				c-0.527,0.168-0.93-0.086-0.739-0.232c0.19-0.148,0.528-0.529,0.444-0.783c-0.085-0.253-0.254-0.316-0.254-0.316l0.042-0.55
				l0.866-0.697l0.17,0.169l1.311-0.93l-0.486-0.444l0.17-0.126l-0.698-0.635l-0.825,0.614l0.043,0.169l-0.719,0.528
				c0,0-0.105-0.232-0.317-0.338c0,0,0.042-0.423-0.317-0.402s-0.592,0.211-0.443,0.571l-0.211,0.317l-0.021,0.824l-0.402,0.359
				l-2.072-1.522c0,0-1.014-0.042-0.93,1.12l2.057,1.41l-2.905,1.966c0.052,0.017,1.163,1.182,1.163,1.182l2.904-2.416
				c0.133,0.018,0.332,0.015,0.439-0.133c0,0,0.105,0.297,0.359,0.339c0,0-0.338,0.147-0.297,0.592
				c0.043,0.444,0.297,1.332,0.297,1.332s0.274,0.19,0.528,0c0.253-0.19,0.444-0.507,0.444-0.507s0.676,0.063,0.908,0.401
				c0.036,0.052,0.113,0.128,0.217,0.216l-1.162,0.945l1.231,1.163l1.173-1.29c0.428,0.219,0.854,0.363,1.126,0.302
				c0.004,0.074,0.011,0.12,0.011,0.12l2.589,2.066l-0.622,0.535c0,0-0.273-0.017-0.599,0.188c-0.325,0.206-0.564,0.754-0.564,0.754
				l-1.489,1.164l1.352,0.959l1.318-1.079c1.027-0.017,0.685-0.839,0.685-0.839l3.269-3.012L54.876,49.386z"/>
		</g>
	</g>
</g>
</svg>
