<?xml version="1.0" encoding="utf-8"?>
<!-- Generator: Adobe Illustrator 15.1.0, SVG Export Plug-In . SVG Version: 6.00 Build 0)  -->
<!DOCTYPE svg PUBLIC "-//W3C//DTD SVG 1.1//EN" "http://www.w3.org/Graphics/SVG/1.1/DTD/svg11.dtd">
<svg version="1.1" id="Layer_1" xmlns="http://www.w3.org/2000/svg" xmlns:xlink="http://www.w3.org/1999/xlink" x="0px" y="0px"
	 width="100px" height="100px" viewBox="0 0 100 100" enable-background="new 0 0 100 100" xml:space="preserve">
<g>
	<g opacity="0.81">
		<circle fill="#0D1623" cx="49.882" cy="50.111" r="49.012"/>
		<path fill="#CCCCCC" d="M49.883,100.109c-27.571,0-50.001-22.43-50.001-49.999c0-27.571,22.43-50.001,50.001-50.001
			c27.569,0,49.999,22.43,49.999,50.001C99.882,77.68,77.452,100.109,49.883,100.109z M49.883,2.086
			c-26.48,0-48.025,21.544-48.025,48.025c0,26.481,21.544,48.023,48.025,48.023s48.022-21.542,48.022-48.023
			C97.905,23.63,76.363,2.086,49.883,2.086z"/>
	</g>
	<g>
		<g>
			<path fill="#E6E6E6" d="M14.975,51.136L13.232,54.2c0,0-0.357,0.196-0.291,0.679l-1.451,2.744l0.258,0.162l16.17,15.331
				c0,0,0.257-0.162,0.55-0.741c0.29-0.583,3.064-5.134,3.064-5.134s0.452-0.354-0.322-0.969
				C30.437,65.659,14.975,51.136,14.975,51.136z"/>
		</g>
		<g>
			<path fill="#E6E6E6" d="M21.696,45.997l-1.745,3.066c0,0-0.353,0.193-0.29,0.679l-1.453,2.74l0.259,0.162L34.64,67.979
				c0,0,0.257-0.162,0.548-0.744c0.289-0.579,3.066-5.13,3.066-5.13s0.449-0.357-0.322-0.969
				C37.156,60.522,21.696,45.997,21.696,45.997z"/>
		</g>
		<g>
			<path fill="#E6E6E6" d="M59.25,14.371l-1.742,3.066c0,0-0.355,0.193-0.29,0.679l-1.455,2.742l0.261,0.16l16.17,15.334
				c0,0,0.259-0.162,0.548-0.745c0.291-0.579,3.068-5.129,3.068-5.129s0.449-0.357-0.324-0.969
				C74.712,28.896,59.25,14.371,59.25,14.371z"/>
		</g>
		<g>
			<path fill="#E6E6E6" d="M32.37,67.344l-1.745,3.066c0,0-0.354,0.193-0.289,0.676l-1.453,2.746l0.259,0.16l16.17,15.332
				c0,0,0.258-0.16,0.548-0.743c0.293-0.579,3.068-5.131,3.068-5.131s0.451-0.354-0.324-0.969
				C47.829,81.867,32.37,67.344,32.37,67.344z"/>
		</g>
		<g>
			<path fill="#E6E6E6" d="M39.09,62.205l-1.743,3.064c0,0-0.356,0.194-0.291,0.679l-1.451,2.744l0.257,0.162L52.03,84.186
				c0,0,0.259-0.162,0.551-0.743c0.291-0.581,3.066-5.132,3.066-5.132s0.451-0.354-0.322-0.969
				C54.551,76.729,39.09,62.205,39.09,62.205z"/>
		</g>
		<g>
			<path fill="#E6E6E6" d="M69.924,35.718l-1.743,3.066c0,0-0.354,0.193-0.291,0.676l-1.451,2.744l0.259,0.162l16.172,15.333
				c0,0,0.254-0.16,0.548-0.743c0.289-0.579,3.064-5.132,3.064-5.132s0.453-0.353-0.322-0.967
				C85.385,50.244,69.924,35.718,69.924,35.718z"/>
		</g>
		<g>
			<path fill="#E6E6E6" d="M76.646,30.58l-1.743,3.064c0,0-0.354,0.195-0.293,0.679l-1.451,2.744l0.259,0.162l16.171,15.33
				c0,0,0.257-0.162,0.549-0.741c0.289-0.582,3.066-5.133,3.066-5.133s0.449-0.355-0.322-0.969
				C92.104,45.103,76.646,30.58,76.646,30.58z"/>
		</g>
		<g>
			<polygon fill="#E6E6E6" points="28.754,70.416 29.968,71.885 78.303,31.405 77.535,29.68 			"/>
		</g>
		<g>
			<polygon fill="#E6E6E6" points="38.582,52.016 35.518,55.315 41.359,60.375 43.472,59.021 45.16,56.018 44.315,55.792 
				43.057,56.195 			"/>
		</g>
		<g>
			<polygon fill="#E6E6E6" points="56.767,36.6 53.702,39.898 59.543,44.96 61.656,43.602 63.347,40.599 62.502,40.375 
				61.243,40.78 			"/>
		</g>
		<g>
			<g>
				<path fill="#E6E6E6" d="M69.161,34.647C68.386,34.036,52.926,19.51,52.926,19.51l-1.744,3.066c0,0-0.355,0.195-0.29,0.677
					l-1.451,2.744l0.257,0.162l16.17,15.33c0,0,0.259-0.162,0.55-0.741c0.292-0.583,3.066-5.133,3.066-5.133
					S69.936,35.261,69.161,34.647z"/>
			</g>
			<g>
				<path fill="#E6E6E6" d="M59.155,48.681l-2.4,2.2l-0.645-0.407l0.882-1.048l-4.229-2.941l-1.183,0.811l-0.846-0.541
					c-0.129-0.008-0.243,0-0.353,0.014c0.176-0.384,0.239-0.851-0.154-1.245l-0.336-3.887c0,0-0.919-0.459,0.042-0.668
					c0.961-0.21,2.424-0.629,2.926-1.881s0.961-2.005-0.293-1.839c-1.253,0.17-2.131,0.251-2.467,0.919
					c-0.332,0.669-1.459,2.258-1.459,2.258s-0.671-0.293-0.712,0.667c0,0-0.67,0.417-0.627,0.836c0.042,0.418,0,1.796,0,1.796
					L46.55,44.27l-1.293-0.838c0,0-0.378-0.081-0.544-0.5c-0.166-0.419-0.585-0.836-1.629-0.502
					c-1.046,0.334-1.839-0.168-1.463-0.459c0.375-0.292,1.046-1.044,0.878-1.546c-0.168-0.502-0.503-0.625-0.503-0.625l0.085-1.088
					l1.713-1.378l0.334,0.334l2.59-1.839l-0.961-0.876l0.334-0.25l-1.378-1.254l-1.629,1.212l0.083,0.335l-1.422,1.042
					c0,0-0.209-0.459-0.626-0.667c0,0,0.083-0.833-0.627-0.793c-0.708,0.041-1.169,0.418-0.876,1.129l-0.419,0.625l-0.042,1.629
					l-0.793,0.71l-4.094-3.006c0,0-2.007-0.085-1.839,2.213l4.066,2.785l-5.743,3.885c0.103,0.033,2.3,2.335,2.3,2.335l5.737-4.772
					c0.261,0.035,0.656,0.027,0.867-0.262c0,0,0.21,0.584,0.71,0.667c0,0-0.668,0.293-0.583,1.169
					c0.081,0.878,0.583,2.632,0.583,2.632s0.544,0.376,1.046,0c0.502-0.375,0.876-1.001,0.876-1.001s1.337,0.125,1.799,0.793
					c0.069,0.104,0.224,0.255,0.426,0.429l-2.298,1.866l2.436,2.298l2.315-2.547c0.85,0.433,1.688,0.718,2.228,0.595
					c0.007,0.146,0.019,0.239,0.019,0.239l5.118,4.082l-1.228,1.06c0,0-0.542-0.035-1.185,0.37s-1.115,1.49-1.115,1.49l-2.941,2.298
					l2.671,1.896l2.602-2.133c2.03-0.032,1.354-1.655,1.354-1.655l6.457-5.952L59.155,48.681z"/>
			</g>
		</g>
	</g>
</g>
</svg>
