<?xml version="1.0" encoding="utf-8"?>
<!-- Generator: Adobe Illustrator 15.1.0, SVG Export Plug-In . SVG Version: 6.00 Build 0)  -->
<!DOCTYPE svg PUBLIC "-//W3C//DTD SVG 1.1//EN" "http://www.w3.org/Graphics/SVG/1.1/DTD/svg11.dtd">
<svg version="1.1" id="Layer_1" xmlns="http://www.w3.org/2000/svg" xmlns:xlink="http://www.w3.org/1999/xlink" x="0px" y="0px"
	 width="100px" height="100px" viewBox="0 0 100 100" enable-background="new 0 0 100 100" xml:space="preserve">
<path opacity="0.23" fill="#FFFFFF" d="M49.738,18.575c-13.193,0-23.888,10.695-23.888,23.888s10.694,23.888,23.888,23.888
	s23.888-10.695,23.888-23.888S62.932,18.575,49.738,18.575z M64,48H54v10H44V48H34V38h10V28h10v10h10V48z"/>
<rect x="3.927" y="73.801" fill="none" width="91.322" height="15.147"/>
<text transform="matrix(1 0 0 1 29.5137 81.8105)" opacity="0.3" fill="#FFFFFF" font-family="'FranklinGothic-Medium'" font-size="12">MORE...</text>
<g>
	<circle opacity="0.8" fill="#000014" cx="50.728" cy="48.801" r="27.524"/>
	<g id="Moon_3_">
		<g id="MoonBase_3_">
			<circle fill="#ED1C24" cx="50.341" cy="48.55" r="21.872"/>
		</g>
		<g>
			<path fill="#EE4933" d="M44.499,28.278c-1.863,0.541-3.597,1.31-5.185,2.265c0.877,0.094,2.349-0.134,2.622-0.225
				c0.366-0.122,0.778,0.428,0.97,0.795s1.284,0.979,1.594,0.795s2.252-1.473,2.626-1.104s5.754-0.064,6.243,0
				s2.383-0.425,2.2-0.853s1.229-0.243,1.835-0.564c0.27-0.143,0.491-0.41,0.651-0.662C53.846,27.193,49.131,26.933,44.499,28.278z"
				/>
		</g>
		<path fill="#AE181E" d="M35.312,32.827c0,0-6.786,5.179-6.908,15.722c-0.122,10.543,7.482,16.122,7.482,16.122
			s0.344-6.19,1.811-7.108c1.467-0.916,2.567-0.916,1.65-2.629c-0.917-1.711-1.834-4.42-1.345-5.083s2.384-2.192,2.995-1.581
			s0.979,0.918,1.773,3.363s0.222,1.65,0.783,2.996c0.562,1.344,4.097,4.219,4.866,4.401s7.637,2.154,8.636,2.056
			c0.999-0.1,3.104-0.16,3.519-0.344s2.127,0.061,2.738-0.428c0.611-0.49,2.444-4.391,2.689-4.672s0.855-2.971,2.018-4.071
			s1.528-2.661,0.795-2.583c-0.733,0.076-1.895,0.749-2.078,1.299c-0.184,0.551-0.795,2.574-1.406,3.213s-3.275,2.352-4.756,2.412
			s-5.516-0.123-6.249-0.795s0.519-2.096,0.81-2.852s-0.138-1.826-1.482-3.277s-1.65-1.119-2.384-1.988s2.14-2.117,2.445-2.961
			c0.306-0.843-7.895-1.462-10.214-0.969s-4.276,1.77-4.031,0c0.245-1.77,0.796-2.361,2.385-3.227s3.484-0.566,3.668-1.511
			s-1.223-2.186-2.629-2.482s-8.253,0.448-7.703-1.208S38.021,31.188,35.312,32.827z"/>
		<g id="MoonCraters_3_">
			
				<circle opacity="0.48" fill="#AB2125" stroke="#96080B" stroke-width="0.5" stroke-miterlimit="10" cx="47.577" cy="36.822" r="3.022"/>
			
				<circle opacity="0.48" fill="#AB2125" stroke="#96080B" stroke-width="0.5" stroke-miterlimit="10" cx="47.576" cy="59.356" r="3.021"/>
			
				<circle opacity="0.48" fill="#AB2125" stroke="#96080B" stroke-width="0.5" stroke-miterlimit="10" cx="62.914" cy="48.988" r="4.947"/>
			
				<circle opacity="0.48" fill="#AB2125" stroke="#96080B" stroke-width="0.5" stroke-miterlimit="10" cx="35.375" cy="38.333" r="1.51"/>
			
				<circle opacity="0.48" fill="#AB2125" stroke="#96080B" stroke-width="0.5" stroke-miterlimit="10" cx="36.544" cy="52.749" r="2.897"/>
			
				<circle opacity="0.48" fill="#AB2125" stroke="#96080B" stroke-width="0.5" stroke-miterlimit="10" cx="60.367" cy="62.293" r="1.206"/>
			<circle opacity="0.48" fill="#AB2125" stroke="#96080B" stroke-miterlimit="10" cx="50.598" cy="51.058" r="1.206"/>
			
				<circle opacity="0.48" fill="#AB2125" stroke="#96080B" stroke-width="0.5" stroke-miterlimit="10" cx="54.928" cy="35.849" r="1.206"/>
			<path opacity="0.48" fill="#AB2125" stroke="#96080B" stroke-width="0.5" stroke-miterlimit="10" d="M51.622,44.724
				c0.354,1.218-0.346,2.491-1.562,2.845c-1.218,0.354-2.489-0.348-2.844-1.566c-0.352-1.214,0.348-2.487,1.564-2.84
				C49.998,42.809,51.27,43.509,51.622,44.724z"/>
			<path opacity="0.48" fill="#AB2125" stroke="#96080B" stroke-width="0.5" stroke-miterlimit="10" d="M39.871,42.429
				c0.354,1.218-0.346,2.491-1.562,2.845c-1.218,0.354-2.489-0.348-2.844-1.566c-0.352-1.214,0.348-2.487,1.564-2.841
				C38.247,40.514,39.519,41.214,39.871,42.429z"/>
			<path opacity="0.48" fill="#AB2125" stroke="#96080B" stroke-width="0.5" stroke-miterlimit="10" d="M54.837,64.029
				c0.354,1.219-0.346,2.492-1.562,2.845c-1.218,0.354-2.489-0.347-2.844-1.565c-0.352-1.215,0.348-2.487,1.564-2.841
				C53.213,62.115,54.484,62.815,54.837,64.029z"/>
			
				<circle opacity="0.48" fill="#AB2125" stroke="#96080B" stroke-width="0.5" stroke-miterlimit="10" cx="60.768" cy="36.071" r="2.443"/>
		</g>
	</g>
</g>
</svg>
