<?xml version="1.0" encoding="utf-8"?>
<!-- Generator: Adobe Illustrator 15.1.0, SVG Export Plug-In . SVG Version: 6.00 Build 0)  -->
<!DOCTYPE svg PUBLIC "-//W3C//DTD SVG 1.1//EN" "http://www.w3.org/Graphics/SVG/1.1/DTD/svg11.dtd">
<svg version="1.1" id="Layer_1" xmlns="http://www.w3.org/2000/svg" xmlns:xlink="http://www.w3.org/1999/xlink" x="0px" y="0px"
	 width="100px" height="100px" viewBox="0 0 100 100" enable-background="new 0 0 100 100" xml:space="preserve">
<g>
	<path opacity="0.8" fill="#000014" d="M100.462,50.347c0,27.614-22.384,49.997-49.998,49.997
		c-27.616,0-50.002-22.383-50.002-49.997c0-27.616,22.387-50.002,50.002-50.002C78.078,0.344,100.462,22.731,100.462,50.347z"/>
	<g id="Moon_15_">
		<g id="MoonBase_15_">
			<path fill="#ED1C24" d="M89.962,38.417c6.398,22.04-6.281,45.088-28.32,51.485c-22.038,6.398-45.089-6.277-51.488-28.314
				c-6.398-22.039,6.28-45.092,28.318-51.491C60.511,3.699,83.563,16.377,89.962,38.417z"/>
		</g>
		<g>
			<path fill="#EE4933" d="M39.422,11.835c-3.54,1.028-6.833,2.49-9.85,4.302c1.666,0.18,4.462-0.254,4.981-0.428
				c0.696-0.23,1.479,0.814,1.842,1.51c0.364,0.698,2.44,1.859,3.028,1.51c0.588-0.349,4.278-2.797,4.988-2.096
				c0.711,0.703,10.932-0.121,11.861,0c0.929,0.123,4.526-0.808,4.181-1.62c-0.349-0.813,2.333-0.461,3.484-1.07
				c0.513-0.271,0.934-0.779,1.238-1.257C57.179,9.775,48.222,9.28,39.422,11.835z"/>
		</g>
		<path fill="#AE181E" d="M21.968,20.477c0,0-12.892,9.84-13.125,29.869C8.612,70.373,23.059,80.972,23.059,80.972
			s0.652-11.76,3.439-13.502c2.787-1.742,4.877-1.742,3.136-4.994c-1.742-3.254-3.484-8.397-2.554-9.658
			c0.929-1.261,4.528-4.164,5.69-3.002c1.161,1.162,1.859,1.744,3.369,6.39c1.51,4.646,0.421,3.135,1.487,5.689
			c1.067,2.555,7.783,8.015,9.245,8.361c1.462,0.349,14.508,4.093,16.406,3.904c1.898-0.187,5.896-0.302,6.684-0.649
			c0.79-0.35,4.042,0.114,5.202-0.815c1.162-0.93,4.645-8.339,5.11-8.873c0.465-0.533,1.625-5.646,3.833-7.736
			c2.207-2.089,2.902-5.055,1.511-4.906c-1.395,0.146-3.6,1.422-3.948,2.469c-0.35,1.046-1.511,4.888-2.673,6.104
			c-1.16,1.213-6.222,4.466-9.035,4.582c-2.812,0.115-10.479-0.233-11.871-1.511s0.985-3.98,1.538-5.417
			c0.554-1.436-0.262-3.471-2.815-6.227c-2.555-2.758-3.136-2.125-4.529-3.776c-1.393-1.653,4.064-4.024,4.646-5.625
			c0.581-1.603-14.998-2.779-19.403-1.842c-4.407,0.937-8.124,3.362-7.658,0c0.465-3.361,1.511-4.486,4.53-6.131
			c3.018-1.644,6.619-1.076,6.968-2.869c0.349-1.795-2.322-4.152-4.994-4.715c-2.671-0.564-15.679,0.852-14.635-2.295
			C22.781,20.779,27.115,17.364,21.968,20.477z"/>
		<g id="MoonCraters_15_">
			
				<circle opacity="0.48" fill="#AB2125" stroke="#96080B" stroke-width="0.5" stroke-miterlimit="10" cx="44.807" cy="27.722" r="5.741"/>
			<path opacity="0.48" fill="#AB2125" stroke="#96080B" stroke-width="0.5" stroke-miterlimit="10" d="M50.318,68.932
				c0.883,3.039-0.868,6.225-3.915,7.111c-3.044,0.881-6.228-0.873-7.109-3.912c-0.885-3.045,0.864-6.23,3.909-7.113
				C46.249,64.133,49.435,65.887,50.318,68.932z"/>
			<path opacity="0.48" fill="#AB2125" stroke="#96080B" stroke-width="0.5" stroke-miterlimit="10" d="M82.97,48.213
				c1.449,4.986-1.421,10.199-6.406,11.646c-4.982,1.447-10.198-1.418-11.646-6.406c-1.445-4.98,1.422-10.197,6.405-11.645
				C76.308,40.362,81.523,43.232,82.97,48.213z"/>
			<path opacity="0.48" fill="#AB2125" stroke="#96080B" stroke-width="0.5" stroke-miterlimit="10" d="M24.382,29.794
				c0.441,1.521-0.433,3.109-1.956,3.551c-1.521,0.442-3.113-0.431-3.555-1.952c-0.443-1.525,0.435-3.115,1.956-3.557
				C22.351,27.394,23.938,28.27,24.382,29.794z"/>
			<path opacity="0.48" fill="#AB2125" stroke="#96080B" stroke-width="0.5" stroke-miterlimit="10" d="M29.133,56.445
				c0.846,2.918-0.835,5.965-3.753,6.813c-2.918,0.848-5.97-0.826-6.816-3.742c-0.848-2.92,0.83-5.975,3.75-6.822
				C25.232,51.846,28.285,53.527,29.133,56.445z"/>
			
				<circle opacity="0.48" fill="#AB2125" stroke="#96080B" stroke-width="0.5" stroke-miterlimit="10" cx="69.105" cy="76.111" r="2.291"/>
			<path opacity="0.48" fill="#AB2125" stroke="#96080B" stroke-miterlimit="10" d="M52.746,54.127
				c0.354,1.219-0.345,2.49-1.56,2.844c-1.216,0.354-2.486-0.35-2.841-1.564c-0.352-1.217,0.346-2.488,1.562-2.842
				C51.122,52.213,52.395,52.914,52.746,54.127z"/>
			
				<circle opacity="0.48" fill="#AB2125" stroke="#96080B" stroke-width="0.5" stroke-miterlimit="10" cx="58.772" cy="25.875" r="2.291"/>
			<path opacity="0.48" fill="#AB2125" stroke="#96080B" stroke-width="0.5" stroke-miterlimit="10" d="M52.492,42.733
				c0.673,2.315-0.656,4.734-2.967,5.404c-2.313,0.671-4.729-0.659-5.402-2.975c-0.668-2.308,0.661-4.725,2.973-5.396
				C49.407,39.096,51.822,40.427,52.492,42.733z"/>
			<path opacity="0.48" fill="#AB2125" stroke="#96080B" stroke-width="0.5" stroke-miterlimit="10" d="M30.168,38.373
				c0.672,2.315-0.657,4.735-2.966,5.404c-2.314,0.672-4.729-0.659-5.403-2.974c-0.668-2.308,0.661-4.725,2.972-5.397
				C27.083,34.737,29.498,36.067,30.168,38.373z"/>
			<path opacity="0.48" fill="#AB2125" stroke="#96080B" stroke-width="0.5" stroke-miterlimit="10" d="M58.6,79.41
				c0.672,2.314-0.657,4.732-2.968,5.402c-2.313,0.672-4.728-0.658-5.401-2.971c-0.667-2.309,0.66-4.729,2.972-5.4
				C55.514,75.771,57.93,77.104,58.6,79.41z"/>
			<path opacity="0.48" fill="#AB2125" stroke="#96080B" stroke-width="0.5" stroke-miterlimit="10" d="M74.323,25.002
				c0.713,2.458-0.704,5.035-3.164,5.749c-2.461,0.715-5.037-0.703-5.749-3.161c-0.716-2.467,0.699-5.042,3.161-5.755
				C71.031,21.12,73.606,22.537,74.323,25.002z"/>
		</g>
	</g>
</g>
</svg>
