<?xml version="1.0" encoding="utf-8"?>
<!-- Generator: Adobe Illustrator 15.1.0, SVG Export Plug-In . SVG Version: 6.00 Build 0)  -->
<!DOCTYPE svg PUBLIC "-//W3C//DTD SVG 1.1//EN" "http://www.w3.org/Graphics/SVG/1.1/DTD/svg11.dtd">
<svg version="1.1" id="Layer_1" xmlns="http://www.w3.org/2000/svg" xmlns:xlink="http://www.w3.org/1999/xlink" x="0px" y="0px"
	 width="100px" height="100px" viewBox="0 0 100 100" enable-background="new 0 0 100 100" xml:space="preserve">
<g>
	<g>
		<path fill="#EEDC00" stroke="#DDB10A" stroke-miterlimit="10" d="M88.5,74.875c0,2.555-2.07,4.625-4.624,4.625H17.124
			c-2.554,0-4.624-2.07-4.624-4.625v-40.75c0-2.554,2.07-4.625,4.624-4.625h66.752c2.554,0,4.624,2.07,4.624,4.625V74.875z"/>
		<path fill="#FCE900" d="M15.232,76.953c0,0,20.697-23.978,40.459-32.399S83.344,30,83.344,30H18.807c0,0-4.807-0.512-4.807,3.747
			v40.652C14,74.398,13.868,76.023,15.232,76.953z"/>
		<path fill="#696A6D" stroke="#231F20" stroke-miterlimit="10" d="M41.197,27.868l0.743-5.302c0,0,0.453-1.065,1.903-1.065
			s13.496,0,13.496,0s1.526,0.208,1.584,1.412c0.059,1.204,0.986,5.588,0.986,5.588h-2.955l0.055-4.328c0,0,0.059-1.289-0.986-1.2
			c-1.044,0.09-11.078-0.043-11.078-0.043s-0.986-0.065-1.218,1.316s-0.116,3.924-0.116,3.924L41.197,27.868z"/>
		<rect x="46.5" y="20.5" fill="#696A6D" stroke="#231F20" stroke-miterlimit="10" width="8" height="3"/>
		<polygon fill="#696A6D" stroke="#231F20" stroke-miterlimit="10" points="24.934,29.5 25.789,27.5 30.367,27.5 31.18,29.5 		"/>
		<polygon fill="#696A6D" stroke="#231F20" stroke-miterlimit="10" points="70.019,29.5 70.874,27.5 75.451,27.5 76.264,29.5 		"/>
		<polygon fill="#696A6D" stroke="#231F20" stroke-miterlimit="10" points="38.807,29.5 39.662,27.5 44.239,27.5 45.051,29.5 		"/>
		<polygon fill="#696A6D" stroke="#231F20" stroke-miterlimit="10" points="55.375,29.5 56.231,27.5 60.809,27.5 61.621,29.5 		"/>
		<rect x="46" y="23" width="9" height="1"/>
		<rect x="46" y="21" fill="#CCCCCC" width="8" height="1"/>
		<g>
			<path fill="#6A6B6C" stroke="#58595B" stroke-miterlimit="10" d="M68.47,64.916c0,0-16.409-12.596-17.724-14.29
				c-1.314-1.693-1.032-2.339-1.702-8.002c-0.67-5.661-7.032-5.344-11.241-4.773c-4.21,0.57-4.004,1.726-4.004,1.726l7.736,2.668
				l0.993,2.176l-0.988,2.905l-1.851,0.68l-8.051-3.083c-0.271,8.25,13.404,10.064,13.404,10.064s15.664,12.98,17.915,14.686
				c2.25,1.707,4.212,1.119,5.827-0.52C70.402,67.514,68.47,64.916,68.47,64.916z M65.348,68.57
				c-0.846-0.123-1.43-0.908-1.306-1.754c0.124-0.844,0.909-1.43,1.754-1.305c0.846,0.123,1.431,0.908,1.306,1.754
				C66.979,68.111,66.192,68.695,65.348,68.57z"/>
			<line fill="none" stroke="#58595B" stroke-miterlimit="10" x1="41.54" y1="47.326" x2="38.813" y2="52.979"/>
			<line fill="none" stroke="#58595B" stroke-miterlimit="10" x1="39.689" y1="48.005" x2="39.956" y2="50.608"/>
			<path fill="#505152" stroke="#323638" stroke-miterlimit="10" d="M49.704,52.037c0,0-2.893-0.313-2.396,2.699l14.645,11.838
				c0,0,0.401-2.318,2.301-2.477L49.704,52.037z"/>
			<polygon fill="#7D7E81" stroke="#535456" stroke-miterlimit="10" points="44.406,46.808 48.114,47.976 46.045,53.541 
				42.519,52.436 			"/>
			<line fill="none" stroke="#535456" stroke-miterlimit="10" x1="47.044" y1="47.639" x2="43.883" y2="48.37"/>
			<line fill="none" stroke="#535456" stroke-miterlimit="10" x1="47.756" y1="48.938" x2="43.393" y2="49.831"/>
			<line fill="none" stroke="#535456" stroke-miterlimit="10" x1="47.19" y1="50.462" x2="42.982" y2="51.053"/>
			<line fill="none" stroke="#535456" stroke-miterlimit="10" x1="46.613" y1="52.014" x2="43.271" y2="52.545"/>
		</g>
		<path opacity="0.5" fill="#222324" d="M62.958,69.672c2.25,1.707,4.212,1.119,5.827-0.52c1.617-1.639-0.315-4.236-0.315-4.236
			S52.061,52.32,50.746,50.626c-0.782-1.007-0.999-1.651-1.188-3.194c-6.985,3.423-9.594,6.279-9.602,6.287
			c2.733,0.953,5.086,1.268,5.086,1.268S60.707,67.967,62.958,69.672z M64.042,66.816c0.124-0.844,0.909-1.43,1.754-1.305
			c0.846,0.123,1.431,0.908,1.306,1.754c-0.123,0.846-0.909,1.43-1.754,1.305C64.502,68.447,63.918,67.662,64.042,66.816z"/>
	</g>
</g>
</svg>
