<?xml version="1.0" encoding="utf-8"?>
<!-- Generator: Adobe Illustrator 15.1.0, SVG Export Plug-In . SVG Version: 6.00 Build 0)  -->
<!DOCTYPE svg PUBLIC "-//W3C//DTD SVG 1.1//EN" "http://www.w3.org/Graphics/SVG/1.1/DTD/svg11.dtd">
<svg version="1.1" id="Layer_1" xmlns="http://www.w3.org/2000/svg" xmlns:xlink="http://www.w3.org/1999/xlink" x="0px" y="0px"
	 width="100px" height="100px" viewBox="0 0 100 100" enable-background="new 0 0 100 100" xml:space="preserve">
<g id="Moon_16_">
	<g id="MoonBase_16_">
		<g>
			<path fill="#F2F2F2" d="M50.406,96.565c-25.523,0-46.287-20.765-46.287-46.288S24.883,3.99,50.406,3.99
				c2.186,0,4.378,0.153,6.518,0.458c22.668,3.192,39.766,22.895,39.766,45.83C96.689,75.801,75.928,96.565,50.406,96.565z"/>
		</g>
		<g>
			<path fill="#000E30" d="M50.406,7.704c2.037,0,4.037,0.143,5.996,0.421c20.674,2.912,36.572,20.677,36.572,42.152
				c0,23.512-19.054,42.573-42.568,42.573c-23.511,0-42.573-19.062-42.573-42.573S26.896,7.704,50.406,7.704 M50.406,0.275
				c-27.571,0-50.002,22.431-50.002,50.002c0,27.572,22.431,50.002,50.002,50.002c27.57,0,49.998-22.43,49.998-50.002
				c0-24.775-18.472-46.059-42.968-49.509C55.135,0.442,52.766,0.275,50.406,0.275L50.406,0.275z"/>
		</g>
	</g>
	<g>
		<path fill="#B3B3B3" d="M58.049,32.831c0,0,3.739-3.396-6.452-8.815C41.403,18.597,50.771,6.93,56.402,8.125
			c5.632,1.192,19.724,5.267,25.637,13.678c5.915,8.406-3.105,23.482-8.929,24.938c-5.823,1.458-12.655-1.777-9.886,4.854
			c2.767,6.633,19.429,19.632,14.092,24.051C71.979,80.067,61.58,90.094,48.419,88.64c-13.161-1.455-21.896-5.661-26.588-11.16
			c-4.691-5.5-9.277-7.71-9.277-7.71s-8.59-17.016-2.488-33.125s25.78-4.428,27.426,4.694c1.647,9.124-3.53,23.846,1.323,19.315
			c4.854-4.529,4.776-4.367,5.139-9.545C44.317,45.934,55.606,37.363,58.049,32.831z"/>
	</g>
	<g id="MoonCraters_16_" opacity="0.58">
		<g>
			<circle fill="#939598" cx="20.247" cy="44.396" r="5.882"/>
			<path fill="#DEDEE0" d="M20.247,50.896c-3.585,0-6.503-2.917-6.503-6.5s2.917-6.501,6.503-6.501c3.585,0,6.503,2.917,6.503,6.501
				S23.832,50.896,20.247,50.896z M20.247,39.133c-2.903,0-5.265,2.36-5.265,5.263c0,2.902,2.361,5.262,5.265,5.262
				s5.265-2.36,5.265-5.262C25.512,41.494,23.15,39.133,20.247,39.133z"/>
		</g>
		<g>
			<path fill="#939598" d="M69.105,55.429c3.246,0,5.877,2.634,5.877,5.881c0,3.251-2.631,5.882-5.877,5.882
				c-3.25,0-5.881-2.631-5.881-5.882C63.225,58.063,65.855,55.429,69.105,55.429z"/>
			<path fill="#DEDEE0" d="M69.105,67.811c-3.584,0-6.5-2.917-6.5-6.501s2.916-6.5,6.5-6.5c3.582,0,6.496,2.916,6.496,6.5
				S72.688,67.811,69.105,67.811z M69.105,56.048c-2.902,0-5.263,2.36-5.263,5.262c0,2.902,2.36,5.263,5.263,5.263
				c2.899,0,5.258-2.36,5.258-5.263C74.363,58.408,72.005,56.048,69.105,56.048z"/>
		</g>
		<g>
			<path fill="#939598" d="M58.049,17.382c5.323,0,9.63,4.312,9.63,9.63c0,5.318-4.307,9.63-9.63,9.63
				c-5.315,0-9.63-4.312-9.63-9.63C48.419,21.694,52.733,17.382,58.049,17.382z"/>
			<path fill="#DEDEE0" d="M58.049,37.262c-5.651,0-10.249-4.598-10.249-10.249c0-5.652,4.598-10.249,10.249-10.249
				s10.249,4.597,10.249,10.249C68.298,32.664,63.7,37.262,58.049,37.262z M58.049,18.001c-4.969,0-9.011,4.042-9.011,9.011
				c0,4.968,4.042,9.011,9.011,9.011c4.97,0,9.011-4.042,9.011-9.011C67.06,22.044,63.019,18.001,58.049,18.001z"/>
		</g>
		<g>
			<circle fill="#939598" cx="23.186" cy="72.708" r="2.938"/>
			<path fill="#DEDEE0" d="M23.186,76.266c-1.961,0-3.558-1.597-3.558-3.558c0-1.962,1.596-3.558,3.558-3.558
				c1.963,0,3.56,1.596,3.56,3.558C26.745,74.669,25.148,76.266,23.186,76.266z M23.186,70.389c-1.279,0-2.319,1.04-2.319,2.319
				s1.04,2.319,2.319,2.319c1.28,0,2.321-1.04,2.321-2.319S24.466,70.389,23.186,70.389z"/>
		</g>
		<g>
			<path fill="#939598" d="M50.77,72.708c3.112,0,5.633,2.524,5.633,5.637c0,3.115-2.521,5.64-5.633,5.64
				c-3.115,0-5.64-2.524-5.64-5.64C45.13,75.232,47.654,72.708,50.77,72.708z"/>
			<path fill="#DEDEE0" d="M50.77,84.604c-3.451,0-6.259-2.808-6.259-6.259c0-3.448,2.808-6.256,6.259-6.256
				c3.446,0,6.251,2.808,6.251,6.256C57.021,81.796,54.216,84.604,50.77,84.604z M50.77,73.327c-2.768,0-5.021,2.251-5.021,5.018
				c0,2.77,2.253,5.021,5.021,5.021c2.764,0,5.014-2.251,5.014-5.021C55.783,75.578,53.533,73.327,50.77,73.327z"/>
		</g>
		<g>
			<path fill="#939598" d="M81.536,36.645c1.301,0,2.354,1.052,2.354,2.348s-1.053,2.346-2.354,2.346
				c-1.291,0-2.346-1.049-2.346-2.346S80.245,36.645,81.536,36.645z"/>
			<path fill="#DEDEE0" d="M81.536,41.958c-1.635,0-2.965-1.33-2.965-2.965c0-1.636,1.33-2.967,2.965-2.967
				c1.64,0,2.972,1.331,2.972,2.967C84.508,40.628,83.176,41.958,81.536,41.958z M81.536,37.264c-0.953,0-1.727,0.776-1.727,1.729
				c0,0.952,0.773,1.727,1.727,1.727c0.955,0,1.734-0.775,1.734-1.727C83.271,38.041,82.491,37.264,81.536,37.264z"/>
		</g>
		<g>
			<circle fill="#939598" cx="43.954" cy="50.269" r="4.463"/>
			<path fill="#DEDEE0" d="M43.954,55.352c-2.803,0-5.083-2.281-5.083-5.084c0-2.802,2.28-5.081,5.083-5.081
				c2.804,0,5.084,2.279,5.084,5.081C49.038,53.07,46.758,55.352,43.954,55.352z M43.954,46.425c-2.119,0-3.845,1.724-3.845,3.843
				c0,2.121,1.726,3.846,3.845,3.846c2.12,0,3.846-1.725,3.846-3.846C47.8,48.149,46.074,46.425,43.954,46.425z"/>
		</g>
		<g>
			<circle fill="#939598" cx="32.738" cy="24.014" r="4.754"/>
			<path fill="#DEDEE0" d="M32.738,29.387c-2.965,0-5.376-2.41-5.376-5.371c0-2.965,2.411-5.376,5.376-5.376
				c2.962,0,5.373,2.411,5.373,5.376C38.111,26.978,35.7,29.387,32.738,29.387z M32.738,19.878c-2.282,0-4.138,1.856-4.138,4.138
				c0,2.279,1.855,4.133,4.138,4.133c2.28,0,4.135-1.854,4.135-4.133C36.873,21.734,35.019,19.878,32.738,19.878z"/>
		</g>
	</g>
</g>
</svg>
