<?xml version="1.0" encoding="utf-8"?>
<!-- Generator: Adobe Illustrator 15.1.0, SVG Export Plug-In . SVG Version: 6.00 Build 0)  -->
<!DOCTYPE svg PUBLIC "-//W3C//DTD SVG 1.1//EN" "http://www.w3.org/Graphics/SVG/1.1/DTD/svg11.dtd">
<svg version="1.1" id="Layer_1" xmlns="http://www.w3.org/2000/svg" xmlns:xlink="http://www.w3.org/1999/xlink" x="0px" y="0px"
	 width="100px" height="100px" viewBox="0 0 100 100" enable-background="new 0 0 100 100" xml:space="preserve">
<g id="Moon_4_">
	<g id="MoonBase_4_">
		<path fill="#F2F2F2" d="M51.595,67.967c-10.307,0-18.692-8.385-18.692-18.691c0-10.306,8.386-18.69,18.692-18.69
			c0.884,0,1.769,0.062,2.631,0.184c9.154,1.291,16.059,9.247,16.059,18.507C70.284,59.582,61.9,67.967,51.595,67.967z"/>
		<path fill="#000E30" d="M51.595,32.085c0.821,0,1.63,0.057,2.421,0.169c8.349,1.177,14.769,8.35,14.769,17.021
			c0,9.495-7.694,17.191-17.189,17.191c-9.494,0-17.192-7.696-17.192-17.191C34.402,39.782,42.101,32.085,51.595,32.085
			 M51.595,29.085c-11.134,0-20.192,9.058-20.192,20.19c0,11.134,9.059,20.191,20.192,20.191c11.133,0,20.189-9.058,20.189-20.191
			c0-10.003-7.459-18.598-17.35-19.992C53.504,29.152,52.548,29.085,51.595,29.085L51.595,29.085z"/>
	</g>
	<path fill="#B3B3B3" d="M54.681,42.231c0,0,1.509-1.371-2.606-3.56c-4.115-2.189-0.332-6.899,1.941-6.417
		c2.274,0.482,7.965,2.127,10.353,5.523c2.389,3.396-1.254,9.482-3.605,10.071s-5.11-0.718-3.992,1.96s7.846,7.928,5.69,9.712
		c-2.156,1.784-6.354,5.834-11.669,5.247c-5.315-0.588-8.843-2.287-10.736-4.508s-3.746-3.113-3.746-3.113s-3.47-6.871-1.005-13.375
		c2.465-6.505,10.41-1.788,11.075,1.896c0.665,3.685-1.426,9.628,0.534,7.8c1.96-1.829,1.93-1.764,2.075-3.854
		C49.135,47.522,53.694,44.061,54.681,42.231z"/>
	<g id="MoonCraters_4_" opacity="0.58">
		<circle fill="#939598" stroke="#DEDEE0" stroke-width="0.5" stroke-miterlimit="10" cx="39.416" cy="46.901" r="2.375"/>
		<circle fill="#939598" stroke="#DEDEE0" stroke-width="0.5" stroke-miterlimit="10" cx="59.146" cy="53.73" r="2.375"/>
		<circle fill="#939598" stroke="#DEDEE0" stroke-width="0.5" stroke-miterlimit="10" cx="54.681" cy="39.881" r="3.889"/>
		<circle fill="#939598" stroke="#DEDEE0" stroke-width="0.5" stroke-miterlimit="10" cx="40.604" cy="58.333" r="1.187"/>
		<circle fill="#939598" stroke="#DEDEE0" stroke-width="0.5" stroke-miterlimit="10" cx="51.742" cy="60.61" r="2.276"/>
		<circle fill="#939598" stroke="#DEDEE0" stroke-width="0.5" stroke-miterlimit="10" cx="64.166" cy="44.719" r="0.948"/>
		<circle fill="#939598" stroke="#DEDEE0" stroke-width="0.5" stroke-miterlimit="10" cx="48.988" cy="49.273" r="1.802"/>
		<circle fill="#939598" stroke="#DEDEE0" stroke-width="0.5" stroke-miterlimit="10" cx="44.46" cy="38.671" r="1.92"/>
	</g>
</g>
</svg>
