<?xml version="1.0" encoding="utf-8"?>
<!-- Generator: Adobe Illustrator 15.1.0, SVG Export Plug-In . SVG Version: 6.00 Build 0)  -->
<!DOCTYPE svg PUBLIC "-//W3C//DTD SVG 1.1//EN" "http://www.w3.org/Graphics/SVG/1.1/DTD/svg11.dtd">
<svg version="1.1" id="Layer_1" xmlns="http://www.w3.org/2000/svg" xmlns:xlink="http://www.w3.org/1999/xlink" x="0px" y="0px"
	 width="100px" height="100px" viewBox="0 0 100 100" enable-background="new 0 0 100 100" xml:space="preserve">
<g>
	<g>
		<circle fill="#EC2127" cx="52.854" cy="51.158" r="14.895"/>
		<path fill="#750000" d="M52.854,66.78c-8.613,0-15.621-7.008-15.621-15.622c0-8.614,7.008-15.622,15.621-15.622
			c8.614,0,15.622,7.008,15.622,15.622C68.476,59.772,61.468,66.78,52.854,66.78z M52.854,36.99
			c-7.812,0-14.168,6.355-14.168,14.168c0,7.813,6.356,14.169,14.168,14.169c7.813,0,14.169-6.356,14.169-14.169
			C67.022,43.345,60.666,36.99,52.854,36.99z"/>
	</g>
	<g opacity="0.39">
		<path fill="#FFFFFF" d="M41.838,59.102c0,0,7.178-12.496,22.038-15.619c0,0-2.956-5.995-11.568-5.995S34.07,48.801,41.838,59.102z
			"/>
	</g>
</g>
<rect x="47.048" y="42.348" fill="none" width="14.727" height="18.527"/>
<text transform="matrix(1 0 0 1 47.0483 57.9678)" font-family="'MyriadPro-Regular'" font-size="22"> </text>
</svg>
