<?xml version="1.0" encoding="utf-8"?>
<!-- Generator: Adobe Illustrator 15.1.0, SVG Export Plug-In . SVG Version: 6.00 Build 0)  -->
<!DOCTYPE svg PUBLIC "-//W3C//DTD SVG 1.1//EN" "http://www.w3.org/Graphics/SVG/1.1/DTD/svg11.dtd">
<svg version="1.1" id="Layer_1" xmlns="http://www.w3.org/2000/svg" xmlns:xlink="http://www.w3.org/1999/xlink" x="0px" y="0px"
	 width="100px" height="100px" viewBox="0 0 100 100" enable-background="new 0 0 100 100" xml:space="preserve">
<g>
	<g>
		<circle opacity="0.42" fill="#C2DBE7" stroke="#72BADC" stroke-miterlimit="10" cx="50.345" cy="49.438" r="33.3"/>
		<circle opacity="0.37" fill="#E0ECED" cx="61.628" cy="37.911" r="14.545"/>
		<circle fill="#FFFFFD" cx="61.6" cy="29.59" r="5.243"/>
		<path opacity="0.23" fill="#E0ECED" d="M23.323,31.622c0,0-11.896,14.437,1.123,36.105c12.407,20.648,46.415,15.857,55.233-6.75
			C79.68,60.977,35.729,76.191,23.323,31.622z"/>
		<path fill="#FFFFFD" d="M18.365,42.519c0,0,2.061-0.159,2.677,0.766c0,0,5.827-22.923,29.794-23.54c0,0,2.965-1.708,0-3.115
			C50.836,16.63,26.275,15.438,18.365,42.519z"/>
		<path fill="#A6D2E6" d="M54.986,79.133c0,0-1.85,1.797,1.028,2.619c0,0,16.961-2.158,24.156-18.811c0,0-0.103-2.561-2.262-1.076
			C77.909,61.865,71.742,76.617,54.986,79.133z"/>
	</g>
</g>
</svg>
