<?xml version="1.0" encoding="utf-8"?>
<!-- Generator: Adobe Illustrator 15.1.0, SVG Export Plug-In . SVG Version: 6.00 Build 0)  -->
<!DOCTYPE svg PUBLIC "-//W3C//DTD SVG 1.1//EN" "http://www.w3.org/Graphics/SVG/1.1/DTD/svg11.dtd">
<svg version="1.1" id="Layer_1" xmlns="http://www.w3.org/2000/svg" xmlns:xlink="http://www.w3.org/1999/xlink" x="0px" y="0px"
	 width="278px" height="390px" viewBox="0 0 278 390" enable-background="new 0 0 278 390" xml:space="preserve">
<g>
	<path fill="#4BA4A8" stroke="#FFFFFF" stroke-miterlimit="10" d="M139.64,387.767l24.551-0.188l3.803-5.158l0.743-9.324l9.95-1.319
		l1.156-20.375l96.125-17.72l-0.172-28.328l-28.997-25.05l-54.398-78.063l-12.075-44.639l12.833-23.412l-1.311-10.371l-5.517,4.802
		l-16.549-41.902c-4.122-55.988-20.755-84.074-27.268-84.804c-6.509-0.732-11.013,6.841-11.013,6.841l0.01,0.566
		c-7.611,11.294-17.447,37.236-20.703,78.105l-16.803,41.799l-5.487-4.836l-1.369,10.363l12.687,23.492L87.49,202.806
		l-54.868,77.727L3.476,305.404L3.131,333.73l96.017,18.311l1.031,20.382l9.946,1.382l0.685,9.326l3.773,5.184l25.035,0.347
		L139.64,387.767z"/>
	
		<polyline fill="none" stroke="#FFFFFF" stroke-width="3" stroke-linecap="round" stroke-linejoin="round" stroke-miterlimit="10" points="
		160.604,37.735 153.863,31.7 149.366,36.98 129.519,37.358 125.4,31.7 119.782,37.735 	"/>
	
		<polyline fill="none" stroke="#FFFFFF" stroke-width="3" stroke-linecap="round" stroke-linejoin="round" stroke-miterlimit="10" points="
		157.609,102.626 157.98,63.39 150.867,34.954 	"/>
	
		<polyline fill="none" stroke="#FFFFFF" stroke-width="3" stroke-linecap="round" stroke-linejoin="round" stroke-miterlimit="10" points="
		121.652,102.248 120.156,62.635 127.646,35.471 	"/>
	
		<polyline fill="none" stroke="#FFFFFF" stroke-width="3" stroke-linecap="round" stroke-linejoin="round" stroke-miterlimit="10" points="
		167.718,166.007 173.708,166.384 181.201,199.583 242.994,289.374 274.826,314.275 	"/>
	
		<polyline fill="none" stroke="#FFFFFF" stroke-width="3" stroke-linecap="round" stroke-linejoin="round" stroke-miterlimit="10" points="
		112,169.5 104.945,169.5 98.059,199.928 37.763,288.981 2.138,309.325 	"/>
	
		<line fill="none" stroke="#FFFFFF" stroke-width="3" stroke-linecap="round" stroke-linejoin="round" stroke-miterlimit="10" x1="102" y1="328.5" x2="5" y2="328.5"/>
	
		<line fill="none" stroke="#FFFFFF" stroke-width="3" stroke-linecap="round" stroke-linejoin="round" stroke-miterlimit="10" x1="178.438" y1="327.479" x2="274.826" y2="326.725"/>
	
		<polygon fill="none" stroke="#FFFFFF" stroke-width="3" stroke-linecap="round" stroke-linejoin="round" stroke-miterlimit="10" points="
		166.597,104.5 112.5,104.5 112.5,294.5 168.075,294.5 	"/>
	<path fill="none" stroke="#FFFFFF" stroke-width="3" stroke-linecap="round" stroke-linejoin="round" stroke-miterlimit="10" d="
		M168.075,294.272c0,0,11.155,17.292,11.769,57.129"/>
	<path fill="none" stroke="#FFFFFF" stroke-width="3" stroke-linecap="round" stroke-linejoin="round" stroke-miterlimit="10" d="
		M99.148,352.041c1.846-42.214,13.936-57.769,13.936-57.769"/>
	
		<line fill="none" stroke="#FFFFFF" stroke-width="3" stroke-linecap="round" stroke-linejoin="round" stroke-miterlimit="10" x1="139.5" y1="295" x2="139.5" y2="351"/>
	<path fill="none" stroke="#FFFFFF" stroke-width="3" stroke-linecap="round" stroke-linejoin="round" stroke-miterlimit="10" d="
		M168.737,373.096c0,0-1.712-21.035-28.112-20.718c0,0-23.465-2.64-30.582,19.997"/>
</g>
<rect x="114" y="256" fill="#ED1C24" width="52" height="37"/>
</svg>
