<?xml version="1.0" encoding="utf-8"?>
<!-- Generator: Adobe Illustrator 15.1.0, SVG Export Plug-In . SVG Version: 6.00 Build 0)  -->
<!DOCTYPE svg PUBLIC "-//W3C//DTD SVG 1.1//EN" "http://www.w3.org/Graphics/SVG/1.1/DTD/svg11.dtd">
<svg version="1.1" id="Layer_1" xmlns="http://www.w3.org/2000/svg" xmlns:xlink="http://www.w3.org/1999/xlink" x="0px" y="0px"
	 width="100px" height="100px" viewBox="0 0 100 100" enable-background="new 0 0 100 100" xml:space="preserve">
<g>
	<circle fill="#CCCCCC" cx="48.959" cy="47.688" r="9.071"/>
	<g>
		<polygon fill="#F82105" points="48.96,51.836 44.818,54.014 45.608,49.402 42.259,46.137 46.889,45.464 48.96,41.269 
			51.029,45.464 55.659,46.137 52.31,49.402 53.101,54.014 		"/>
		<path fill="#602322" d="M48.96,41.751l1.927,3.907l4.313,0.627l-3.12,3.043l0.736,4.295l-3.856-2.029l-3.857,2.029l0.736-4.295
			l-3.12-3.043l4.312-0.627L48.96,41.751 M48.96,40.786l-0.384,0.777l-1.829,3.706l-4.091,0.595L41.8,45.987l0.62,0.604l2.96,2.885
			l-0.698,4.074l-0.146,0.854l0.767-0.403l3.658-1.923l3.657,1.923l0.767,0.403l-0.146-0.854l-0.699-4.074l2.96-2.885l0.62-0.604
			l-0.857-0.124l-4.089-0.595l-1.829-3.706L48.96,40.786L48.96,40.786z"/>
	</g>
	<path opacity="0.31" fill="#FFFFFF" d="M41.506,52.311c0,0-1.364-1.76-1.343-4.336c0.022-2.575,0.926-7.836,8.034-9.267
		c0,0,6.428-0.704,9.225,6.251C57.422,44.959,43.113,42.186,41.506,52.311z"/>
</g>
</svg>
