<?xml version="1.0" encoding="utf-8"?>
<!-- Generator: Adobe Illustrator 15.1.0, SVG Export Plug-In . SVG Version: 6.00 Build 0)  -->
<!DOCTYPE svg PUBLIC "-//W3C//DTD SVG 1.1//EN" "http://www.w3.org/Graphics/SVG/1.1/DTD/svg11.dtd">
<svg version="1.1" id="Layer_1" xmlns="http://www.w3.org/2000/svg" xmlns:xlink="http://www.w3.org/1999/xlink" x="0px" y="0px"
	 width="100px" height="100px" viewBox="0 0 100 100" enable-background="new 0 0 100 100" xml:space="preserve">
<g>
	<g>
		<path fill="#051C2D" d="M27.701,60.497c0,0-12.39-0.399-12.39,3.157s14.621,7.133,27.135,5.871l10.538,11.05l27.785-8.597
			C80.77,71.979,48.125,58.129,27.701,60.497z"/>
		<g>
			<g>
				<circle fill="#EE1625" cx="41.532" cy="42.395" r="22.78"/>
				<path fill="#EE1625" d="M46.626,29.105c7.867,0.731,10.52-3.289,10.52-3.289l0,0c-4.078-3.842-9.569-6.201-15.614-6.201
					C40.096,24.213,46.626,29.105,46.626,29.105z"/>
				<path fill="#2A0DFF" d="M57.146,25.816c-5.512-0.222-10.52,3.289-10.52,3.289c6.038-0.183,10.527,28.357,16.211,20.725
					c0.155-0.209,0.3-0.423,0.442-0.638c0.67-2.147,1.032-4.43,1.032-6.798C64.312,35.859,61.555,29.97,57.146,25.816z"/>
				<path fill="#FFFF3D" d="M46.626,29.105c0,0,10.924,19.189-12.194,34.936c0,0,23.173,7.33,28.836-14.813
					C63.268,49.229,65.382,34.046,46.626,29.105z"/>
				<path fill="#FFFF3D" d="M23.034,29.106c11.898,5.487,23.592-0.001,23.592-0.001c-0.688-4.333-2.101-7.391-3.926-9.461
					c-0.388-0.02-0.776-0.029-1.169-0.029C33.911,19.615,27.17,23.36,23.034,29.106z"/>
				<path fill="#2A0DFF" d="M46.626,29.105c-5.794-4.498-11.381-6.362-16.437-6.463c-6.834,3.933-11.438,11.303-11.438,19.752
					c0,3.387,0.745,6.599,2.07,9.488C41.325,43.391,46.626,29.105,46.626,29.105z"/>
			</g>
			<path opacity="0.35" fill="#051C2D" d="M22.366,38.467c0,0,5.671,21.532,30.372,13.686c0,0,10.43-5.648,9.515-14.89
				c0,0,5.672,22.229-16.833,26.438C22.914,67.908,17.06,43.79,22.366,38.467z"/>
			<path opacity="0.4" fill="#FFFFFF" d="M44.162,21.68c0,0-9.276-0.984-11.063,9.24s25.747,14.167,25.069,3.326
				S44.162,21.68,44.162,21.68z"/>
		</g>
		<g>
			<g>
				<path fill="#051C2D" d="M47.533,56.703"/>
				<polygon fill="#E5E5E5" points="83.695,62.602 80.855,70.964 53,80.575 53,77.437 49.369,66.708 				"/>
				<polygon fill="#0079C0" points="40.126,40.2 70.581,30.014 83.695,62.602 54.582,72.164 53.012,80.633 39.993,48.899 				"/>
				<polygon fill="#0079C0" points="53,80.575 80.796,71.979 82,71.188 82,70.525 53,79.599 				"/>
				<polygon opacity="0.35" fill="#051C2D" points="40.977,41.479 53.953,71.924 52.973,77.661 40.486,48.405 				"/>
				<line fill="none" stroke="#A3A5A6" stroke-miterlimit="10" x1="56.139" y1="73.017" x2="83.037" y2="64.589"/>
				<line fill="none" stroke="#A3A5A6" stroke-miterlimit="10" x1="55.645" y1="74.498" x2="82.544" y2="66.07"/>
				<line fill="none" stroke="#A3A5A6" stroke-miterlimit="10" x1="55.151" y1="76.473" x2="82.051" y2="68.045"/>
				<line fill="none" stroke="#A3A5A6" stroke-miterlimit="10" x1="54.658" y1="77.953" x2="81.557" y2="69.525"/>
			</g>
			<path fill="#348ECD" d="M41.601,40.957l10.095,24.138c0,0,3.307-15.645,10.553-22.111c7.247-6.468,7.792-11.531,7.792-11.531
				L41.601,40.957z"/>
		</g>
	</g>
</g>
</svg>
