<?xml version="1.0" encoding="utf-8"?>
<!-- Generator: Adobe Illustrator 15.1.0, SVG Export Plug-In . SVG Version: 6.00 Build 0)  -->
<!DOCTYPE svg PUBLIC "-//W3C//DTD SVG 1.1//EN" "http://www.w3.org/Graphics/SVG/1.1/DTD/svg11.dtd">
<svg version="1.1" id="Layer_1" xmlns="http://www.w3.org/2000/svg" xmlns:xlink="http://www.w3.org/1999/xlink" x="0px" y="0px"
	 width="100px" height="100px" viewBox="0 0 100 100" enable-background="new 0 0 100 100" xml:space="preserve">
<g>
	<path fill="#60C2D5" d="M49.961,9.836c0,0-54.081,80.366,0,80.327C104.218,90.124,49.961,9.836,49.961,9.836z"/>
	<path fill="#53A7B7" d="M52.83,50.728c-14.375,1.096-18.778-11.477-18.778-11.477l0,0c-9.826,22.294-15.585,50.901,15.909,50.878
		c31.246-0.022,25.931-28.187,16.288-50.133C64.021,44.853,60.437,50.148,52.83,50.728z"/>
	<path fill="#4B97A6" d="M50.723,67.454c-19.289,0-25.138,8.958-16.923,13.202c8.216,4.244,27.793,6.649,33.543,0
		C79.54,66.553,50.723,67.454,50.723,67.454z"/>
	<path opacity="0.46" fill="#BADEF5" enable-background="new    " d="M49.953,12.675c0,0-30.311,41.418-13.376,55.041
		c16.934,13.621,34.004,2.201,33.42-7.844C69.414,49.829,49.953,12.675,49.953,12.675z"/>
	<path fill="#FFFFFF" d="M51.871,22.009c0,0,2.278,12.357,5.751,12.871C61.096,35.394,51.324,12.151,51.871,22.009z"/>
	<path fill="#FFFFFF" d="M59.943,43.322c0,0,9.01,28.637,5.181,33.816c-3.828,5.182,2.987,2.613,3.829-1.022
		C69.797,72.479,72.782,61.311,59.943,43.322z"/>
	<path opacity="0.5" fill="#FFFFFF" enable-background="new    " d="M34.805,40.148c0,0-17.054,34.774,3.479,42.302
		c20.532,7.528,2.064-15.222,1.163-24.907C38.545,47.858,43.002,21.852,34.805,40.148z"/>
</g>
</svg>
