<?xml version="1.0" encoding="utf-8"?>
<!-- Generator: Adobe Illustrator 15.1.0, SVG Export Plug-In . SVG Version: 6.00 Build 0)  -->
<!DOCTYPE svg PUBLIC "-//W3C//DTD SVG 1.1//EN" "http://www.w3.org/Graphics/SVG/1.1/DTD/svg11.dtd">
<svg version="1.1" id="Layer_1" xmlns="http://www.w3.org/2000/svg" xmlns:xlink="http://www.w3.org/1999/xlink" x="0px" y="0px"
	 width="174px" height="174px" viewBox="0 0 174 174" enable-background="new 0 0 174 174" xml:space="preserve">
<path fill="#FFFFFF" d="M20.953,25.188"/>
<g>
	<path fill="#60C2D5" d="M87.787,16.392c0,0-94.606,140.589,0,140.521C182.701,156.845,87.787,16.392,87.787,16.392z"/>
	<path fill="#53A7B7" d="M92.807,87.927c-25.148,1.917-32.85-20.078-32.85-20.078l0,0c-17.189,39-27.263,89.045,27.83,89.005
		c54.66-0.039,45.362-49.309,28.494-87.702C112.383,77.649,106.113,86.913,92.807,87.927z"/>
	<path fill="#4B97A6" d="M89.121,117.188c-33.744,0-43.977,15.67-29.606,23.095s48.62,11.631,58.68,0
		C139.531,115.611,89.121,117.188,89.121,117.188z"/>
	<path opacity="0.46" fill="#BADEF5" d="M87.774,21.359c0,0-53.024,72.455-23.401,96.285s59.486,3.851,58.465-13.721
		C121.816,86.352,87.774,21.359,87.774,21.359z"/>
	<path fill="#FFFFFF" d="M91.13,37.688c0,0,3.985,21.616,10.06,22.515S90.172,20.443,91.13,37.688z"/>
	<path fill="#FFFFFF" d="M105.25,74.972c0,0,15.762,50.096,9.063,59.158c-6.697,9.063,5.225,4.572,6.699-1.79
		S127.71,106.439,105.25,74.972z"/>
	<path opacity="0.5" fill="#FFFFFF" d="M61.273,69.42c0,0-29.832,60.832,6.088,74.001c35.919,13.169,3.609-26.628,2.033-43.571
		C67.818,82.907,75.613,37.413,61.273,69.42z"/>
</g>
</svg>
